<ttFont>
<head>
    <!-- Most of this table will be recalculated by the compiler -->
    <tableVersion value="1.0"/>
    <fontRevision value="1.0"/>
    <checkSumAdjustment value="0xfdc110f6"/>
    <magicNumber value="0x5f0f3cf5"/>
    <flags value="00000000 00001011"/>
    <unitsPerEm value="1000"/>
    <created value="Mon Apr  8 19:23:48 2019"/>
    <modified value="Mon Apr  8 19:23:49 2019"/>
    <xMin value="-78"/>
    <yMin value="-288"/>
    <xMax value="1096"/>
    <yMax value="1011"/>
    <macStyle value="00000000 00000000"/>
    <lowestRecPPEM value="6"/>
    <fontDirectionHint value="2"/>
    <indexToLocFormat value="0"/>
    <glyphDataFormat value="0"/>
  </head>
    <TTGlyph name=".notdef" xMin="60" yMin="-100" xMax="454" yMax="750">
      <contour>
        <pt x="60" y="-100" on="1"/>
        <pt x="60" y="750" on="1"/>
        <pt x="454" y="750" on="1"/>
        <pt x="454" y="-100" on="1"/>
      </contour>
    </TTGlyph>
    <TTGlyph name="A" xMin="6" yMin="0" xMax="691" yMax="700">
      <contour>
        <pt x="6" y="0" on="1"/>
        <pt x="281" y="700" on="1"/>
        <pt x="420" y="700" on="1"/>
        <pt x="691" y="0" on="1"/>
        <pt x="562" y="0" on="1"/>
        <pt x="491" y="196" on="1"/>
        <pt x="203" y="196" on="1"/>
        <pt x="131" y="0" on="1"/>
      </contour>
      <contour>
        <pt x="238" y="290" on="1"/>
        <pt x="456" y="290" on="1"/>
        <pt x="348" y="588" on="1"/>
      </contour>
    </TTGlyph>
    <TTGlyph name="AE" xMin="6" yMin="0" xMax="897" yMax="700">
      <contour>
        <pt x="6" y="0" on="1"/>
        <pt x="281" y="700" on="1"/>
        <pt x="897" y="700" on="1"/>
        <pt x="897" y="595" on="1"/>
        <pt x="467" y="595" on="1"/>
        <pt x="537" y="404" on="1"/>
        <pt x="771" y="404" on="1"/>
        <pt x="771" y="302" on="1"/>
        <pt x="575" y="302" on="1"/>
        <pt x="647" y="105" on="1"/>
        <pt x="897" y="105" on="1"/>
        <pt x="897" y="0" on="1"/>
        <pt x="561" y="0" on="1"/>
        <pt x="490" y="196" on="1"/>
        <pt x="203" y="196" on="1"/>
        <pt x="131" y="0" on="1"/>
      </contour>
      <contour>
        <pt x="238" y="290" on="1"/>
        <pt x="456" y="290" on="1"/>
        <pt x="348" y="588" on="1"/>
      </contour>
    </TTGlyph>
    <TTGlyph name="Aacute" xMin="6" yMin="0" xMax="691" yMax="923">
      <component glyphName="A" x="0" y="0" flags="0x204"/>
      <component glyphName="acute" x="123" y="199" flags="0x4"/>
    </TTGlyph>
    <TTGlyph name="Abreve" xMin="6" yMin="0" xMax="691" yMax="939">
      <component glyphName="A" x="0" y="0" flags="0x204"/>
      <component glyphName="breve" x="89" y="199" flags="0x4"/>
    </TTGlyph>
    <TTGlyph name="Acircumflex" xMin="6" yMin="0" xMax="691" yMax="925">
      <component glyphName="A" x="0" y="0" flags="0x204"/>
      <component glyphName="circumflex" x="89" y="199" flags="0x4"/>
    </TTGlyph>
    <TTGlyph name="Adieresis" xMin="6" yMin="0" xMax="691" yMax="930">
      <component glyphName="A" x="0" y="0" flags="0x204"/>
      <component glyphName="dieresis" x="63" y="199" flags="0x4"/>
    </TTGlyph>
    <TTGlyph name="Agrave" xMin="6" yMin="0" xMax="691" yMax="923">
      <component glyphName="A" x="0" y="0" flags="0x204"/>
      <component glyphName="grave" x="49" y="199" flags="0x4"/>
    </TTGlyph>
    <TTGlyph name="Amacron" xMin="6" yMin="0" xMax="691" yMax="891">
      <component glyphName="A" x="0" y="0" flags="0x204"/>
      <component glyphName="macron" x="89" y="199" flags="0x4"/>
    </TTGlyph>
    <TTGlyph name="Aogonek" xMin="6" yMin="-231" xMax="717" yMax="700">
      <contour>
        <pt x="6" y="0" on="1"/>
        <pt x="281" y="700" on="1"/>
        <pt x="420" y="700" on="1"/>
        <pt x="691" y="0" on="1"/>
        <pt x="642" y="-31" on="0"/>
        <pt x="595" y="-88" on="0"/>
        <pt x="595" y="-116" on="1"/>
        <pt x="595" y="-141" on="0"/>
        <pt x="627" y="-169" on="0"/>
        <pt x="654" y="-169" on="1"/>
        <pt x="667" y="-169" on="0"/>
        <pt x="693" y="-163" on="0"/>
        <pt x="701" y="-157" on="1"/>
        <pt x="717" y="-210" on="1"/>
        <pt x="702" y="-220" on="0"/>
        <pt x="659" y="-231" on="0"/>
        <pt x="636" y="-231" on="1"/>
        <pt x="587" y="-231" on="0"/>
        <pt x="529" y="-179" on="0"/>
        <pt x="529" y="-136" on="1"/>
        <pt x="529" y="-99" on="0"/>
        <pt x="574" y="-34" on="0"/>
        <pt x="623" y="0" on="1"/>
        <pt x="562" y="0" on="1"/>
        <pt x="491" y="196" on="1"/>
        <pt x="203" y="196" on="1"/>
        <pt x="131" y="0" on="1"/>
      </contour>
      <contour>
        <pt x="238" y="290" on="1"/>
        <pt x="456" y="290" on="1"/>
        <pt x="348" y="588" on="1"/>
      </contour>
    </TTGlyph>
    <TTGlyph name="Aring" xMin="6" yMin="0" xMax="691" yMax="1011">
      <component glyphName="A" x="0" y="0" flags="0x204"/>
      <component glyphName="ring" x="89" y="199" flags="0x4"/>
    </TTGlyph>
    <TTGlyph name="Atilde" xMin="6" yMin="0" xMax="691" yMax="925">
      <component glyphName="A" x="0" y="0" flags="0x204"/>
      <component glyphName="tilde" x="91" y="199" flags="0x4"/>
    </TTGlyph>
    <TTGlyph name="B" xMin="84" yMin="0" xMax="640" yMax="700">
      <contour>
        <pt x="84" y="700" on="1"/>
        <pt x="395" y="700" on="1"/>
        <pt x="494" y="700" on="0"/>
        <pt x="616" y="598" on="0"/>
        <pt x="616" y="516" on="1"/>
        <pt x="616" y="464" on="0"/>
        <pt x="555" y="382" on="0"/>
        <pt x="504" y="361" on="1"/>
        <pt x="566" y="342" on="0"/>
        <pt x="640" y="254" on="0"/>
        <pt x="640" y="195" on="1"/>
        <pt x="640" y="108" on="0"/>
        <pt x="512" y="0" on="0"/>
        <pt x="409" y="0" on="1"/>
        <pt x="84" y="0" on="1"/>
      </contour>
      <contour>
        <pt x="383" y="602" on="1"/>
        <pt x="204" y="602" on="1"/>
        <pt x="204" y="406" on="1"/>
        <pt x="383" y="406" on="1"/>
        <pt x="434" y="406" on="0"/>
        <pt x="496" y="459" on="0"/>
        <pt x="496" y="504" on="1"/>
        <pt x="496" y="549" on="0"/>
        <pt x="434" y="602" on="0"/>
      </contour>
      <contour>
        <pt x="395" y="98" on="1"/>
        <pt x="451" y="98" on="0"/>
        <pt x="519" y="157" on="0"/>
        <pt x="519" y="206" on="1"/>
        <pt x="519" y="255" on="0"/>
        <pt x="451" y="313" on="0"/>
        <pt x="395" y="313" on="1"/>
        <pt x="204" y="313" on="1"/>
        <pt x="204" y="98" on="1"/>
      </contour>
    </TTGlyph>
    <TTGlyph name="C" xMin="51" yMin="-10" xMax="686" yMax="711">
      <contour>
        <pt x="417" y="98" on="1"/>
        <pt x="471" y="98" on="0"/>
        <pt x="568" y="145" on="0"/>
        <pt x="604" y="189" on="1"/>
        <pt x="683" y="113" on="1"/>
        <pt x="634" y="56" on="0"/>
        <pt x="491" y="-10" on="0"/>
        <pt x="413" y="-10" on="1"/>
        <pt x="337" y="-10" on="0"/>
        <pt x="204" y="46" on="0"/>
        <pt x="107" y="143" on="0"/>
        <pt x="51" y="275" on="0"/>
        <pt x="51" y="350" on="1"/>
        <pt x="51" y="426" on="0"/>
        <pt x="107" y="558" on="0"/>
        <pt x="204" y="655" on="0"/>
        <pt x="337" y="711" on="0"/>
        <pt x="413" y="711" on="1"/>
        <pt x="493" y="711" on="0"/>
        <pt x="638" y="645" on="0"/>
        <pt x="686" y="587" on="1"/>
        <pt x="605" y="507" on="1"/>
        <pt x="568" y="553" on="0"/>
        <pt x="468" y="604" on="0"/>
        <pt x="413" y="604" on="1"/>
        <pt x="362" y="604" on="0"/>
        <pt x="274" y="565" on="0"/>
        <pt x="211" y="497" on="0"/>
        <pt x="174" y="404" on="0"/>
        <pt x="174" y="350" on="1"/>
        <pt x="174" y="297" on="0"/>
        <pt x="211" y="204" on="0"/>
        <pt x="276" y="137" on="0"/>
        <pt x="366" y="98" on="0"/>
      </contour>
    </TTGlyph>
    <TTGlyph name="Cacute" xMin="51" yMin="-10" xMax="686" yMax="923">
      <component glyphName="C" x="0" y="0" flags="0x204"/>
      <component glyphName="acute" x="174" y="199" flags="0x4"/>
    </TTGlyph>
    <TTGlyph name="Ccaron" xMin="51" yMin="-10" xMax="686" yMax="929">
      <component glyphName="C" x="0" y="0" flags="0x204"/>
      <component glyphName="caron" x="140" y="199" flags="0x4"/>
    </TTGlyph>
    <TTGlyph name="Ccedilla" xMin="51" yMin="-246" xMax="686" yMax="711">
      <contour>
        <pt x="417" y="98" on="1"/>
        <pt x="471" y="98" on="0"/>
        <pt x="568" y="145" on="0"/>
        <pt x="604" y="189" on="1"/>
        <pt x="683" y="113" on="1"/>
        <pt x="637" y="59" on="0"/>
        <pt x="501" y="-7" on="0"/>
        <pt x="428" y="-10" on="1"/>
        <pt x="415" y="-62" on="1"/>
        <pt x="461" y="-65" on="0"/>
        <pt x="514" y="-109" on="0"/>
        <pt x="514" y="-145" on="1"/>
        <pt x="514" y="-188" on="0"/>
        <pt x="446" y="-246" on="0"/>
        <pt x="394" y="-246" on="1"/>
        <pt x="356" y="-246" on="0"/>
        <pt x="295" y="-226" on="0"/>
        <pt x="273" y="-207" on="1"/>
        <pt x="310" y="-164" on="1"/>
        <pt x="327" y="-177" on="0"/>
        <pt x="368" y="-192" on="0"/>
        <pt x="388" y="-192" on="1"/>
        <pt x="417" y="-192" on="0"/>
        <pt x="449" y="-169" on="0"/>
        <pt x="449" y="-147" on="1"/>
        <pt x="449" y="-127" on="0"/>
        <pt x="415" y="-105" on="0"/>
        <pt x="384" y="-105" on="1"/>
        <pt x="348" y="-105" on="1"/>
        <pt x="372" y="-8" on="1"/>
        <pt x="303" y="-1" on="0"/>
        <pt x="185" y="61" on="0"/>
        <pt x="99" y="155" on="0"/>
        <pt x="51" y="280" on="0"/>
        <pt x="51" y="350" on="1"/>
        <pt x="51" y="426" on="0"/>
        <pt x="107" y="558" on="0"/>
        <pt x="204" y="655" on="0"/>
        <pt x="337" y="711" on="0"/>
        <pt x="413" y="711" on="1"/>
        <pt x="493" y="711" on="0"/>
        <pt x="638" y="645" on="0"/>
        <pt x="686" y="587" on="1"/>
        <pt x="605" y="507" on="1"/>
        <pt x="568" y="553" on="0"/>
        <pt x="468" y="604" on="0"/>
        <pt x="413" y="604" on="1"/>
        <pt x="362" y="604" on="0"/>
        <pt x="274" y="565" on="0"/>
        <pt x="211" y="497" on="0"/>
        <pt x="174" y="404" on="0"/>
        <pt x="174" y="350" on="1"/>
        <pt x="174" y="297" on="0"/>
        <pt x="211" y="204" on="0"/>
        <pt x="276" y="137" on="0"/>
        <pt x="366" y="98" on="0"/>
      </contour>
    </TTGlyph>
    <TTGlyph name="Ccircumflex" xMin="51" yMin="-10" xMax="686" yMax="925">
      <component glyphName="C" x="0" y="0" flags="0x204"/>
      <component glyphName="circumflex" x="140" y="199" flags="0x4"/>
    </TTGlyph>
    <TTGlyph name="Cdotaccent" xMin="51" yMin="-10" xMax="686" yMax="930">
      <component glyphName="C" x="0" y="0" flags="0x204"/>
      <component glyphName="dotaccent" x="251" y="199" flags="0x4"/>
    </TTGlyph>
    <TTGlyph name="D" xMin="84" yMin="0" xMax="691" yMax="700">
      <contour>
        <pt x="84" y="0" on="1"/>
        <pt x="84" y="700" on="1"/>
        <pt x="340" y="700" on="1"/>
        <pt x="415" y="700" on="0"/>
        <pt x="545" y="646" on="0"/>
        <pt x="638" y="552" on="0"/>
        <pt x="691" y="423" on="0"/>
        <pt x="691" y="349" on="1"/>
        <pt x="691" y="275" on="0"/>
        <pt x="638" y="147" on="0"/>
        <pt x="545" y="54" on="0"/>
        <pt x="415" y="0" on="0"/>
        <pt x="340" y="0" on="1"/>
      </contour>
      <contour>
        <pt x="343" y="596" on="1"/>
        <pt x="204" y="596" on="1"/>
        <pt x="204" y="104" on="1"/>
        <pt x="343" y="104" on="1"/>
        <pt x="390" y="104" on="0"/>
        <pt x="472" y="142" on="0"/>
        <pt x="532" y="207" on="0"/>
        <pt x="567" y="297" on="0"/>
        <pt x="567" y="349" on="1"/>
        <pt x="567" y="401" on="0"/>
        <pt x="532" y="492" on="0"/>
        <pt x="472" y="558" on="0"/>
        <pt x="390" y="596" on="0"/>
      </contour>
    </TTGlyph>
    <TTGlyph name="Dcaron" xMin="84" yMin="0" xMax="691" yMax="929">
      <component glyphName="D" x="0" y="0" flags="0x204"/>
      <component glyphName="caron" x="108" y="199" flags="0x4"/>
    </TTGlyph>
    <TTGlyph name="Dcroat" xMin="24" yMin="0" xMax="720" yMax="700">
      <contour>
        <pt x="113" y="0" on="1"/>
        <pt x="113" y="302" on="1"/>
        <pt x="24" y="302" on="1"/>
        <pt x="24" y="399" on="1"/>
        <pt x="113" y="399" on="1"/>
        <pt x="113" y="700" on="1"/>
        <pt x="369" y="700" on="1"/>
        <pt x="444" y="700" on="0"/>
        <pt x="574" y="646" on="0"/>
        <pt x="667" y="552" on="0"/>
        <pt x="720" y="423" on="0"/>
        <pt x="720" y="349" on="1"/>
        <pt x="720" y="275" on="0"/>
        <pt x="667" y="147" on="0"/>
        <pt x="574" y="54" on="0"/>
        <pt x="444" y="0" on="0"/>
        <pt x="369" y="0" on="1"/>
      </contour>
      <contour>
        <pt x="372" y="596" on="1"/>
        <pt x="233" y="596" on="1"/>
        <pt x="233" y="399" on="1"/>
        <pt x="387" y="399" on="1"/>
        <pt x="387" y="302" on="1"/>
        <pt x="233" y="302" on="1"/>
        <pt x="233" y="104" on="1"/>
        <pt x="372" y="104" on="1"/>
        <pt x="419" y="104" on="0"/>
        <pt x="501" y="142" on="0"/>
        <pt x="561" y="207" on="0"/>
        <pt x="596" y="297" on="0"/>
        <pt x="596" y="349" on="1"/>
        <pt x="596" y="401" on="0"/>
        <pt x="561" y="492" on="0"/>
        <pt x="501" y="558" on="0"/>
        <pt x="419" y="596" on="0"/>
      </contour>
    </TTGlyph>
    <TTGlyph name="E" xMin="84" yMin="0" xMax="589" yMax="700">
      <contour>
        <pt x="84" y="0" on="1"/>
        <pt x="84" y="700" on="1"/>
        <pt x="585" y="700" on="1"/>
        <pt x="585" y="598" on="1"/>
        <pt x="204" y="598" on="1"/>
        <pt x="204" y="403" on="1"/>
        <pt x="470" y="403" on="1"/>
        <pt x="470" y="303" on="1"/>
        <pt x="204" y="303" on="1"/>
        <pt x="204" y="102" on="1"/>
        <pt x="589" y="102" on="1"/>
        <pt x="589" y="0" on="1"/>
      </contour>
    </TTGlyph>
    <TTGlyph name="Eacute" xMin="84" yMin="0" xMax="589" yMax="923">
      <component glyphName="E" x="0" y="0" flags="0x204"/>
      <component glyphName="acute" x="120" y="199" flags="0x4"/>
    </TTGlyph>
    <TTGlyph name="Ebreve" xMin="84" yMin="0" xMax="589" yMax="939">
      <component glyphName="E" x="0" y="0" flags="0x204"/>
      <component glyphName="breve" x="86" y="199" flags="0x4"/>
    </TTGlyph>
    <TTGlyph name="Ecaron" xMin="84" yMin="0" xMax="589" yMax="929">
      <component glyphName="E" x="0" y="0" flags="0x204"/>
      <component glyphName="caron" x="86" y="199" flags="0x4"/>
    </TTGlyph>
    <TTGlyph name="Ecircumflex" xMin="84" yMin="0" xMax="589" yMax="925">
      <component glyphName="E" x="0" y="0" flags="0x204"/>
      <component glyphName="circumflex" x="86" y="199" flags="0x4"/>
    </TTGlyph>
    <TTGlyph name="Edieresis" xMin="84" yMin="0" xMax="589" yMax="930">
      <component glyphName="E" x="0" y="0" flags="0x204"/>
      <component glyphName="dieresis" x="60" y="199" flags="0x4"/>
    </TTGlyph>
    <TTGlyph name="Edotaccent" xMin="84" yMin="0" xMax="589" yMax="930">
      <component glyphName="E" x="0" y="0" flags="0x204"/>
      <component glyphName="dotaccent" x="197" y="199" flags="0x4"/>
    </TTGlyph>
    <TTGlyph name="Egrave" xMin="84" yMin="0" xMax="589" yMax="923">
      <component glyphName="E" x="0" y="0" flags="0x204"/>
      <component glyphName="grave" x="46" y="199" flags="0x4"/>
    </TTGlyph>
    <TTGlyph name="Emacron" xMin="84" yMin="0" xMax="589" yMax="891">
      <component glyphName="E" x="0" y="0" flags="0x204"/>
      <component glyphName="macron" x="86" y="199" flags="0x4"/>
    </TTGlyph>
    <TTGlyph name="Eng" xMin="84" yMin="-212" xMax="677" yMax="700">
      <contour>
        <pt x="569" y="2" on="1"/>
        <pt x="197" y="517" on="1"/>
        <pt x="197" y="0" on="1"/>
        <pt x="84" y="0" on="1"/>
        <pt x="84" y="700" on="1"/>
        <pt x="201" y="700" on="1"/>
        <pt x="564" y="197" on="1"/>
        <pt x="564" y="700" on="1"/>
        <pt x="677" y="700" on="1"/>
        <pt x="677" y="-69" on="1"/>
        <pt x="677" y="-137" on="0"/>
        <pt x="601" y="-212" on="0"/>
        <pt x="531" y="-212" on="1"/>
        <pt x="515" y="-212" on="0"/>
        <pt x="482" y="-208" on="0"/>
        <pt x="470" y="-205" on="1"/>
        <pt x="470" y="-115" on="1"/>
        <pt x="480" y="-117" on="0"/>
        <pt x="499" y="-119" on="0"/>
        <pt x="511" y="-119" on="1"/>
        <pt x="541" y="-119" on="0"/>
        <pt x="569" y="-92" on="0"/>
        <pt x="569" y="-61" on="1"/>
      </contour>
    </TTGlyph>
    <TTGlyph name="Eogonek" xMin="84" yMin="-231" xMax="612" yMax="700">
      <contour>
        <pt x="84" y="0" on="1"/>
        <pt x="84" y="700" on="1"/>
        <pt x="585" y="700" on="1"/>
        <pt x="585" y="598" on="1"/>
        <pt x="204" y="598" on="1"/>
        <pt x="204" y="403" on="1"/>
        <pt x="470" y="403" on="1"/>
        <pt x="470" y="303" on="1"/>
        <pt x="204" y="303" on="1"/>
        <pt x="204" y="102" on="1"/>
        <pt x="589" y="102" on="1"/>
        <pt x="589" y="0" on="1"/>
        <pt x="586" y="0" on="1"/>
        <pt x="537" y="-31" on="0"/>
        <pt x="490" y="-88" on="0"/>
        <pt x="490" y="-116" on="1"/>
        <pt x="490" y="-141" on="0"/>
        <pt x="522" y="-169" on="0"/>
        <pt x="549" y="-169" on="1"/>
        <pt x="562" y="-169" on="0"/>
        <pt x="588" y="-163" on="0"/>
        <pt x="596" y="-157" on="1"/>
        <pt x="612" y="-210" on="1"/>
        <pt x="597" y="-220" on="0"/>
        <pt x="554" y="-231" on="0"/>
        <pt x="531" y="-231" on="1"/>
        <pt x="482" y="-231" on="0"/>
        <pt x="424" y="-179" on="0"/>
        <pt x="424" y="-136" on="1"/>
        <pt x="424" y="-99" on="0"/>
        <pt x="469" y="-34" on="0"/>
        <pt x="518" y="0" on="1"/>
      </contour>
    </TTGlyph>
    <TTGlyph name="Eth" xMin="24" yMin="0" xMax="720" yMax="700">
      <contour>
        <pt x="113" y="0" on="1"/>
        <pt x="113" y="302" on="1"/>
        <pt x="24" y="302" on="1"/>
        <pt x="24" y="399" on="1"/>
        <pt x="113" y="399" on="1"/>
        <pt x="113" y="700" on="1"/>
        <pt x="369" y="700" on="1"/>
        <pt x="444" y="700" on="0"/>
        <pt x="574" y="646" on="0"/>
        <pt x="667" y="552" on="0"/>
        <pt x="720" y="423" on="0"/>
        <pt x="720" y="349" on="1"/>
        <pt x="720" y="275" on="0"/>
        <pt x="667" y="147" on="0"/>
        <pt x="574" y="54" on="0"/>
        <pt x="444" y="0" on="0"/>
        <pt x="369" y="0" on="1"/>
      </contour>
      <contour>
        <pt x="372" y="596" on="1"/>
        <pt x="233" y="596" on="1"/>
        <pt x="233" y="399" on="1"/>
        <pt x="387" y="399" on="1"/>
        <pt x="387" y="302" on="1"/>
        <pt x="233" y="302" on="1"/>
        <pt x="233" y="104" on="1"/>
        <pt x="372" y="104" on="1"/>
        <pt x="419" y="104" on="0"/>
        <pt x="501" y="142" on="0"/>
        <pt x="561" y="207" on="0"/>
        <pt x="596" y="297" on="0"/>
        <pt x="596" y="349" on="1"/>
        <pt x="596" y="401" on="0"/>
        <pt x="561" y="492" on="0"/>
        <pt x="501" y="558" on="0"/>
        <pt x="419" y="596" on="0"/>
      </contour>
    </TTGlyph>
    <TTGlyph name="Euro" xMin="42" yMin="-11" xMax="687" yMax="711">
      <contour>
        <pt x="230" y="350" on="1"/>
        <pt x="230" y="341" on="0"/>
        <pt x="230" y="324" on="0"/>
        <pt x="231" y="316" on="1"/>
        <pt x="450" y="316" on="1"/>
        <pt x="427" y="253" on="1"/>
        <pt x="242" y="253" on="1"/>
        <pt x="262" y="175" on="0"/>
        <pt x="368" y="84" on="0"/>
        <pt x="441" y="84" on="1"/>
        <pt x="492" y="84" on="0"/>
        <pt x="582" y="133" on="0"/>
        <pt x="612" y="176" on="1"/>
        <pt x="685" y="117" on="1"/>
        <pt x="640" y="54" on="0"/>
        <pt x="516" y="-11" on="0"/>
        <pt x="441" y="-11" on="1"/>
        <pt x="326" y="-11" on="0"/>
        <pt x="162" y="134" on="0"/>
        <pt x="137" y="253" on="1"/>
        <pt x="42" y="253" on="1"/>
        <pt x="42" y="316" on="1"/>
        <pt x="128" y="316" on="1"/>
        <pt x="127" y="324" on="0"/>
        <pt x="127" y="341" on="0"/>
        <pt x="127" y="350" on="1"/>
        <pt x="127" y="359" on="0"/>
        <pt x="127" y="377" on="0"/>
        <pt x="128" y="385" on="1"/>
        <pt x="42" y="385" on="1"/>
        <pt x="42" y="449" on="1"/>
        <pt x="137" y="449" on="1"/>
        <pt x="163" y="566" on="0"/>
        <pt x="328" y="711" on="0"/>
        <pt x="443" y="711" on="1"/>
        <pt x="518" y="711" on="0"/>
        <pt x="642" y="647" on="0"/>
        <pt x="687" y="584" on="1"/>
        <pt x="612" y="524" on="1"/>
        <pt x="581" y="569" on="0"/>
        <pt x="493" y="617" on="0"/>
        <pt x="442" y="617" on="1"/>
        <pt x="369" y="617" on="0"/>
        <pt x="263" y="526" on="0"/>
        <pt x="242" y="449" on="1"/>
        <pt x="496" y="449" on="1"/>
        <pt x="473" y="385" on="1"/>
        <pt x="231" y="385" on="1"/>
        <pt x="230" y="377" on="0"/>
        <pt x="230" y="359" on="0"/>
      </contour>
    </TTGlyph>
    <TTGlyph name="F" xMin="84" yMin="0" xMax="587" yMax="700">
      <contour>
        <pt x="84" y="0" on="1"/>
        <pt x="84" y="700" on="1"/>
        <pt x="587" y="700" on="1"/>
        <pt x="587" y="598" on="1"/>
        <pt x="204" y="598" on="1"/>
        <pt x="204" y="398" on="1"/>
        <pt x="468" y="398" on="1"/>
        <pt x="468" y="298" on="1"/>
        <pt x="204" y="298" on="1"/>
        <pt x="204" y="0" on="1"/>
      </contour>
    </TTGlyph>
    <TTGlyph name="G" xMin="51" yMin="-11" xMax="751" yMax="711">
      <contour>
        <pt x="751" y="343" on="1"/>
        <pt x="751" y="268" on="0"/>
        <pt x="700" y="138" on="0"/>
        <pt x="610" y="43" on="0"/>
        <pt x="485" y="-11" on="0"/>
        <pt x="412" y="-11" on="1"/>
        <pt x="336" y="-11" on="0"/>
        <pt x="204" y="45" on="0"/>
        <pt x="107" y="142" on="0"/>
        <pt x="51" y="275" on="0"/>
        <pt x="51" y="350" on="1"/>
        <pt x="51" y="425" on="0"/>
        <pt x="107" y="558" on="0"/>
        <pt x="203" y="655" on="0"/>
        <pt x="335" y="711" on="0"/>
        <pt x="410" y="711" on="1"/>
        <pt x="493" y="711" on="0"/>
        <pt x="643" y="647" on="0"/>
        <pt x="693" y="587" on="1"/>
        <pt x="609" y="510" on="1"/>
        <pt x="573" y="556" on="0"/>
        <pt x="468" y="604" on="0"/>
        <pt x="410" y="604" on="1"/>
        <pt x="360" y="604" on="0"/>
        <pt x="273" y="565" on="0"/>
        <pt x="210" y="497" on="0"/>
        <pt x="174" y="403" on="0"/>
        <pt x="174" y="350" on="1"/>
        <pt x="174" y="296" on="0"/>
        <pt x="211" y="203" on="0"/>
        <pt x="274" y="134" on="0"/>
        <pt x="362" y="95" on="0"/>
        <pt x="413" y="95" on="1"/>
        <pt x="497" y="95" on="0"/>
        <pt x="615" y="200" on="0"/>
        <pt x="626" y="280" on="1"/>
        <pt x="417" y="280" on="1"/>
        <pt x="417" y="382" on="1"/>
        <pt x="751" y="382" on="1"/>
      </contour>
    </TTGlyph>
    <TTGlyph name="Gbreve" xMin="51" yMin="-11" xMax="751" yMax="939">
      <component glyphName="G" x="0" y="0" flags="0x204"/>
      <component glyphName="breve" x="139" y="199" flags="0x4"/>
    </TTGlyph>
    <TTGlyph name="Gcircumflex" xMin="51" yMin="-11" xMax="751" yMax="925">
      <component glyphName="G" x="0" y="0" flags="0x204"/>
      <component glyphName="circumflex" x="139" y="199" flags="0x4"/>
    </TTGlyph>
    <TTGlyph name="Gcommaaccent" xMin="51" yMin="-288" xMax="751" yMax="711">
      <component glyphName="G" x="0" y="0" flags="0x204"/>
      <component glyphName="commaaccent" x="273" y="0" flags="0x4"/>
    </TTGlyph>
    <TTGlyph name="Gdotaccent" xMin="51" yMin="-11" xMax="751" yMax="930">
      <component glyphName="G" x="0" y="0" flags="0x204"/>
      <component glyphName="dotaccent" x="251" y="199" flags="0x4"/>
    </TTGlyph>
    <TTGlyph name="H" xMin="79" yMin="0" xMax="667" yMax="700">
      <contour>
        <pt x="79" y="0" on="1"/>
        <pt x="79" y="700" on="1"/>
        <pt x="199" y="700" on="1"/>
        <pt x="199" y="405" on="1"/>
        <pt x="547" y="405" on="1"/>
        <pt x="547" y="700" on="1"/>
        <pt x="667" y="700" on="1"/>
        <pt x="667" y="0" on="1"/>
        <pt x="547" y="0" on="1"/>
        <pt x="547" y="300" on="1"/>
        <pt x="199" y="300" on="1"/>
        <pt x="199" y="0" on="1"/>
      </contour>
    </TTGlyph>
    <TTGlyph name="Hbar" xMin="12" yMin="0" xMax="764" yMax="700">
      <contour>
        <pt x="95" y="0" on="1"/>
        <pt x="95" y="512" on="1"/>
        <pt x="12" y="512" on="1"/>
        <pt x="12" y="595" on="1"/>
        <pt x="95" y="595" on="1"/>
        <pt x="95" y="700" on="1"/>
        <pt x="215" y="700" on="1"/>
        <pt x="215" y="595" on="1"/>
        <pt x="563" y="595" on="1"/>
        <pt x="563" y="700" on="1"/>
        <pt x="683" y="700" on="1"/>
        <pt x="683" y="595" on="1"/>
        <pt x="764" y="595" on="1"/>
        <pt x="764" y="512" on="1"/>
        <pt x="683" y="512" on="1"/>
        <pt x="683" y="0" on="1"/>
        <pt x="563" y="0" on="1"/>
        <pt x="563" y="302" on="1"/>
        <pt x="215" y="302" on="1"/>
        <pt x="215" y="0" on="1"/>
      </contour>
      <contour>
        <pt x="215" y="403" on="1"/>
        <pt x="563" y="403" on="1"/>
        <pt x="563" y="512" on="1"/>
        <pt x="215" y="512" on="1"/>
      </contour>
    </TTGlyph>
    <TTGlyph name="Hcircumflex" xMin="79" yMin="0" xMax="667" yMax="925">
      <component glyphName="H" x="0" y="0" flags="0x204"/>
      <component glyphName="circumflex" x="112" y="199" flags="0x4"/>
    </TTGlyph>
    <TTGlyph name="I" xMin="78" yMin="0" xMax="198" yMax="700">
      <contour>
        <pt x="78" y="0" on="1"/>
        <pt x="78" y="700" on="1"/>
        <pt x="198" y="700" on="1"/>
        <pt x="198" y="0" on="1"/>
      </contour>
    </TTGlyph>
    <TTGlyph name="IJ" xMin="78" yMin="-10" xMax="839" yMax="700">
      <component glyphName="I" x="0" y="0" flags="0x4"/>
      <component glyphName="J" x="277" y="0" flags="0x4"/>
    </TTGlyph>
    <TTGlyph name="Iacute" xMin="72" yMin="0" xMax="337" yMax="923">
      <component glyphName="I" x="0" y="0" flags="0x204"/>
      <component glyphName="acute" x="-88" y="199" flags="0x4"/>
    </TTGlyph>
    <TTGlyph name="Ibreve" xMin="-34" yMin="0" xMax="311" yMax="939">
      <component glyphName="I" x="0" y="0" flags="0x204"/>
      <component glyphName="breve" x="-122" y="199" flags="0x4"/>
    </TTGlyph>
    <TTGlyph name="Icircumflex" xMin="-38" yMin="0" xMax="316" yMax="925">
      <component glyphName="I" x="0" y="0" flags="0x204"/>
      <component glyphName="circumflex" x="-122" y="199" flags="0x4"/>
    </TTGlyph>
    <TTGlyph name="Idieresis" xMin="-28" yMin="0" xMax="304" yMax="930">
      <component glyphName="I" x="0" y="0" flags="0x204"/>
      <component glyphName="dieresis" x="-148" y="199" flags="0x4"/>
    </TTGlyph>
    <TTGlyph name="Idotaccent" xMin="74" yMin="0" xMax="203" yMax="930">
      <component glyphName="I" x="0" y="0" flags="0x204"/>
      <component glyphName="dotaccent" x="-11" y="199" flags="0x4"/>
    </TTGlyph>
    <TTGlyph name="Igrave" xMin="-65" yMin="0" xMax="206" yMax="923">
      <component glyphName="I" x="0" y="0" flags="0x204"/>
      <component glyphName="grave" x="-162" y="199" flags="0x4"/>
    </TTGlyph>
    <TTGlyph name="Imacron" xMin="-7" yMin="0" xMax="292" yMax="891">
      <component glyphName="I" x="0" y="0" flags="0x204"/>
      <component glyphName="macron" x="-122" y="199" flags="0x4"/>
    </TTGlyph>
    <TTGlyph name="Iogonek" xMin="36" yMin="-231" xMax="224" yMax="700">
      <contour>
        <pt x="78" y="0" on="1"/>
        <pt x="78" y="700" on="1"/>
        <pt x="198" y="700" on="1"/>
        <pt x="198" y="0" on="1"/>
        <pt x="149" y="-31" on="0"/>
        <pt x="102" y="-88" on="0"/>
        <pt x="102" y="-116" on="1"/>
        <pt x="102" y="-141" on="0"/>
        <pt x="134" y="-169" on="0"/>
        <pt x="161" y="-169" on="1"/>
        <pt x="174" y="-169" on="0"/>
        <pt x="200" y="-163" on="0"/>
        <pt x="208" y="-157" on="1"/>
        <pt x="224" y="-210" on="1"/>
        <pt x="209" y="-220" on="0"/>
        <pt x="166" y="-231" on="0"/>
        <pt x="143" y="-231" on="1"/>
        <pt x="94" y="-231" on="0"/>
        <pt x="36" y="-179" on="0"/>
        <pt x="36" y="-136" on="1"/>
        <pt x="36" y="-99" on="0"/>
        <pt x="81" y="-34" on="0"/>
        <pt x="130" y="0" on="1"/>
      </contour>
    </TTGlyph>
    <TTGlyph name="Itilde" xMin="-49" yMin="0" xMax="327" yMax="925">
      <component glyphName="I" x="0" y="0" flags="0x204"/>
      <component glyphName="tilde" x="-120" y="199" flags="0x4"/>
    </TTGlyph>
    <TTGlyph name="J" xMin="22" yMin="-10" xMax="562" yMax="700">
      <contour>
        <pt x="562" y="268" on="1"/>
        <pt x="562" y="142" on="0"/>
        <pt x="412" y="-10" on="0"/>
        <pt x="288" y="-10" on="1"/>
        <pt x="191" y="-10" on="0"/>
        <pt x="51" y="91" on="0"/>
        <pt x="22" y="184" on="1"/>
        <pt x="132" y="225" on="1"/>
        <pt x="154" y="161" on="0"/>
        <pt x="232" y="96" on="0"/>
        <pt x="289" y="96" on="1"/>
        <pt x="358" y="96" on="0"/>
        <pt x="442" y="192" on="0"/>
        <pt x="442" y="271" on="1"/>
        <pt x="442" y="700" on="1"/>
        <pt x="562" y="700" on="1"/>
      </contour>
    </TTGlyph>
    <TTGlyph name="Jcircumflex" xMin="22" yMin="-10" xMax="674" yMax="925">
      <component glyphName="J" x="0" y="0" flags="0x204"/>
      <component glyphName="circumflex" x="236" y="199" flags="0x4"/>
    </TTGlyph>
    <TTGlyph name="K" xMin="84" yMin="0" xMax="667" yMax="700">
      <contour>
        <pt x="84" y="0" on="1"/>
        <pt x="84" y="700" on="1"/>
        <pt x="204" y="700" on="1"/>
        <pt x="204" y="380" on="1"/>
        <pt x="508" y="700" on="1"/>
        <pt x="654" y="700" on="1"/>
        <pt x="322" y="363" on="1"/>
        <pt x="667" y="0" on="1"/>
        <pt x="508" y="0" on="1"/>
        <pt x="204" y="329" on="1"/>
        <pt x="204" y="0" on="1"/>
      </contour>
    </TTGlyph>
    <TTGlyph name="Kcommaaccent" xMin="84" yMin="-288" xMax="667" yMax="700">
      <component glyphName="K" x="0" y="0" flags="0x204"/>
      <component glyphName="commaaccent" x="232" y="0" flags="0x4"/>
    </TTGlyph>
    <TTGlyph name="L" xMin="84" yMin="0" xMax="577" yMax="700">
      <contour>
        <pt x="84" y="0" on="1"/>
        <pt x="84" y="700" on="1"/>
        <pt x="204" y="700" on="1"/>
        <pt x="204" y="104" on="1"/>
        <pt x="577" y="104" on="1"/>
        <pt x="577" y="0" on="1"/>
      </contour>
    </TTGlyph>
    <TTGlyph name="Lacute" xMin="77" yMin="0" xMax="577" yMax="923">
      <component glyphName="L" x="0" y="0" flags="0x204"/>
      <component glyphName="acute" x="-83" y="199" flags="0x4"/>
    </TTGlyph>
    <TTGlyph name="Lcaron" xMin="84" yMin="0" xMax="577" yMax="718">
      <component glyphName="L" x="0" y="0" flags="0x4"/>
      <component glyphName="caronSlovak" x="245" y="0" flags="0x4"/>
    </TTGlyph>
    <TTGlyph name="Lcommaaccent" xMin="84" yMin="-288" xMax="577" yMax="700">
      <component glyphName="L" x="0" y="0" flags="0x204"/>
      <component glyphName="commaaccent" x="219" y="0" flags="0x4"/>
    </TTGlyph>
    <TTGlyph name="Ldot" xMin="84" yMin="0" xMax="577" yMax="700">
      <component glyphName="L" x="0" y="0" flags="0x204"/>
      <component glyphName="dotaccent" x="284" y="-302" flags="0x4"/>
    </TTGlyph>
    <TTGlyph name="Lslash" xMin="12" yMin="0" xMax="600" yMax="700">
      <contour>
        <pt x="107" y="0" on="1"/>
        <pt x="107" y="229" on="1"/>
        <pt x="12" y="164" on="1"/>
        <pt x="12" y="268" on="1"/>
        <pt x="107" y="333" on="1"/>
        <pt x="107" y="700" on="1"/>
        <pt x="227" y="700" on="1"/>
        <pt x="227" y="414" on="1"/>
        <pt x="393" y="527" on="1"/>
        <pt x="393" y="423" on="1"/>
        <pt x="227" y="310" on="1"/>
        <pt x="227" y="104" on="1"/>
        <pt x="600" y="104" on="1"/>
        <pt x="600" y="0" on="1"/>
      </contour>
    </TTGlyph>
    <TTGlyph name="M" xMin="84" yMin="0" xMax="805" yMax="700">
      <contour>
        <pt x="444" y="50" on="1"/>
        <pt x="195" y="549" on="1"/>
        <pt x="195" y="0" on="1"/>
        <pt x="84" y="0" on="1"/>
        <pt x="84" y="700" on="1"/>
        <pt x="240" y="700" on="1"/>
        <pt x="445" y="276" on="1"/>
        <pt x="649" y="700" on="1"/>
        <pt x="805" y="700" on="1"/>
        <pt x="805" y="0" on="1"/>
        <pt x="692" y="0" on="1"/>
        <pt x="692" y="546" on="1"/>
      </contour>
    </TTGlyph>
    <TTGlyph name="N" xMin="84" yMin="0" xMax="677" yMax="700">
      <contour>
        <pt x="84" y="700" on="1"/>
        <pt x="201" y="700" on="1"/>
        <pt x="566" y="192" on="1"/>
        <pt x="564" y="700" on="1"/>
        <pt x="677" y="700" on="1"/>
        <pt x="677" y="0" on="1"/>
        <pt x="570" y="0" on="1"/>
        <pt x="195" y="522" on="1"/>
        <pt x="197" y="0" on="1"/>
        <pt x="84" y="0" on="1"/>
      </contour>
    </TTGlyph>
    <TTGlyph name="Nacute" xMin="84" yMin="0" xMax="677" yMax="923">
      <component glyphName="N" x="0" y="0" flags="0x204"/>
      <component glyphName="acute" x="147" y="199" flags="0x4"/>
    </TTGlyph>
    <TTGlyph name="Ncaron" xMin="84" yMin="0" xMax="677" yMax="929">
      <component glyphName="N" x="0" y="0" flags="0x204"/>
      <component glyphName="caron" x="113" y="199" flags="0x4"/>
    </TTGlyph>
    <TTGlyph name="Ncommaaccent" xMin="84" yMin="-288" xMax="677" yMax="700">
      <component glyphName="N" x="0" y="0" flags="0x204"/>
      <component glyphName="commaaccent" x="242" y="0" flags="0x4"/>
    </TTGlyph>
    <TTGlyph name="Ntilde" xMin="84" yMin="0" xMax="677" yMax="925">
      <component glyphName="N" x="0" y="0" flags="0x204"/>
      <component glyphName="tilde" x="115" y="199" flags="0x4"/>
    </TTGlyph>
    <TTGlyph name="O" xMin="52" yMin="-11" xMax="760" yMax="711">
      <contour>
        <pt x="760" y="350" on="1"/>
        <pt x="760" y="275" on="0"/>
        <pt x="705" y="142" on="0"/>
        <pt x="610" y="45" on="0"/>
        <pt x="480" y="-11" on="0"/>
        <pt x="406" y="-11" on="1"/>
        <pt x="332" y="-11" on="0"/>
        <pt x="202" y="45" on="0"/>
        <pt x="107" y="142" on="0"/>
        <pt x="52" y="275" on="0"/>
        <pt x="52" y="350" on="1"/>
        <pt x="52" y="425" on="0"/>
        <pt x="107" y="558" on="0"/>
        <pt x="202" y="655" on="0"/>
        <pt x="332" y="711" on="0"/>
        <pt x="406" y="711" on="1"/>
        <pt x="480" y="711" on="0"/>
        <pt x="610" y="655" on="0"/>
        <pt x="705" y="558" on="0"/>
        <pt x="760" y="425" on="0"/>
      </contour>
      <contour>
        <pt x="637" y="350" on="1"/>
        <pt x="637" y="404" on="0"/>
        <pt x="602" y="497" on="0"/>
        <pt x="540" y="565" on="0"/>
        <pt x="456" y="604" on="0"/>
        <pt x="407" y="604" on="1"/>
        <pt x="358" y="604" on="0"/>
        <pt x="273" y="565" on="0"/>
        <pt x="211" y="497" on="0"/>
        <pt x="175" y="404" on="0"/>
        <pt x="175" y="350" on="1"/>
        <pt x="175" y="296" on="0"/>
        <pt x="211" y="203" on="0"/>
        <pt x="273" y="136" on="0"/>
        <pt x="358" y="97" on="0"/>
        <pt x="407" y="97" on="1"/>
        <pt x="456" y="97" on="0"/>
        <pt x="540" y="136" on="0"/>
        <pt x="602" y="203" on="0"/>
        <pt x="637" y="296" on="0"/>
      </contour>
    </TTGlyph>
    <TTGlyph name="OE" xMin="51" yMin="0" xMax="1015" yMax="700">
      <contour>
        <pt x="400" y="0" on="1"/>
        <pt x="325" y="0" on="0"/>
        <pt x="197" y="53" on="0"/>
        <pt x="104" y="147" on="0"/>
        <pt x="51" y="275" on="0"/>
        <pt x="51" y="350" on="1"/>
        <pt x="51" y="425" on="0"/>
        <pt x="104" y="553" on="0"/>
        <pt x="197" y="647" on="0"/>
        <pt x="325" y="700" on="0"/>
        <pt x="400" y="700" on="1"/>
        <pt x="1015" y="700" on="1"/>
        <pt x="1015" y="595" on="1"/>
        <pt x="624" y="595" on="1"/>
        <pt x="662" y="558" on="0"/>
        <pt x="712" y="459" on="0"/>
        <pt x="720" y="404" on="1"/>
        <pt x="896" y="404" on="1"/>
        <pt x="896" y="302" on="1"/>
        <pt x="721" y="302" on="1"/>
        <pt x="714" y="245" on="0"/>
        <pt x="664" y="144" on="0"/>
        <pt x="625" y="105" on="1"/>
        <pt x="1015" y="105" on="1"/>
        <pt x="1015" y="0" on="1"/>
      </contour>
      <contour>
        <pt x="390" y="104" on="1"/>
        <pt x="436" y="104" on="0"/>
        <pt x="517" y="142" on="0"/>
        <pt x="576" y="208" on="0"/>
        <pt x="610" y="299" on="0"/>
        <pt x="610" y="350" on="1"/>
        <pt x="610" y="401" on="0"/>
        <pt x="576" y="492" on="0"/>
        <pt x="517" y="558" on="0"/>
        <pt x="436" y="596" on="0"/>
        <pt x="390" y="596" on="1"/>
        <pt x="343" y="596" on="0"/>
        <pt x="263" y="558" on="0"/>
        <pt x="204" y="492" on="0"/>
        <pt x="170" y="402" on="0"/>
        <pt x="170" y="350" on="1"/>
        <pt x="170" y="298" on="0"/>
        <pt x="204" y="208" on="0"/>
        <pt x="263" y="142" on="0"/>
        <pt x="343" y="104" on="0"/>
      </contour>
    </TTGlyph>
    <TTGlyph name="Oacute" xMin="52" yMin="-11" xMax="760" yMax="923">
      <component glyphName="O" x="0" y="0" flags="0x204"/>
      <component glyphName="acute" x="179" y="199" flags="0x4"/>
    </TTGlyph>
    <TTGlyph name="Obreve" xMin="52" yMin="-11" xMax="760" yMax="939">
      <component glyphName="O" x="0" y="0" flags="0x204"/>
      <component glyphName="breve" x="145" y="199" flags="0x4"/>
    </TTGlyph>
    <TTGlyph name="Ocircumflex" xMin="52" yMin="-11" xMax="760" yMax="925">
      <component glyphName="O" x="0" y="0" flags="0x204"/>
      <component glyphName="circumflex" x="145" y="199" flags="0x4"/>
    </TTGlyph>
    <TTGlyph name="Odieresis" xMin="52" yMin="-11" xMax="760" yMax="930">
      <component glyphName="O" x="0" y="0" flags="0x204"/>
      <component glyphName="dieresis" x="120" y="199" flags="0x4"/>
    </TTGlyph>
    <TTGlyph name="Ograve" xMin="52" yMin="-11" xMax="760" yMax="923">
      <component glyphName="O" x="0" y="0" flags="0x204"/>
      <component glyphName="grave" x="105" y="199" flags="0x4"/>
    </TTGlyph>
    <TTGlyph name="Ohungarumlaut" xMin="52" yMin="-11" xMax="760" yMax="923">
      <component glyphName="O" x="0" y="0" flags="0x204"/>
      <component glyphName="hungarumlaut" x="155" y="199" flags="0x4"/>
    </TTGlyph>
    <TTGlyph name="Omacron" xMin="52" yMin="-11" xMax="760" yMax="891">
      <component glyphName="O" x="0" y="0" flags="0x204"/>
      <component glyphName="macron" x="145" y="199" flags="0x4"/>
    </TTGlyph>
    <TTGlyph name="Oslash" xMin="52" yMin="-11" xMax="760" yMax="711">
      <contour>
        <pt x="162" y="-5" on="1"/>
        <pt x="59" y="-5" on="1"/>
        <pt x="147" y="102" on="1"/>
        <pt x="103" y="150" on="0"/>
        <pt x="52" y="278" on="0"/>
        <pt x="52" y="350" on="1"/>
        <pt x="52" y="425" on="0"/>
        <pt x="107" y="558" on="0"/>
        <pt x="202" y="655" on="0"/>
        <pt x="332" y="711" on="0"/>
        <pt x="406" y="711" on="1"/>
        <pt x="460" y="711" on="0"/>
        <pt x="561" y="680" on="0"/>
        <pt x="603" y="652" on="1"/>
        <pt x="647" y="705" on="1"/>
        <pt x="752" y="705" on="1"/>
        <pt x="664" y="599" on="1"/>
        <pt x="709" y="551" on="0"/>
        <pt x="760" y="422" on="0"/>
        <pt x="760" y="350" on="1"/>
        <pt x="760" y="275" on="0"/>
        <pt x="705" y="142" on="0"/>
        <pt x="610" y="45" on="0"/>
        <pt x="480" y="-11" on="0"/>
        <pt x="406" y="-11" on="1"/>
        <pt x="351" y="-11" on="0"/>
        <pt x="250" y="21" on="0"/>
        <pt x="207" y="50" on="1"/>
      </contour>
      <contour>
        <pt x="175" y="350" on="1"/>
        <pt x="175" y="305" on="0"/>
        <pt x="201" y="225" on="0"/>
        <pt x="223" y="193" on="1"/>
        <pt x="532" y="566" on="1"/>
        <pt x="505" y="584" on="0"/>
        <pt x="442" y="604" on="0"/>
        <pt x="407" y="604" on="1"/>
        <pt x="358" y="604" on="0"/>
        <pt x="273" y="565" on="0"/>
        <pt x="211" y="497" on="0"/>
        <pt x="175" y="404" on="0"/>
      </contour>
      <contour>
        <pt x="637" y="350" on="1"/>
        <pt x="637" y="396" on="0"/>
        <pt x="611" y="477" on="0"/>
        <pt x="589" y="509" on="1"/>
        <pt x="280" y="137" on="1"/>
        <pt x="307" y="118" on="0"/>
        <pt x="371" y="97" on="0"/>
        <pt x="407" y="97" on="1"/>
        <pt x="456" y="97" on="0"/>
        <pt x="540" y="136" on="0"/>
        <pt x="602" y="203" on="0"/>
        <pt x="637" y="296" on="0"/>
      </contour>
    </TTGlyph>
    <TTGlyph name="Otilde" xMin="52" yMin="-11" xMax="760" yMax="925">
      <component glyphName="O" x="0" y="0" flags="0x204"/>
      <component glyphName="tilde" x="147" y="199" flags="0x4"/>
    </TTGlyph>
    <TTGlyph name="P" xMin="84" yMin="0" xMax="631" yMax="700">
      <contour>
        <pt x="84" y="0" on="1"/>
        <pt x="84" y="700" on="1"/>
        <pt x="397" y="700" on="1"/>
        <pt x="503" y="700" on="0"/>
        <pt x="631" y="578" on="0"/>
        <pt x="631" y="482" on="1"/>
        <pt x="631" y="389" on="0"/>
        <pt x="503" y="267" on="0"/>
        <pt x="397" y="267" on="1"/>
        <pt x="204" y="267" on="1"/>
        <pt x="204" y="0" on="1"/>
      </contour>
      <contour>
        <pt x="379" y="599" on="1"/>
        <pt x="204" y="599" on="1"/>
        <pt x="204" y="365" on="1"/>
        <pt x="378" y="365" on="1"/>
        <pt x="441" y="365" on="0"/>
        <pt x="510" y="430" on="0"/>
        <pt x="510" y="483" on="1"/>
        <pt x="510" y="534" on="0"/>
        <pt x="442" y="599" on="0"/>
      </contour>
    </TTGlyph>
    <TTGlyph name="Q" xMin="52" yMin="-44" xMax="760" yMax="711">
      <contour>
        <pt x="760" y="350" on="1"/>
        <pt x="760" y="274" on="0"/>
        <pt x="704" y="140" on="0"/>
        <pt x="655" y="91" on="1"/>
        <pt x="718" y="17" on="1"/>
        <pt x="632" y="-44" on="1"/>
        <pt x="569" y="29" on="1"/>
        <pt x="533" y="10" on="0"/>
        <pt x="450" y="-11" on="0"/>
        <pt x="406" y="-11" on="1"/>
        <pt x="332" y="-11" on="0"/>
        <pt x="202" y="45" on="0"/>
        <pt x="107" y="142" on="0"/>
        <pt x="52" y="275" on="0"/>
        <pt x="52" y="350" on="1"/>
        <pt x="52" y="425" on="0"/>
        <pt x="107" y="558" on="0"/>
        <pt x="202" y="655" on="0"/>
        <pt x="332" y="711" on="0"/>
        <pt x="406" y="711" on="1"/>
        <pt x="480" y="711" on="0"/>
        <pt x="610" y="655" on="0"/>
        <pt x="705" y="558" on="0"/>
        <pt x="760" y="425" on="0"/>
      </contour>
      <contour>
        <pt x="501" y="270" on="1"/>
        <pt x="579" y="179" on="1"/>
        <pt x="606" y="212" on="0"/>
        <pt x="637" y="300" on="0"/>
        <pt x="637" y="350" on="1"/>
        <pt x="637" y="404" on="0"/>
        <pt x="602" y="497" on="0"/>
        <pt x="540" y="565" on="0"/>
        <pt x="456" y="604" on="0"/>
        <pt x="407" y="604" on="1"/>
        <pt x="358" y="604" on="0"/>
        <pt x="273" y="565" on="0"/>
        <pt x="211" y="497" on="0"/>
        <pt x="175" y="404" on="0"/>
        <pt x="175" y="350" on="1"/>
        <pt x="175" y="296" on="0"/>
        <pt x="211" y="203" on="0"/>
        <pt x="273" y="136" on="0"/>
        <pt x="358" y="97" on="0"/>
        <pt x="407" y="97" on="1"/>
        <pt x="431" y="97" on="0"/>
        <pt x="475" y="106" on="0"/>
        <pt x="495" y="115" on="1"/>
        <pt x="415" y="208" on="1"/>
      </contour>
    </TTGlyph>
    <TTGlyph name="R" xMin="84" yMin="0" xMax="638" yMax="700">
      <contour>
        <pt x="84" y="0" on="1"/>
        <pt x="84" y="700" on="1"/>
        <pt x="395" y="700" on="1"/>
        <pt x="498" y="700" on="0"/>
        <pt x="629" y="582" on="0"/>
        <pt x="629" y="488" on="1"/>
        <pt x="629" y="420" on="0"/>
        <pt x="554" y="318" on="0"/>
        <pt x="491" y="296" on="1"/>
        <pt x="638" y="0" on="1"/>
        <pt x="505" y="0" on="1"/>
        <pt x="370" y="280" on="1"/>
        <pt x="204" y="280" on="1"/>
        <pt x="204" y="0" on="1"/>
      </contour>
      <contour>
        <pt x="385" y="599" on="1"/>
        <pt x="204" y="599" on="1"/>
        <pt x="204" y="376" on="1"/>
        <pt x="385" y="376" on="1"/>
        <pt x="440" y="376" on="0"/>
        <pt x="508" y="437" on="0"/>
        <pt x="508" y="487" on="1"/>
        <pt x="508" y="537" on="0"/>
        <pt x="440" y="599" on="0"/>
      </contour>
    </TTGlyph>
    <TTGlyph name="Racute" xMin="84" yMin="0" xMax="638" yMax="923">
      <component glyphName="R" x="0" y="0" flags="0x204"/>
      <component glyphName="acute" x="105" y="199" flags="0x4"/>
    </TTGlyph>
    <TTGlyph name="Rcaron" xMin="84" yMin="0" xMax="638" yMax="929">
      <component glyphName="R" x="0" y="0" flags="0x204"/>
      <component glyphName="caron" x="71" y="199" flags="0x4"/>
    </TTGlyph>
    <TTGlyph name="Rcommaaccent" xMin="84" yMin="-288" xMax="638" yMax="700">
      <component glyphName="R" x="0" y="0" flags="0x204"/>
      <component glyphName="commaaccent" x="203" y="0" flags="0x4"/>
    </TTGlyph>
    <TTGlyph name="S" xMin="24" yMin="-10" xMax="599" yMax="710">
      <contour>
        <pt x="24" y="103" on="1"/>
        <pt x="89" y="191" on="1"/>
        <pt x="156" y="136" on="0"/>
        <pt x="264" y="89" on="0"/>
        <pt x="324" y="89" on="1"/>
        <pt x="393" y="89" on="0"/>
        <pt x="481" y="152" on="0"/>
        <pt x="481" y="200" on="1"/>
        <pt x="481" y="243" on="0"/>
        <pt x="423" y="287" on="0"/>
        <pt x="354" y="300" on="1"/>
        <pt x="225" y="322" on="1"/>
        <pt x="135" y="338" on="0"/>
        <pt x="45" y="428" on="0"/>
        <pt x="45" y="500" on="1"/>
        <pt x="45" y="594" on="0"/>
        <pt x="186" y="710" on="0"/>
        <pt x="303" y="710" on="1"/>
        <pt x="381" y="710" on="0"/>
        <pt x="524" y="663" on="0"/>
        <pt x="584" y="619" on="1"/>
        <pt x="523" y="529" on="1"/>
        <pt x="471" y="569" on="0"/>
        <pt x="357" y="610" on="0"/>
        <pt x="299" y="610" on="1"/>
        <pt x="236" y="610" on="0"/>
        <pt x="160" y="554" on="0"/>
        <pt x="160" y="511" on="1"/>
        <pt x="160" y="474" on="0"/>
        <pt x="211" y="432" on="0"/>
        <pt x="268" y="423" on="1"/>
        <pt x="392" y="401" on="1"/>
        <pt x="497" y="383" on="0"/>
        <pt x="599" y="288" on="0"/>
        <pt x="599" y="209" on="1"/>
        <pt x="599" y="161" on="0"/>
        <pt x="558" y="80" on="0"/>
        <pt x="484" y="23" on="0"/>
        <pt x="380" y="-10" on="0"/>
        <pt x="318" y="-10" on="1"/>
        <pt x="236" y="-10" on="0"/>
        <pt x="90" y="47" on="0"/>
      </contour>
    </TTGlyph>
    <TTGlyph name="Sacute" xMin="24" yMin="-10" xMax="599" yMax="924">
      <component glyphName="S" x="0" y="0" flags="0x204"/>
      <component glyphName="acute" x="71" y="200" flags="0x4"/>
    </TTGlyph>
    <TTGlyph name="Scaron" xMin="24" yMin="-10" xMax="599" yMax="930">
      <component glyphName="S" x="0" y="0" flags="0x204"/>
      <component glyphName="caron" x="37" y="200" flags="0x4"/>
    </TTGlyph>
    <TTGlyph name="Scedilla" xMin="24" yMin="-245" xMax="599" yMax="710">
      <contour>
        <pt x="24" y="103" on="1"/>
        <pt x="89" y="191" on="1"/>
        <pt x="156" y="136" on="0"/>
        <pt x="264" y="89" on="0"/>
        <pt x="324" y="89" on="1"/>
        <pt x="393" y="89" on="0"/>
        <pt x="481" y="152" on="0"/>
        <pt x="481" y="200" on="1"/>
        <pt x="481" y="243" on="0"/>
        <pt x="423" y="287" on="0"/>
        <pt x="354" y="300" on="1"/>
        <pt x="225" y="322" on="1"/>
        <pt x="135" y="338" on="0"/>
        <pt x="45" y="428" on="0"/>
        <pt x="45" y="500" on="1"/>
        <pt x="45" y="594" on="0"/>
        <pt x="186" y="710" on="0"/>
        <pt x="303" y="710" on="1"/>
        <pt x="381" y="710" on="0"/>
        <pt x="524" y="663" on="0"/>
        <pt x="584" y="619" on="1"/>
        <pt x="523" y="529" on="1"/>
        <pt x="471" y="569" on="0"/>
        <pt x="357" y="610" on="0"/>
        <pt x="299" y="610" on="1"/>
        <pt x="236" y="610" on="0"/>
        <pt x="160" y="554" on="0"/>
        <pt x="160" y="511" on="1"/>
        <pt x="160" y="474" on="0"/>
        <pt x="211" y="432" on="0"/>
        <pt x="268" y="423" on="1"/>
        <pt x="392" y="401" on="1"/>
        <pt x="497" y="383" on="0"/>
        <pt x="599" y="288" on="0"/>
        <pt x="599" y="209" on="1"/>
        <pt x="599" y="162" on="0"/>
        <pt x="560" y="83" on="0"/>
        <pt x="490" y="26" on="0"/>
        <pt x="390" y="-8" on="0"/>
        <pt x="330" y="-10" on="1"/>
        <pt x="318" y="-61" on="1"/>
        <pt x="364" y="-64" on="0"/>
        <pt x="417" y="-108" on="0"/>
        <pt x="417" y="-144" on="1"/>
        <pt x="417" y="-187" on="0"/>
        <pt x="349" y="-245" on="0"/>
        <pt x="297" y="-245" on="1"/>
        <pt x="259" y="-245" on="0"/>
        <pt x="198" y="-225" on="0"/>
        <pt x="176" y="-206" on="1"/>
        <pt x="213" y="-163" on="1"/>
        <pt x="230" y="-176" on="0"/>
        <pt x="271" y="-191" on="0"/>
        <pt x="291" y="-191" on="1"/>
        <pt x="320" y="-191" on="0"/>
        <pt x="352" y="-168" on="0"/>
        <pt x="352" y="-146" on="1"/>
        <pt x="352" y="-126" on="0"/>
        <pt x="318" y="-104" on="0"/>
        <pt x="287" y="-104" on="1"/>
        <pt x="251" y="-104" on="1"/>
        <pt x="275" y="-8" on="1"/>
        <pt x="206" y="-1" on="0"/>
        <pt x="81" y="54" on="0"/>
      </contour>
    </TTGlyph>
    <TTGlyph name="Scircumflex" xMin="24" yMin="-10" xMax="599" yMax="926">
      <component glyphName="S" x="0" y="0" flags="0x204"/>
      <component glyphName="circumflex" x="37" y="200" flags="0x4"/>
    </TTGlyph>
    <TTGlyph name="Scommaaccent" xMin="24" yMin="-287" xMax="599" yMax="710">
      <component glyphName="S" x="0" y="0" flags="0x204"/>
      <component glyphName="commaaccent" x="174" y="1" flags="0x4"/>
    </TTGlyph>
    <TTGlyph name="T" xMin="25" yMin="0" xMax="613" yMax="700">
      <contour>
        <pt x="25" y="596" on="1"/>
        <pt x="25" y="700" on="1"/>
        <pt x="613" y="700" on="1"/>
        <pt x="613" y="596" on="1"/>
        <pt x="380" y="596" on="1"/>
        <pt x="380" y="0" on="1"/>
        <pt x="260" y="0" on="1"/>
        <pt x="260" y="596" on="1"/>
      </contour>
    </TTGlyph>
    <TTGlyph name="Tbar" xMin="25" yMin="0" xMax="613" yMax="700">
      <contour>
        <pt x="120" y="383" on="1"/>
        <pt x="260" y="383" on="1"/>
        <pt x="260" y="596" on="1"/>
        <pt x="25" y="596" on="1"/>
        <pt x="25" y="700" on="1"/>
        <pt x="613" y="700" on="1"/>
        <pt x="613" y="596" on="1"/>
        <pt x="380" y="596" on="1"/>
        <pt x="380" y="383" on="1"/>
        <pt x="518" y="383" on="1"/>
        <pt x="518" y="293" on="1"/>
        <pt x="380" y="293" on="1"/>
        <pt x="380" y="0" on="1"/>
        <pt x="260" y="0" on="1"/>
        <pt x="260" y="293" on="1"/>
        <pt x="120" y="293" on="1"/>
      </contour>
    </TTGlyph>
    <TTGlyph name="Tcaron" xMin="25" yMin="0" xMax="613" yMax="929">
      <component glyphName="T" x="0" y="0" flags="0x204"/>
      <component glyphName="caron" x="59" y="199" flags="0x4"/>
    </TTGlyph>
    <TTGlyph name="Tcedilla" xMin="25" yMin="-246" xMax="613" yMax="700">
      <contour>
        <pt x="25" y="596" on="1"/>
        <pt x="25" y="700" on="1"/>
        <pt x="613" y="700" on="1"/>
        <pt x="613" y="596" on="1"/>
        <pt x="380" y="596" on="1"/>
        <pt x="380" y="0" on="1"/>
        <pt x="347" y="0" on="1"/>
        <pt x="332" y="-62" on="1"/>
        <pt x="378" y="-65" on="0"/>
        <pt x="431" y="-109" on="0"/>
        <pt x="431" y="-145" on="1"/>
        <pt x="431" y="-188" on="0"/>
        <pt x="363" y="-246" on="0"/>
        <pt x="311" y="-246" on="1"/>
        <pt x="273" y="-246" on="0"/>
        <pt x="212" y="-226" on="0"/>
        <pt x="190" y="-207" on="1"/>
        <pt x="227" y="-164" on="1"/>
        <pt x="244" y="-177" on="0"/>
        <pt x="285" y="-192" on="0"/>
        <pt x="305" y="-192" on="1"/>
        <pt x="334" y="-192" on="0"/>
        <pt x="366" y="-169" on="0"/>
        <pt x="366" y="-147" on="1"/>
        <pt x="366" y="-127" on="0"/>
        <pt x="332" y="-105" on="0"/>
        <pt x="301" y="-105" on="1"/>
        <pt x="265" y="-105" on="1"/>
        <pt x="291" y="0" on="1"/>
        <pt x="260" y="0" on="1"/>
        <pt x="260" y="596" on="1"/>
      </contour>
    </TTGlyph>
    <TTGlyph name="Thorn" xMin="84" yMin="0" xMax="631" yMax="700">
      <contour>
        <pt x="84" y="0" on="1"/>
        <pt x="84" y="700" on="1"/>
        <pt x="204" y="700" on="1"/>
        <pt x="204" y="567" on="1"/>
        <pt x="397" y="567" on="1"/>
        <pt x="503" y="567" on="0"/>
        <pt x="631" y="445" on="0"/>
        <pt x="631" y="349" on="1"/>
        <pt x="631" y="255" on="0"/>
        <pt x="503" y="134" on="0"/>
        <pt x="397" y="134" on="1"/>
        <pt x="204" y="134" on="1"/>
        <pt x="204" y="0" on="1"/>
      </contour>
      <contour>
        <pt x="379" y="465" on="1"/>
        <pt x="204" y="465" on="1"/>
        <pt x="204" y="232" on="1"/>
        <pt x="378" y="232" on="1"/>
        <pt x="441" y="232" on="0"/>
        <pt x="510" y="297" on="0"/>
        <pt x="510" y="349" on="1"/>
        <pt x="510" y="401" on="0"/>
        <pt x="442" y="465" on="0"/>
      </contour>
    </TTGlyph>
    <TTGlyph name="U" xMin="70" yMin="-10" xMax="659" yMax="700">
      <contour>
        <pt x="659" y="300" on="1"/>
        <pt x="659" y="229" on="0"/>
        <pt x="617" y="114" on="0"/>
        <pt x="541" y="34" on="0"/>
        <pt x="431" y="-10" on="0"/>
        <pt x="364" y="-10" on="1"/>
        <pt x="230" y="-10" on="0"/>
        <pt x="70" y="157" on="0"/>
        <pt x="70" y="300" on="1"/>
        <pt x="70" y="700" on="1"/>
        <pt x="190" y="700" on="1"/>
        <pt x="190" y="300" on="1"/>
        <pt x="190" y="208" on="0"/>
        <pt x="286" y="98" on="0"/>
        <pt x="365" y="98" on="1"/>
        <pt x="444" y="98" on="0"/>
        <pt x="539" y="208" on="0"/>
        <pt x="539" y="300" on="1"/>
        <pt x="539" y="700" on="1"/>
        <pt x="659" y="700" on="1"/>
      </contour>
    </TTGlyph>
    <TTGlyph name="Uacute" xMin="70" yMin="-10" xMax="659" yMax="923">
      <component glyphName="U" x="0" y="0" flags="0x204"/>
      <component glyphName="acute" x="133" y="199" flags="0x4"/>
    </TTGlyph>
    <TTGlyph name="Ubreve" xMin="70" yMin="-10" xMax="659" yMax="939">
      <component glyphName="U" x="0" y="0" flags="0x204"/>
      <component glyphName="breve" x="99" y="199" flags="0x4"/>
    </TTGlyph>
    <TTGlyph name="Ucircumflex" xMin="70" yMin="-10" xMax="659" yMax="925">
      <component glyphName="U" x="0" y="0" flags="0x204"/>
      <component glyphName="circumflex" x="99" y="199" flags="0x4"/>
    </TTGlyph>
    <TTGlyph name="Udieresis" xMin="70" yMin="-10" xMax="659" yMax="930">
      <component glyphName="U" x="0" y="0" flags="0x204"/>
      <component glyphName="dieresis" x="73" y="199" flags="0x4"/>
    </TTGlyph>
    <TTGlyph name="Ugrave" xMin="70" yMin="-10" xMax="659" yMax="923">
      <component glyphName="U" x="0" y="0" flags="0x204"/>
      <component glyphName="grave" x="59" y="199" flags="0x4"/>
    </TTGlyph>
    <TTGlyph name="Uhungarumlaut" xMin="70" yMin="-10" xMax="659" yMax="923">
      <component glyphName="U" x="0" y="0" flags="0x204"/>
      <component glyphName="hungarumlaut" x="108" y="199" flags="0x4"/>
    </TTGlyph>
    <TTGlyph name="Umacron" xMin="70" yMin="-10" xMax="659" yMax="891">
      <component glyphName="U" x="0" y="0" flags="0x204"/>
      <component glyphName="macron" x="99" y="199" flags="0x4"/>
    </TTGlyph>
    <TTGlyph name="Uogonek" xMin="70" yMin="-231" xMax="659" yMax="700">
      <contour>
        <pt x="659" y="300" on="1"/>
        <pt x="659" y="178" on="0"/>
        <pt x="536" y="16" on="0"/>
        <pt x="431" y="-4" on="1"/>
        <pt x="385" y="-34" on="0"/>
        <pt x="341" y="-88" on="0"/>
        <pt x="341" y="-116" on="1"/>
        <pt x="341" y="-141" on="0"/>
        <pt x="373" y="-169" on="0"/>
        <pt x="400" y="-169" on="1"/>
        <pt x="413" y="-169" on="0"/>
        <pt x="439" y="-163" on="0"/>
        <pt x="447" y="-157" on="1"/>
        <pt x="463" y="-210" on="1"/>
        <pt x="448" y="-220" on="0"/>
        <pt x="405" y="-231" on="0"/>
        <pt x="382" y="-231" on="1"/>
        <pt x="333" y="-231" on="0"/>
        <pt x="275" y="-179" on="0"/>
        <pt x="275" y="-136" on="1"/>
        <pt x="275" y="-102" on="0"/>
        <pt x="313" y="-41" on="0"/>
        <pt x="355" y="-10" on="1"/>
        <pt x="224" y="-7" on="0"/>
        <pt x="70" y="160" on="0"/>
        <pt x="70" y="300" on="1"/>
        <pt x="70" y="700" on="1"/>
        <pt x="190" y="700" on="1"/>
        <pt x="190" y="300" on="1"/>
        <pt x="190" y="208" on="0"/>
        <pt x="286" y="98" on="0"/>
        <pt x="365" y="98" on="1"/>
        <pt x="444" y="98" on="0"/>
        <pt x="539" y="208" on="0"/>
        <pt x="539" y="300" on="1"/>
        <pt x="539" y="700" on="1"/>
        <pt x="659" y="700" on="1"/>
      </contour>
    </TTGlyph>
    <TTGlyph name="Uring" xMin="70" yMin="-10" xMax="659" yMax="1011">
      <component glyphName="U" x="0" y="0" flags="0x204"/>
      <component glyphName="ring" x="99" y="199" flags="0x4"/>
    </TTGlyph>
    <TTGlyph name="Utilde" xMin="70" yMin="-10" xMax="659" yMax="925">
      <component glyphName="U" x="0" y="0" flags="0x204"/>
      <component glyphName="tilde" x="101" y="199" flags="0x4"/>
    </TTGlyph>
    <TTGlyph name="V" xMin="6" yMin="0" xMax="691" yMax="700">
      <contour>
        <pt x="278" y="0" on="1"/>
        <pt x="6" y="700" on="1"/>
        <pt x="135" y="700" on="1"/>
        <pt x="350" y="121" on="1"/>
        <pt x="567" y="700" on="1"/>
        <pt x="691" y="700" on="1"/>
        <pt x="417" y="0" on="1"/>
      </contour>
    </TTGlyph>
    <TTGlyph name="W" xMin="37" yMin="0" xMax="899" yMax="700">
      <contour>
        <pt x="315" y="0" on="1"/>
        <pt x="190" y="0" on="1"/>
        <pt x="37" y="700" on="1"/>
        <pt x="159" y="700" on="1"/>
        <pt x="263" y="187" on="1"/>
        <pt x="413" y="700" on="1"/>
        <pt x="527" y="700" on="1"/>
        <pt x="677" y="187" on="1"/>
        <pt x="781" y="700" on="1"/>
        <pt x="899" y="700" on="1"/>
        <pt x="746" y="0" on="1"/>
        <pt x="621" y="0" on="1"/>
        <pt x="468" y="531" on="1"/>
      </contour>
    </TTGlyph>
    <TTGlyph name="Wacute" xMin="37" yMin="0" xMax="899" yMax="923">
      <component glyphName="W" x="0" y="0" flags="0x204"/>
      <component glyphName="acute" x="239" y="199" flags="0x4"/>
    </TTGlyph>
    <TTGlyph name="Wcircumflex" xMin="37" yMin="0" xMax="899" yMax="925">
      <component glyphName="W" x="0" y="0" flags="0x204"/>
      <component glyphName="circumflex" x="205" y="199" flags="0x4"/>
    </TTGlyph>
    <TTGlyph name="Wdieresis" xMin="37" yMin="0" xMax="899" yMax="930">
      <component glyphName="W" x="0" y="0" flags="0x204"/>
      <component glyphName="dieresis" x="180" y="199" flags="0x4"/>
    </TTGlyph>
    <TTGlyph name="Wgrave" xMin="37" yMin="0" xMax="899" yMax="923">
      <component glyphName="W" x="0" y="0" flags="0x204"/>
      <component glyphName="grave" x="165" y="199" flags="0x4"/>
    </TTGlyph>
    <TTGlyph name="X" xMin="10" yMin="0" xMax="689" yMax="700">
      <contour>
        <pt x="149" y="0" on="1"/>
        <pt x="10" y="0" on="1"/>
        <pt x="279" y="362" on="1"/>
        <pt x="25" y="700" on="1"/>
        <pt x="169" y="700" on="1"/>
        <pt x="350" y="451" on="1"/>
        <pt x="530" y="700" on="1"/>
        <pt x="668" y="700" on="1"/>
        <pt x="418" y="362" on="1"/>
        <pt x="689" y="0" on="1"/>
        <pt x="546" y="0" on="1"/>
        <pt x="347" y="274" on="1"/>
      </contour>
    </TTGlyph>
    <TTGlyph name="Y" xMin="6" yMin="0" xMax="682" yMax="700">
      <contour>
        <pt x="283" y="0" on="1"/>
        <pt x="283" y="277" on="1"/>
        <pt x="6" y="700" on="1"/>
        <pt x="145" y="700" on="1"/>
        <pt x="347" y="380" on="1"/>
        <pt x="551" y="700" on="1"/>
        <pt x="682" y="700" on="1"/>
        <pt x="403" y="274" on="1"/>
        <pt x="403" y="0" on="1"/>
      </contour>
    </TTGlyph>
    <TTGlyph name="Yacute" xMin="6" yMin="0" xMax="682" yMax="923">
      <component glyphName="Y" x="0" y="0" flags="0x204"/>
      <component glyphName="acute" x="110" y="199" flags="0x4"/>
    </TTGlyph>
    <TTGlyph name="Ycircumflex" xMin="6" yMin="0" xMax="682" yMax="925">
      <component glyphName="Y" x="0" y="0" flags="0x204"/>
      <component glyphName="circumflex" x="76" y="199" flags="0x4"/>
    </TTGlyph>
    <TTGlyph name="Ydieresis" xMin="6" yMin="0" xMax="682" yMax="930">
      <component glyphName="Y" x="0" y="0" flags="0x204"/>
      <component glyphName="dieresis" x="51" y="199" flags="0x4"/>
    </TTGlyph>
    <TTGlyph name="Ygrave" xMin="6" yMin="0" xMax="682" yMax="923">
      <component glyphName="Y" x="0" y="0" flags="0x204"/>
      <component glyphName="grave" x="36" y="199" flags="0x4"/>
    </TTGlyph>
    <TTGlyph name="Z" xMin="33" yMin="0" xMax="584" yMax="700">
      <contour>
        <pt x="33" y="0" on="1"/>
        <pt x="33" y="80" on="1"/>
        <pt x="426" y="601" on="1"/>
        <pt x="36" y="598" on="1"/>
        <pt x="36" y="700" on="1"/>
        <pt x="578" y="700" on="1"/>
        <pt x="578" y="620" on="1"/>
        <pt x="187" y="99" on="1"/>
        <pt x="584" y="102" on="1"/>
        <pt x="584" y="0" on="1"/>
      </contour>
    </TTGlyph>
    <TTGlyph name="Zacute" xMin="33" yMin="0" xMax="584" yMax="923">
      <component glyphName="Z" x="0" y="0" flags="0x204"/>
      <component glyphName="acute" x="84" y="199" flags="0x4"/>
    </TTGlyph>
    <TTGlyph name="Zcaron" xMin="33" yMin="0" xMax="584" yMax="929">
      <component glyphName="Z" x="0" y="0" flags="0x204"/>
      <component glyphName="caron" x="50" y="199" flags="0x4"/>
    </TTGlyph>
    <TTGlyph name="Zdotaccent" xMin="33" yMin="0" xMax="584" yMax="930">
      <component glyphName="Z" x="0" y="0" flags="0x204"/>
      <component glyphName="dotaccent" x="161" y="199" flags="0x4"/>
    </TTGlyph>
    <TTGlyph name="a" xMin="45" yMin="-8" xMax="483" yMax="509">
      <contour>
        <pt x="222" y="-8" on="1"/>
        <pt x="144" y="-8" on="0"/>
        <pt x="45" y="77" on="0"/>
        <pt x="45" y="144" on="1"/>
        <pt x="45" y="211" on="0"/>
        <pt x="148" y="291" on="0"/>
        <pt x="236" y="291" on="1"/>
        <pt x="271" y="291" on="0"/>
        <pt x="337" y="276" on="0"/>
        <pt x="371" y="260" on="1"/>
        <pt x="371" y="315" on="1"/>
        <pt x="371" y="364" on="0"/>
        <pt x="313" y="415" on="0"/>
        <pt x="256" y="415" on="1"/>
        <pt x="225" y="415" on="0"/>
        <pt x="153" y="396" on="0"/>
        <pt x="110" y="376" on="1"/>
        <pt x="70" y="458" on="1"/>
        <pt x="126" y="484" on="0"/>
        <pt x="228" y="509" on="0"/>
        <pt x="278" y="509" on="1"/>
        <pt x="375" y="509" on="0"/>
        <pt x="483" y="414" on="0"/>
        <pt x="483" y="327" on="1"/>
        <pt x="483" y="0" on="1"/>
        <pt x="371" y="0" on="1"/>
        <pt x="371" y="51" on="1"/>
        <pt x="337" y="20" on="0"/>
        <pt x="265" y="-8" on="0"/>
      </contour>
      <contour>
        <pt x="151" y="146" on="1"/>
        <pt x="151" y="112" on="0"/>
        <pt x="207" y="71" on="0"/>
        <pt x="253" y="71" on="1"/>
        <pt x="287" y="71" on="0"/>
        <pt x="346" y="91" on="0"/>
        <pt x="371" y="112" on="1"/>
        <pt x="371" y="194" on="1"/>
        <pt x="344" y="207" on="0"/>
        <pt x="288" y="218" on="0"/>
        <pt x="255" y="218" on="1"/>
        <pt x="207" y="218" on="0"/>
        <pt x="151" y="179" on="0"/>
      </contour>
    </TTGlyph>
    <TTGlyph name="a.school" xMin="47" yMin="-5" xMax="540" yMax="505">
      <contour>
        <pt x="428" y="0" on="1"/>
        <pt x="428" y="67" on="1"/>
        <pt x="402" y="33" on="0"/>
        <pt x="321" y="-5" on="0"/>
        <pt x="274" y="-5" on="1"/>
        <pt x="227" y="-5" on="0"/>
        <pt x="143" y="35" on="0"/>
        <pt x="82" y="104" on="0"/>
        <pt x="47" y="197" on="0"/>
        <pt x="47" y="250" on="1"/>
        <pt x="47" y="303" on="0"/>
        <pt x="83" y="397" on="0"/>
        <pt x="146" y="465" on="0"/>
        <pt x="232" y="505" on="0"/>
        <pt x="281" y="505" on="1"/>
        <pt x="324" y="505" on="0"/>
        <pt x="399" y="470" on="0"/>
        <pt x="427" y="439" on="1"/>
        <pt x="427" y="501" on="1"/>
        <pt x="540" y="501" on="1"/>
        <pt x="540" y="0" on="1"/>
      </contour>
      <contour>
        <pt x="159" y="250" on="1"/>
        <pt x="159" y="182" on="0"/>
        <pt x="245" y="90" on="0"/>
        <pt x="308" y="90" on="1"/>
        <pt x="344" y="90" on="0"/>
        <pt x="405" y="118" on="0"/>
        <pt x="427" y="145" on="1"/>
        <pt x="427" y="356" on="1"/>
        <pt x="405" y="381" on="0"/>
        <pt x="343" y="410" on="0"/>
        <pt x="308" y="410" on="1"/>
        <pt x="244" y="410" on="0"/>
        <pt x="159" y="319" on="0"/>
      </contour>
    </TTGlyph>
    <TTGlyph name="aacute" xMin="45" yMin="-8" xMax="483" yMax="724">
      <component glyphName="a" x="0" y="0" flags="0x204"/>
      <component glyphName="acute" x="39" y="0" flags="0x4"/>
    </TTGlyph>
    <TTGlyph name="aacute.school" xMin="47" yMin="-5" xMax="540" yMax="724">
      <component glyphName="a.school" x="0" y="0" flags="0x204"/>
      <component glyphName="acute" x="82" y="0" flags="0x4"/>
    </TTGlyph>
    <TTGlyph name="abreve" xMin="45" yMin="-8" xMax="483" yMax="740">
      <component glyphName="a" x="0" y="0" flags="0x204"/>
      <component glyphName="breve" x="5" y="0" flags="0x4"/>
    </TTGlyph>
    <TTGlyph name="abreve.school" xMin="47" yMin="-5" xMax="540" yMax="740">
      <component glyphName="a.school" x="0" y="0" flags="0x204"/>
      <component glyphName="breve" x="48" y="0" flags="0x4"/>
    </TTGlyph>
    <TTGlyph name="acircumflex" xMin="45" yMin="-8" xMax="483" yMax="726">
      <component glyphName="a" x="0" y="0" flags="0x204"/>
      <component glyphName="circumflex" x="5" y="0" flags="0x4"/>
    </TTGlyph>
    <TTGlyph name="acircumflex.school" xMin="47" yMin="-5" xMax="540" yMax="726">
      <component glyphName="a.school" x="0" y="0" flags="0x204"/>
      <component glyphName="circumflex" x="48" y="0" flags="0x4"/>
    </TTGlyph>
    <TTGlyph name="acute" xMin="160" yMin="591" xMax="425" yMax="724">
      <contour>
        <pt x="284" y="724" on="1"/>
        <pt x="425" y="724" on="1"/>
        <pt x="259" y="591" on="1"/>
        <pt x="160" y="591" on="1"/>
      </contour>
    </TTGlyph>
    <TTGlyph name="adieresis" xMin="45" yMin="-8" xMax="483" yMax="731">
      <component glyphName="a" x="0" y="0" flags="0x204"/>
      <component glyphName="dieresis" x="-21" y="0" flags="0x4"/>
    </TTGlyph>
    <TTGlyph name="adieresis.school" xMin="47" yMin="-5" xMax="540" yMax="731">
      <component glyphName="a.school" x="0" y="0" flags="0x204"/>
      <component glyphName="dieresis" x="23" y="0" flags="0x4"/>
    </TTGlyph>
    <TTGlyph name="ae" xMin="46" yMin="-10" xMax="853" yMax="509">
      <contour>
        <pt x="226" y="-8" on="1"/>
        <pt x="146" y="-8" on="0"/>
        <pt x="46" y="77" on="0"/>
        <pt x="46" y="145" on="1"/>
        <pt x="46" y="212" on="0"/>
        <pt x="148" y="291" on="0"/>
        <pt x="236" y="291" on="1"/>
        <pt x="271" y="291" on="0"/>
        <pt x="337" y="276" on="0"/>
        <pt x="371" y="261" on="1"/>
        <pt x="371" y="315" on="1"/>
        <pt x="371" y="364" on="0"/>
        <pt x="313" y="415" on="0"/>
        <pt x="256" y="415" on="1"/>
        <pt x="225" y="415" on="0"/>
        <pt x="153" y="396" on="0"/>
        <pt x="110" y="376" on="1"/>
        <pt x="70" y="458" on="1"/>
        <pt x="126" y="484" on="0"/>
        <pt x="228" y="509" on="0"/>
        <pt x="278" y="509" on="1"/>
        <pt x="337" y="509" on="0"/>
        <pt x="421" y="470" on="0"/>
        <pt x="445" y="434" on="1"/>
        <pt x="476" y="470" on="0"/>
        <pt x="565" y="509" on="0"/>
        <pt x="616" y="509" on="1"/>
        <pt x="667" y="509" on="0"/>
        <pt x="754" y="470" on="0"/>
        <pt x="817" y="402" on="0"/>
        <pt x="853" y="307" on="0"/>
        <pt x="853" y="251" on="1"/>
        <pt x="853" y="223" on="1"/>
        <pt x="483" y="223" on="1"/>
        <pt x="491" y="164" on="0"/>
        <pt x="576" y="86" on="0"/>
        <pt x="633" y="86" on="1"/>
        <pt x="668" y="86" on="0"/>
        <pt x="731" y="111" on="0"/>
        <pt x="752" y="133" on="1"/>
        <pt x="826" y="64" on="1"/>
        <pt x="780" y="26" on="0"/>
        <pt x="684" y="-10" on="0"/>
        <pt x="627" y="-10" on="1"/>
        <pt x="567" y="-10" on="0"/>
        <pt x="464" y="40" on="0"/>
        <pt x="430" y="83" on="1"/>
        <pt x="387" y="36" on="0"/>
        <pt x="287" y="-8" on="0"/>
      </contour>
      <contour>
        <pt x="615" y="417" on="1"/>
        <pt x="565" y="417" on="0"/>
        <pt x="495" y="349" on="0"/>
        <pt x="485" y="292" on="1"/>
        <pt x="746" y="292" on="1"/>
        <pt x="736" y="347" on="0"/>
        <pt x="665" y="417" on="0"/>
      </contour>
      <contour>
        <pt x="151" y="148" on="1"/>
        <pt x="151" y="114" on="0"/>
        <pt x="206" y="72" on="0"/>
        <pt x="252" y="72" on="1"/>
        <pt x="295" y="72" on="0"/>
        <pt x="367" y="107" on="0"/>
        <pt x="395" y="140" on="1"/>
        <pt x="390" y="153" on="0"/>
        <pt x="381" y="179" on="0"/>
        <pt x="378" y="193" on="1"/>
        <pt x="350" y="207" on="0"/>
        <pt x="289" y="220" on="0"/>
        <pt x="255" y="220" on="1"/>
        <pt x="207" y="220" on="0"/>
        <pt x="151" y="181" on="0"/>
      </contour>
    </TTGlyph>
    <TTGlyph name="agrave" xMin="45" yMin="-8" xMax="483" yMax="724">
      <component glyphName="a" x="0" y="0" flags="0x204"/>
      <component glyphName="grave" x="-35" y="0" flags="0x4"/>
    </TTGlyph>
    <TTGlyph name="agrave.school" xMin="47" yMin="-5" xMax="540" yMax="724">
      <component glyphName="a.school" x="0" y="0" flags="0x204"/>
      <component glyphName="grave" x="8" y="0" flags="0x4"/>
    </TTGlyph>
    <TTGlyph name="amacron" xMin="45" yMin="-8" xMax="483" yMax="692">
      <component glyphName="a" x="0" y="0" flags="0x204"/>
      <component glyphName="macron" x="5" y="0" flags="0x4"/>
    </TTGlyph>
    <TTGlyph name="amacron.school" xMin="47" yMin="-5" xMax="540" yMax="692">
      <component glyphName="a.school" x="0" y="0" flags="0x204"/>
      <component glyphName="macron" x="48" y="0" flags="0x4"/>
    </TTGlyph>
    <TTGlyph name="ampersand" xMin="29" yMin="-17" xMax="658" yMax="711">
      <contour>
        <pt x="658" y="63" on="1"/>
        <pt x="591" y="-17" on="1"/>
        <pt x="565" y="2" on="0"/>
        <pt x="512" y="45" on="0"/>
        <pt x="485" y="67" on="1"/>
        <pt x="442" y="30" on="0"/>
        <pt x="333" y="-10" on="0"/>
        <pt x="271" y="-10" on="1"/>
        <pt x="163" y="-10" on="0"/>
        <pt x="29" y="100" on="0"/>
        <pt x="29" y="189" on="1"/>
        <pt x="29" y="252" on="0"/>
        <pt x="92" y="341" on="0"/>
        <pt x="167" y="382" on="1"/>
        <pt x="172" y="385" on="1"/>
        <pt x="139" y="427" on="0"/>
        <pt x="112" y="498" on="0"/>
        <pt x="112" y="539" on="1"/>
        <pt x="112" y="613" on="0"/>
        <pt x="218" y="711" on="0"/>
        <pt x="298" y="711" on="1"/>
        <pt x="375" y="711" on="0"/>
        <pt x="475" y="622" on="0"/>
        <pt x="475" y="554" on="1"/>
        <pt x="475" y="507" on="0"/>
        <pt x="424" y="430" on="0"/>
        <pt x="371" y="399" on="1"/>
        <pt x="320" y="368" on="1"/>
        <pt x="354" y="331" on="0"/>
        <pt x="434" y="254" on="0"/>
        <pt x="475" y="216" on="1"/>
        <pt x="495" y="251" on="0"/>
        <pt x="526" y="336" on="0"/>
        <pt x="535" y="385" on="1"/>
        <pt x="635" y="369" on="1"/>
        <pt x="621" y="303" on="0"/>
        <pt x="578" y="193" on="0"/>
        <pt x="550" y="150" on="1"/>
        <pt x="578" y="126" on="0"/>
        <pt x="633" y="82" on="0"/>
      </contour>
      <contour>
        <pt x="215" y="541" on="1"/>
        <pt x="215" y="516" on="0"/>
        <pt x="237" y="467" on="0"/>
        <pt x="265" y="433" on="1"/>
        <pt x="312" y="461" on="1"/>
        <pt x="343" y="480" on="0"/>
        <pt x="372" y="523" on="0"/>
        <pt x="372" y="550" on="1"/>
        <pt x="372" y="582" on="0"/>
        <pt x="327" y="625" on="0"/>
        <pt x="295" y="625" on="1"/>
        <pt x="260" y="625" on="0"/>
        <pt x="215" y="578" on="0"/>
      </contour>
      <contour>
        <pt x="135" y="196" on="1"/>
        <pt x="135" y="144" on="0"/>
        <pt x="213" y="81" on="0"/>
        <pt x="278" y="81" on="1"/>
        <pt x="316" y="81" on="0"/>
        <pt x="384" y="105" on="0"/>
        <pt x="413" y="130" on="1"/>
        <pt x="363" y="176" on="0"/>
        <pt x="268" y="270" on="0"/>
        <pt x="228" y="316" on="1"/>
        <pt x="224" y="314" on="1"/>
        <pt x="176" y="286" on="0"/>
        <pt x="135" y="233" on="0"/>
      </contour>
    </TTGlyph>
    <TTGlyph name="aogonek" xMin="45" yMin="-231" xMax="509" yMax="509">
      <contour>
        <pt x="222" y="-8" on="1"/>
        <pt x="144" y="-8" on="0"/>
        <pt x="45" y="77" on="0"/>
        <pt x="45" y="144" on="1"/>
        <pt x="45" y="211" on="0"/>
        <pt x="148" y="291" on="0"/>
        <pt x="236" y="291" on="1"/>
        <pt x="271" y="291" on="0"/>
        <pt x="337" y="276" on="0"/>
        <pt x="371" y="260" on="1"/>
        <pt x="371" y="315" on="1"/>
        <pt x="371" y="364" on="0"/>
        <pt x="313" y="415" on="0"/>
        <pt x="256" y="415" on="1"/>
        <pt x="225" y="415" on="0"/>
        <pt x="153" y="396" on="0"/>
        <pt x="110" y="376" on="1"/>
        <pt x="70" y="458" on="1"/>
        <pt x="126" y="484" on="0"/>
        <pt x="228" y="509" on="0"/>
        <pt x="278" y="509" on="1"/>
        <pt x="375" y="509" on="0"/>
        <pt x="483" y="414" on="0"/>
        <pt x="483" y="327" on="1"/>
        <pt x="483" y="0" on="1"/>
        <pt x="434" y="-31" on="0"/>
        <pt x="387" y="-88" on="0"/>
        <pt x="387" y="-116" on="1"/>
        <pt x="387" y="-141" on="0"/>
        <pt x="419" y="-169" on="0"/>
        <pt x="446" y="-169" on="1"/>
        <pt x="459" y="-169" on="0"/>
        <pt x="485" y="-163" on="0"/>
        <pt x="493" y="-157" on="1"/>
        <pt x="509" y="-210" on="1"/>
        <pt x="494" y="-220" on="0"/>
        <pt x="451" y="-231" on="0"/>
        <pt x="428" y="-231" on="1"/>
        <pt x="379" y="-231" on="0"/>
        <pt x="321" y="-179" on="0"/>
        <pt x="321" y="-136" on="1"/>
        <pt x="321" y="-99" on="0"/>
        <pt x="366" y="-34" on="0"/>
        <pt x="415" y="0" on="1"/>
        <pt x="371" y="0" on="1"/>
        <pt x="371" y="51" on="1"/>
        <pt x="337" y="20" on="0"/>
        <pt x="265" y="-8" on="0"/>
      </contour>
      <contour>
        <pt x="151" y="146" on="1"/>
        <pt x="151" y="112" on="0"/>
        <pt x="207" y="71" on="0"/>
        <pt x="253" y="71" on="1"/>
        <pt x="287" y="71" on="0"/>
        <pt x="346" y="91" on="0"/>
        <pt x="371" y="112" on="1"/>
        <pt x="371" y="194" on="1"/>
        <pt x="344" y="207" on="0"/>
        <pt x="288" y="218" on="0"/>
        <pt x="255" y="218" on="1"/>
        <pt x="207" y="218" on="0"/>
        <pt x="151" y="179" on="0"/>
      </contour>
    </TTGlyph>
    <TTGlyph name="aogonek.school" xMin="47" yMin="-231" xMax="566" yMax="505">
      <contour>
        <pt x="428" y="0" on="1"/>
        <pt x="428" y="67" on="1"/>
        <pt x="402" y="33" on="0"/>
        <pt x="321" y="-5" on="0"/>
        <pt x="274" y="-5" on="1"/>
        <pt x="227" y="-5" on="0"/>
        <pt x="143" y="35" on="0"/>
        <pt x="82" y="104" on="0"/>
        <pt x="47" y="197" on="0"/>
        <pt x="47" y="250" on="1"/>
        <pt x="47" y="303" on="0"/>
        <pt x="83" y="397" on="0"/>
        <pt x="146" y="465" on="0"/>
        <pt x="232" y="505" on="0"/>
        <pt x="281" y="505" on="1"/>
        <pt x="324" y="505" on="0"/>
        <pt x="399" y="470" on="0"/>
        <pt x="427" y="439" on="1"/>
        <pt x="427" y="501" on="1"/>
        <pt x="540" y="501" on="1"/>
        <pt x="540" y="0" on="1"/>
        <pt x="491" y="-31" on="0"/>
        <pt x="444" y="-88" on="0"/>
        <pt x="444" y="-116" on="1"/>
        <pt x="444" y="-141" on="0"/>
        <pt x="476" y="-169" on="0"/>
        <pt x="503" y="-169" on="1"/>
        <pt x="516" y="-169" on="0"/>
        <pt x="542" y="-163" on="0"/>
        <pt x="550" y="-157" on="1"/>
        <pt x="566" y="-210" on="1"/>
        <pt x="551" y="-220" on="0"/>
        <pt x="508" y="-231" on="0"/>
        <pt x="485" y="-231" on="1"/>
        <pt x="436" y="-231" on="0"/>
        <pt x="378" y="-179" on="0"/>
        <pt x="378" y="-136" on="1"/>
        <pt x="378" y="-99" on="0"/>
        <pt x="423" y="-34" on="0"/>
        <pt x="472" y="0" on="1"/>
      </contour>
      <contour>
        <pt x="159" y="250" on="1"/>
        <pt x="159" y="182" on="0"/>
        <pt x="245" y="90" on="0"/>
        <pt x="308" y="90" on="1"/>
        <pt x="344" y="90" on="0"/>
        <pt x="405" y="118" on="0"/>
        <pt x="427" y="145" on="1"/>
        <pt x="427" y="356" on="1"/>
        <pt x="405" y="381" on="0"/>
        <pt x="343" y="410" on="0"/>
        <pt x="308" y="410" on="1"/>
        <pt x="244" y="410" on="0"/>
        <pt x="159" y="319" on="0"/>
      </contour>
    </TTGlyph>
    <TTGlyph name="aring" xMin="45" yMin="-8" xMax="483" yMax="812">
      <component glyphName="a" x="0" y="0" flags="0x204"/>
      <component glyphName="ring" x="5" y="0" flags="0x4"/>
    </TTGlyph>
    <TTGlyph name="aring.school" xMin="47" yMin="-5" xMax="540" yMax="812">
      <component glyphName="a.school" x="0" y="0" flags="0x204"/>
      <component glyphName="ring" x="48" y="0" flags="0x4"/>
    </TTGlyph>
    <TTGlyph name="asciicircum" xMin="52" yMin="350" xMax="498" yMax="700">
      <contour>
        <pt x="52" y="350" on="1"/>
        <pt x="228" y="700" on="1"/>
        <pt x="322" y="700" on="1"/>
        <pt x="498" y="350" on="1"/>
        <pt x="405" y="350" on="1"/>
        <pt x="275" y="612" on="1"/>
        <pt x="145" y="350" on="1"/>
      </contour>
    </TTGlyph>
    <TTGlyph name="asciitilde" xMin="45" yMin="287" xMax="552" yMax="461">
      <contour>
        <pt x="268" y="435" on="1"/>
        <pt x="349" y="394" on="1"/>
        <pt x="371" y="383" on="0"/>
        <pt x="398" y="374" on="0"/>
        <pt x="408" y="374" on="1"/>
        <pt x="436" y="374" on="0"/>
        <pt x="469" y="415" on="0"/>
        <pt x="473" y="457" on="1"/>
        <pt x="552" y="448" on="1"/>
        <pt x="543" y="371" on="0"/>
        <pt x="473" y="287" on="0"/>
        <pt x="419" y="287" on="1"/>
        <pt x="399" y="287" on="0"/>
        <pt x="353" y="299" on="0"/>
        <pt x="329" y="312" on="1"/>
        <pt x="249" y="354" on="1"/>
        <pt x="225" y="365" on="0"/>
        <pt x="199" y="374" on="0"/>
        <pt x="188" y="374" on="1"/>
        <pt x="161" y="374" on="0"/>
        <pt x="129" y="333" on="0"/>
        <pt x="124" y="291" on="1"/>
        <pt x="45" y="300" on="1"/>
        <pt x="54" y="378" on="0"/>
        <pt x="124" y="461" on="0"/>
        <pt x="178" y="461" on="1"/>
        <pt x="198" y="461" on="0"/>
        <pt x="242" y="448" on="0"/>
      </contour>
    </TTGlyph>
    <TTGlyph name="asterisk" xMin="58" yMin="325" xMax="415" yMax="700">
      <contour>
        <pt x="374" y="381" on="1"/>
        <pt x="271" y="449" on="1"/>
        <pt x="273" y="325" on="1"/>
        <pt x="200" y="325" on="1"/>
        <pt x="201" y="449" on="1"/>
        <pt x="98" y="381" on="1"/>
        <pt x="58" y="445" on="1"/>
        <pt x="170" y="514" on="1"/>
        <pt x="59" y="583" on="1"/>
        <pt x="99" y="646" on="1"/>
        <pt x="201" y="578" on="1"/>
        <pt x="200" y="700" on="1"/>
        <pt x="273" y="700" on="1"/>
        <pt x="271" y="579" on="1"/>
        <pt x="373" y="646" on="1"/>
        <pt x="414" y="583" on="1"/>
        <pt x="303" y="514" on="1"/>
        <pt x="415" y="445" on="1"/>
      </contour>
    </TTGlyph>
    <TTGlyph name="at" xMin="55" yMin="-144" xMax="720" yMax="579">
      <contour>
        <pt x="350" y="49" on="1"/>
        <pt x="292" y="49" on="0"/>
        <pt x="212" y="138" on="0"/>
        <pt x="212" y="203" on="1"/>
        <pt x="212" y="240" on="0"/>
        <pt x="238" y="306" on="0"/>
        <pt x="283" y="355" on="0"/>
        <pt x="344" y="383" on="0"/>
        <pt x="379" y="383" on="1"/>
        <pt x="405" y="383" on="0"/>
        <pt x="452" y="364" on="0"/>
        <pt x="470" y="348" on="1"/>
        <pt x="474" y="370" on="1"/>
        <pt x="548" y="370" on="1"/>
        <pt x="509" y="171" on="1"/>
        <pt x="503" y="140" on="0"/>
        <pt x="527" y="108" on="0"/>
        <pt x="555" y="108" on="1"/>
        <pt x="601" y="108" on="0"/>
        <pt x="662" y="200" on="0"/>
        <pt x="662" y="269" on="1"/>
        <pt x="662" y="324" on="0"/>
        <pt x="622" y="418" on="0"/>
        <pt x="551" y="487" on="0"/>
        <pt x="454" y="526" on="0"/>
        <pt x="398" y="526" on="1"/>
        <pt x="338" y="526" on="0"/>
        <pt x="233" y="477" on="0"/>
        <pt x="156" y="393" on="0"/>
        <pt x="112" y="277" on="0"/>
        <pt x="112" y="211" on="1"/>
        <pt x="112" y="146" on="0"/>
        <pt x="156" y="36" on="0"/>
        <pt x="233" y="-43" on="0"/>
        <pt x="341" y="-88" on="0"/>
        <pt x="404" y="-88" on="1"/>
        <pt x="447" y="-88" on="0"/>
        <pt x="527" y="-68" on="0"/>
        <pt x="562" y="-49" on="1"/>
        <pt x="583" y="-100" on="1"/>
        <pt x="540" y="-122" on="0"/>
        <pt x="450" y="-144" on="0"/>
        <pt x="402" y="-144" on="1"/>
        <pt x="327" y="-144" on="0"/>
        <pt x="200" y="-91" on="0"/>
        <pt x="107" y="2" on="0"/>
        <pt x="55" y="132" on="0"/>
        <pt x="55" y="207" on="1"/>
        <pt x="55" y="287" on="0"/>
        <pt x="107" y="424" on="0"/>
        <pt x="199" y="523" on="0"/>
        <pt x="326" y="579" on="0"/>
        <pt x="400" y="579" on="1"/>
        <pt x="468" y="579" on="0"/>
        <pt x="585" y="532" on="0"/>
        <pt x="671" y="450" on="0"/>
        <pt x="720" y="338" on="0"/>
        <pt x="720" y="273" on="1"/>
        <pt x="720" y="225" on="0"/>
        <pt x="694" y="143" on="0"/>
        <pt x="647" y="84" on="0"/>
        <pt x="583" y="51" on="0"/>
        <pt x="545" y="51" on="1"/>
        <pt x="512" y="51" on="0"/>
        <pt x="463" y="73" on="0"/>
        <pt x="450" y="92" on="1"/>
        <pt x="428" y="71" on="0"/>
        <pt x="376" y="49" on="0"/>
      </contour>
      <contour>
        <pt x="285" y="209" on="1"/>
        <pt x="285" y="166" on="0"/>
        <pt x="331" y="113" on="0"/>
        <pt x="368" y="113" on="1"/>
        <pt x="385" y="113" on="0"/>
        <pt x="420" y="128" on="0"/>
        <pt x="435" y="142" on="1"/>
        <pt x="434" y="150" on="0"/>
        <pt x="436" y="170" on="0"/>
        <pt x="438" y="180" on="1"/>
        <pt x="456" y="278" on="1"/>
        <pt x="444" y="297" on="0"/>
        <pt x="405" y="317" on="0"/>
        <pt x="380" y="317" on="1"/>
        <pt x="341" y="317" on="0"/>
        <pt x="285" y="253" on="0"/>
      </contour>
    </TTGlyph>
    <TTGlyph name="at.cap" xMin="55" yMin="-12" xMax="720" yMax="711">
      <component glyphName="at" x="0" y="132" flags="0x4"/>
    </TTGlyph>
    <TTGlyph name="atilde" xMin="45" yMin="-8" xMax="483" yMax="726">
      <component glyphName="a" x="0" y="0" flags="0x204"/>
      <component glyphName="tilde" x="7" y="0" flags="0x4"/>
    </TTGlyph>
    <TTGlyph name="atilde.school" xMin="47" yMin="-5" xMax="540" yMax="726">
      <component glyphName="a.school" x="0" y="0" flags="0x204"/>
      <component glyphName="tilde" x="50" y="0" flags="0x4"/>
    </TTGlyph>
    <TTGlyph name="b" xMin="70" yMin="-5" xMax="564" yMax="734">
      <contour>
        <pt x="564" y="250" on="1"/>
        <pt x="564" y="197" on="0"/>
        <pt x="528" y="103" on="0"/>
        <pt x="464" y="35" on="0"/>
        <pt x="378" y="-5" on="0"/>
        <pt x="329" y="-5" on="1"/>
        <pt x="285" y="-5" on="0"/>
        <pt x="208" y="31" on="0"/>
        <pt x="181" y="65" on="1"/>
        <pt x="181" y="0" on="1"/>
        <pt x="70" y="0" on="1"/>
        <pt x="70" y="715" on="1"/>
        <pt x="183" y="734" on="1"/>
        <pt x="183" y="434" on="1"/>
        <pt x="209" y="467" on="0"/>
        <pt x="290" y="505" on="0"/>
        <pt x="337" y="505" on="1"/>
        <pt x="384" y="505" on="0"/>
        <pt x="468" y="465" on="0"/>
        <pt x="529" y="396" on="0"/>
        <pt x="564" y="303" on="0"/>
      </contour>
      <contour>
        <pt x="303" y="410" on="1"/>
        <pt x="266" y="410" on="0"/>
        <pt x="205" y="382" on="0"/>
        <pt x="183" y="354" on="1"/>
        <pt x="183" y="145" on="1"/>
        <pt x="205" y="119" on="0"/>
        <pt x="267" y="90" on="0"/>
        <pt x="303" y="90" on="1"/>
        <pt x="367" y="90" on="0"/>
        <pt x="452" y="181" on="0"/>
        <pt x="452" y="250" on="1"/>
        <pt x="452" y="318" on="0"/>
        <pt x="366" y="410" on="0"/>
      </contour>
    </TTGlyph>
    <TTGlyph name="backslash" xMin="38" yMin="-208" xMax="554" yMax="700">
      <contour>
        <pt x="554" y="-208" on="1"/>
        <pt x="439" y="-208" on="1"/>
        <pt x="38" y="700" on="1"/>
        <pt x="153" y="700" on="1"/>
      </contour>
    </TTGlyph>
    <TTGlyph name="bar" xMin="110" yMin="-210" xMax="212" yMax="700">
      <contour>
        <pt x="110" y="-210" on="1"/>
        <pt x="110" y="700" on="1"/>
        <pt x="212" y="700" on="1"/>
        <pt x="212" y="-210" on="1"/>
      </contour>
    </TTGlyph>
    <TTGlyph name="braceleft" xMin="34" yMin="-221" xMax="370" yMax="710">
      <contour>
        <pt x="275" y="84" on="1"/>
        <pt x="236" y="-26" on="1"/>
        <pt x="219" y="-72" on="0"/>
        <pt x="250" y="-132" on="0"/>
        <pt x="293" y="-133" on="1"/>
        <pt x="309" y="-133" on="0"/>
        <pt x="337" y="-128" on="0"/>
        <pt x="353" y="-122" on="1"/>
        <pt x="370" y="-205" on="1"/>
        <pt x="347" y="-213" on="0"/>
        <pt x="304" y="-221" on="0"/>
        <pt x="282" y="-221" on="1"/>
        <pt x="191" y="-221" on="0"/>
        <pt x="111" y="-104" on="0"/>
        <pt x="142" y="-16" on="1"/>
        <pt x="176" y="80" on="1"/>
        <pt x="195" y="132" on="0"/>
        <pt x="157" y="201" on="0"/>
        <pt x="109" y="201" on="1"/>
        <pt x="34" y="201" on="1"/>
        <pt x="34" y="288" on="1"/>
        <pt x="109" y="288" on="1"/>
        <pt x="157" y="288" on="0"/>
        <pt x="195" y="357" on="0"/>
        <pt x="176" y="409" on="1"/>
        <pt x="142" y="505" on="1"/>
        <pt x="126" y="549" on="0"/>
        <pt x="132" y="624" on="0"/>
        <pt x="169" y="679" on="0"/>
        <pt x="236" y="710" on="0"/>
        <pt x="282" y="710" on="1"/>
        <pt x="304" y="710" on="0"/>
        <pt x="347" y="702" on="0"/>
        <pt x="370" y="694" on="1"/>
        <pt x="353" y="611" on="1"/>
        <pt x="337" y="616" on="0"/>
        <pt x="309" y="622" on="0"/>
        <pt x="293" y="622" on="1"/>
        <pt x="250" y="621" on="0"/>
        <pt x="219" y="560" on="0"/>
        <pt x="236" y="514" on="1"/>
        <pt x="275" y="405" on="1"/>
        <pt x="294" y="348" on="0"/>
        <pt x="243" y="258" on="0"/>
        <pt x="185" y="245" on="1"/>
        <pt x="243" y="231" on="0"/>
        <pt x="294" y="141" on="0"/>
      </contour>
    </TTGlyph>
    <TTGlyph name="braceright" xMin="52" yMin="-221" xMax="388" yMax="710">
      <contour>
        <pt x="147" y="405" on="1"/>
        <pt x="186" y="515" on="1"/>
        <pt x="203" y="561" on="0"/>
        <pt x="172" y="621" on="0"/>
        <pt x="129" y="622" on="1"/>
        <pt x="113" y="622" on="0"/>
        <pt x="85" y="617" on="0"/>
        <pt x="69" y="611" on="1"/>
        <pt x="52" y="694" on="1"/>
        <pt x="75" y="702" on="0"/>
        <pt x="118" y="710" on="0"/>
        <pt x="140" y="710" on="1"/>
        <pt x="231" y="710" on="0"/>
        <pt x="311" y="593" on="0"/>
        <pt x="280" y="505" on="1"/>
        <pt x="246" y="409" on="1"/>
        <pt x="227" y="357" on="0"/>
        <pt x="265" y="288" on="0"/>
        <pt x="313" y="288" on="1"/>
        <pt x="388" y="288" on="1"/>
        <pt x="388" y="201" on="1"/>
        <pt x="313" y="201" on="1"/>
        <pt x="265" y="201" on="0"/>
        <pt x="227" y="132" on="0"/>
        <pt x="246" y="80" on="1"/>
        <pt x="280" y="-16" on="1"/>
        <pt x="296" y="-60" on="0"/>
        <pt x="290" y="-135" on="0"/>
        <pt x="253" y="-190" on="0"/>
        <pt x="186" y="-221" on="0"/>
        <pt x="140" y="-221" on="1"/>
        <pt x="118" y="-221" on="0"/>
        <pt x="75" y="-213" on="0"/>
        <pt x="52" y="-205" on="1"/>
        <pt x="69" y="-122" on="1"/>
        <pt x="85" y="-127" on="0"/>
        <pt x="113" y="-133" on="0"/>
        <pt x="129" y="-133" on="1"/>
        <pt x="172" y="-132" on="0"/>
        <pt x="203" y="-71" on="0"/>
        <pt x="186" y="-25" on="1"/>
        <pt x="147" y="84" on="1"/>
        <pt x="128" y="141" on="0"/>
        <pt x="179" y="231" on="0"/>
        <pt x="237" y="244" on="1"/>
        <pt x="179" y="258" on="0"/>
        <pt x="128" y="348" on="0"/>
      </contour>
    </TTGlyph>
    <TTGlyph name="bracketleft" xMin="68" yMin="-215" xMax="338" yMax="700">
      <contour>
        <pt x="338" y="-215" on="1"/>
        <pt x="68" y="-215" on="1"/>
        <pt x="68" y="700" on="1"/>
        <pt x="338" y="700" on="1"/>
        <pt x="338" y="610" on="1"/>
        <pt x="173" y="610" on="1"/>
        <pt x="173" y="-125" on="1"/>
        <pt x="338" y="-125" on="1"/>
      </contour>
    </TTGlyph>
    <TTGlyph name="bracketright" xMin="51" yMin="-215" xMax="321" yMax="700">
      <contour>
        <pt x="51" y="700" on="1"/>
        <pt x="321" y="700" on="1"/>
        <pt x="321" y="-215" on="1"/>
        <pt x="51" y="-215" on="1"/>
        <pt x="51" y="-125" on="1"/>
        <pt x="216" y="-125" on="1"/>
        <pt x="216" y="610" on="1"/>
        <pt x="51" y="610" on="1"/>
      </contour>
    </TTGlyph>
    <TTGlyph name="breve" xMin="88" yMin="588" xMax="433" yMax="740">
      <contour>
        <pt x="261" y="653" on="1"/>
        <pt x="300" y="653" on="0"/>
        <pt x="352" y="697" on="0"/>
        <pt x="364" y="740" on="1"/>
        <pt x="433" y="722" on="1"/>
        <pt x="418" y="659" on="0"/>
        <pt x="327" y="588" on="0"/>
        <pt x="261" y="588" on="1"/>
        <pt x="194" y="588" on="0"/>
        <pt x="104" y="659" on="0"/>
        <pt x="88" y="722" on="1"/>
        <pt x="158" y="740" on="1"/>
        <pt x="170" y="697" on="0"/>
        <pt x="221" y="653" on="0"/>
      </contour>
    </TTGlyph>
    <TTGlyph name="bullet" xMin="71" yMin="230" xMax="287" yMax="450">
      <contour>
        <pt x="179" y="230" on="1"/>
        <pt x="135" y="230" on="0"/>
        <pt x="71" y="293" on="0"/>
        <pt x="71" y="339" on="1"/>
        <pt x="71" y="386" on="0"/>
        <pt x="135" y="450" on="0"/>
        <pt x="179" y="450" on="1"/>
        <pt x="224" y="450" on="0"/>
        <pt x="287" y="386" on="0"/>
        <pt x="287" y="339" on="1"/>
        <pt x="287" y="293" on="0"/>
        <pt x="224" y="230" on="0"/>
      </contour>
    </TTGlyph>
    <TTGlyph name="c" xMin="47" yMin="-10" xMax="500" yMax="508">
      <contour>
        <pt x="307" y="90" on="1"/>
        <pt x="343" y="90" on="0"/>
        <pt x="406" y="118" on="0"/>
        <pt x="428" y="145" on="1"/>
        <pt x="496" y="77" on="1"/>
        <pt x="461" y="37" on="0"/>
        <pt x="357" y="-10" on="0"/>
        <pt x="300" y="-10" on="1"/>
        <pt x="247" y="-10" on="0"/>
        <pt x="154" y="30" on="0"/>
        <pt x="86" y="100" on="0"/>
        <pt x="47" y="196" on="0"/>
        <pt x="47" y="250" on="1"/>
        <pt x="47" y="304" on="0"/>
        <pt x="86" y="399" on="0"/>
        <pt x="154" y="468" on="0"/>
        <pt x="247" y="508" on="0"/>
        <pt x="300" y="508" on="1"/>
        <pt x="358" y="508" on="0"/>
        <pt x="463" y="464" on="0"/>
        <pt x="500" y="424" on="1"/>
        <pt x="430" y="351" on="1"/>
        <pt x="404" y="380" on="0"/>
        <pt x="340" y="410" on="0"/>
        <pt x="304" y="410" on="1"/>
        <pt x="244" y="410" on="0"/>
        <pt x="160" y="317" on="0"/>
        <pt x="160" y="250" on="1"/>
        <pt x="160" y="182" on="0"/>
        <pt x="244" y="90" on="0"/>
      </contour>
    </TTGlyph>
    <TTGlyph name="cacute" xMin="47" yMin="-10" xMax="500" yMax="724">
      <component glyphName="c" x="0" y="0" flags="0x204"/>
      <component glyphName="acute" x="67" y="0" flags="0x4"/>
    </TTGlyph>
    <TTGlyph name="caron" xMin="84" yMin="592" xMax="438" yMax="730">
      <contour>
        <pt x="175" y="730" on="1"/>
        <pt x="263" y="644" on="1"/>
        <pt x="350" y="730" on="1"/>
        <pt x="438" y="730" on="1"/>
        <pt x="318" y="592" on="1"/>
        <pt x="205" y="592" on="1"/>
        <pt x="84" y="730" on="1"/>
      </contour>
    </TTGlyph>
    <TTGlyph name="caronSlovak" xMin="148" yMin="478" xMax="263" yMax="718">
      <contour>
        <pt x="155" y="718" on="1"/>
        <pt x="263" y="718" on="1"/>
        <pt x="225" y="478" on="1"/>
        <pt x="148" y="478" on="1"/>
      </contour>
    </TTGlyph>
    <TTGlyph name="ccaron" xMin="47" yMin="-10" xMax="500" yMax="730">
      <component glyphName="c" x="0" y="0" flags="0x204"/>
      <component glyphName="caron" x="33" y="0" flags="0x4"/>
    </TTGlyph>
    <TTGlyph name="ccedilla" xMin="47" yMin="-246" xMax="500" yMax="508">
      <contour>
        <pt x="307" y="90" on="1"/>
        <pt x="343" y="90" on="0"/>
        <pt x="406" y="118" on="0"/>
        <pt x="428" y="145" on="1"/>
        <pt x="496" y="77" on="1"/>
        <pt x="464" y="40" on="0"/>
        <pt x="373" y="-5" on="0"/>
        <pt x="322" y="-9" on="1"/>
        <pt x="309" y="-62" on="1"/>
        <pt x="355" y="-65" on="0"/>
        <pt x="408" y="-109" on="0"/>
        <pt x="408" y="-145" on="1"/>
        <pt x="408" y="-188" on="0"/>
        <pt x="340" y="-246" on="0"/>
        <pt x="288" y="-246" on="1"/>
        <pt x="250" y="-246" on="0"/>
        <pt x="189" y="-226" on="0"/>
        <pt x="167" y="-207" on="1"/>
        <pt x="204" y="-164" on="1"/>
        <pt x="221" y="-177" on="0"/>
        <pt x="262" y="-192" on="0"/>
        <pt x="282" y="-192" on="1"/>
        <pt x="311" y="-192" on="0"/>
        <pt x="343" y="-169" on="0"/>
        <pt x="343" y="-147" on="1"/>
        <pt x="343" y="-127" on="0"/>
        <pt x="309" y="-105" on="0"/>
        <pt x="278" y="-105" on="1"/>
        <pt x="242" y="-105" on="1"/>
        <pt x="266" y="-8" on="1"/>
        <pt x="219" y="-2" on="0"/>
        <pt x="139" y="43" on="0"/>
        <pt x="80" y="111" on="0"/>
        <pt x="47" y="200" on="0"/>
        <pt x="47" y="250" on="1"/>
        <pt x="47" y="304" on="0"/>
        <pt x="86" y="399" on="0"/>
        <pt x="154" y="468" on="0"/>
        <pt x="247" y="508" on="0"/>
        <pt x="300" y="508" on="1"/>
        <pt x="358" y="508" on="0"/>
        <pt x="463" y="464" on="0"/>
        <pt x="500" y="424" on="1"/>
        <pt x="430" y="351" on="1"/>
        <pt x="404" y="380" on="0"/>
        <pt x="340" y="410" on="0"/>
        <pt x="304" y="410" on="1"/>
        <pt x="244" y="410" on="0"/>
        <pt x="160" y="317" on="0"/>
        <pt x="160" y="250" on="1"/>
        <pt x="160" y="182" on="0"/>
        <pt x="244" y="90" on="0"/>
      </contour>
    </TTGlyph>
    <TTGlyph name="ccircumflex" xMin="47" yMin="-10" xMax="500" yMax="726">
      <component glyphName="c" x="0" y="0" flags="0x204"/>
      <component glyphName="circumflex" x="33" y="0" flags="0x4"/>
    </TTGlyph>
    <TTGlyph name="cdotaccent" xMin="47" yMin="-10" xMax="500" yMax="731">
      <component glyphName="c" x="0" y="0" flags="0x204"/>
      <component glyphName="dotaccent" x="145" y="0" flags="0x4"/>
    </TTGlyph>
    <TTGlyph name="cedilla" xMin="161" yMin="-246" xMax="402" yMax="0">
      <contour>
        <pt x="402" y="-145" on="1"/>
        <pt x="402" y="-188" on="0"/>
        <pt x="334" y="-246" on="0"/>
        <pt x="282" y="-246" on="1"/>
        <pt x="244" y="-246" on="0"/>
        <pt x="183" y="-226" on="0"/>
        <pt x="161" y="-207" on="1"/>
        <pt x="198" y="-164" on="1"/>
        <pt x="215" y="-177" on="0"/>
        <pt x="256" y="-192" on="0"/>
        <pt x="276" y="-192" on="1"/>
        <pt x="305" y="-192" on="0"/>
        <pt x="337" y="-169" on="0"/>
        <pt x="337" y="-147" on="1"/>
        <pt x="337" y="-127" on="0"/>
        <pt x="303" y="-105" on="0"/>
        <pt x="272" y="-105" on="1"/>
        <pt x="236" y="-105" on="1"/>
        <pt x="262" y="0" on="1"/>
        <pt x="318" y="0" on="1"/>
        <pt x="303" y="-62" on="1"/>
        <pt x="349" y="-65" on="0"/>
        <pt x="402" y="-109" on="0"/>
      </contour>
    </TTGlyph>
    <TTGlyph name="cent" xMin="47" yMin="-114" xMax="500" yMax="616">
      <contour>
        <pt x="270" y="-114" on="1"/>
        <pt x="270" y="-7" on="1"/>
        <pt x="223" y="-2" on="0"/>
        <pt x="141" y="42" on="0"/>
        <pt x="81" y="110" on="0"/>
        <pt x="47" y="200" on="0"/>
        <pt x="47" y="251" on="1"/>
        <pt x="47" y="301" on="0"/>
        <pt x="81" y="391" on="0"/>
        <pt x="140" y="458" on="0"/>
        <pt x="222" y="502" on="0"/>
        <pt x="270" y="507" on="1"/>
        <pt x="270" y="616" on="1"/>
        <pt x="326" y="616" on="1"/>
        <pt x="326" y="508" on="1"/>
        <pt x="377" y="504" on="0"/>
        <pt x="467" y="461" on="0"/>
        <pt x="500" y="425" on="1"/>
        <pt x="430" y="352" on="1"/>
        <pt x="408" y="377" on="0"/>
        <pt x="355" y="406" on="0"/>
        <pt x="326" y="410" on="1"/>
        <pt x="326" y="92" on="1"/>
        <pt x="356" y="95" on="0"/>
        <pt x="409" y="123" on="0"/>
        <pt x="428" y="146" on="1"/>
        <pt x="496" y="78" on="1"/>
        <pt x="465" y="42" on="0"/>
        <pt x="376" y="-3" on="0"/>
        <pt x="326" y="-8" on="1"/>
        <pt x="326" y="-114" on="1"/>
      </contour>
      <contour>
        <pt x="160" y="251" on="1"/>
        <pt x="160" y="194" on="0"/>
        <pt x="221" y="109" on="0"/>
        <pt x="270" y="96" on="1"/>
        <pt x="270" y="407" on="1"/>
        <pt x="222" y="394" on="0"/>
        <pt x="160" y="308" on="0"/>
      </contour>
    </TTGlyph>
    <TTGlyph name="circumflex" xMin="84" yMin="588" xMax="438" yMax="726">
      <contour>
        <pt x="349" y="588" on="1"/>
        <pt x="260" y="674" on="1"/>
        <pt x="172" y="588" on="1"/>
        <pt x="84" y="588" on="1"/>
        <pt x="205" y="726" on="1"/>
        <pt x="318" y="726" on="1"/>
        <pt x="438" y="588" on="1"/>
      </contour>
    </TTGlyph>
    <TTGlyph name="colon" xMin="52" yMin="-9" xMax="192" yMax="512">
      <component glyphName="period" x="0" y="0" flags="0x204"/>
      <component glyphName="period" x="0" y="375" flags="0x4"/>
    </TTGlyph>
    <TTGlyph name="comma" xMin="15" yMin="-166" xMax="196" yMax="98">
      <contour>
        <pt x="82" y="98" on="1"/>
        <pt x="196" y="98" on="1"/>
        <pt x="98" y="-166" on="1"/>
        <pt x="15" y="-166" on="1"/>
      </contour>
    </TTGlyph>
    <TTGlyph name="commaaccent" xMin="35" yMin="-288" xMax="196" yMax="-88">
      <contour>
        <pt x="91" y="-88" on="1"/>
        <pt x="196" y="-88" on="1"/>
        <pt x="115" y="-288" on="1"/>
        <pt x="35" y="-288" on="1"/>
      </contour>
    </TTGlyph>
    <TTGlyph name="copyright" xMin="51" yMin="-11" xMax="737" yMax="711">
      <contour>
        <pt x="51" y="350" on="1"/>
        <pt x="51" y="425" on="0"/>
        <pt x="104" y="558" on="0"/>
        <pt x="196" y="655" on="0"/>
        <pt x="322" y="711" on="0"/>
        <pt x="394" y="711" on="1"/>
        <pt x="466" y="711" on="0"/>
        <pt x="592" y="655" on="0"/>
        <pt x="684" y="558" on="0"/>
        <pt x="737" y="426" on="0"/>
        <pt x="737" y="350" on="1"/>
        <pt x="737" y="274" on="0"/>
        <pt x="684" y="142" on="0"/>
        <pt x="592" y="45" on="0"/>
        <pt x="466" y="-11" on="0"/>
        <pt x="394" y="-11" on="1"/>
        <pt x="322" y="-11" on="0"/>
        <pt x="196" y="45" on="0"/>
        <pt x="104" y="142" on="0"/>
        <pt x="51" y="275" on="0"/>
      </contour>
      <contour>
        <pt x="682" y="350" on="1"/>
        <pt x="682" y="414" on="0"/>
        <pt x="637" y="526" on="0"/>
        <pt x="559" y="609" on="0"/>
        <pt x="454" y="657" on="0"/>
        <pt x="394" y="657" on="1"/>
        <pt x="335" y="657" on="0"/>
        <pt x="230" y="609" on="0"/>
        <pt x="153" y="526" on="0"/>
        <pt x="108" y="414" on="0"/>
        <pt x="108" y="350" on="1"/>
        <pt x="108" y="286" on="0"/>
        <pt x="153" y="174" on="0"/>
        <pt x="230" y="91" on="0"/>
        <pt x="335" y="43" on="0"/>
        <pt x="394" y="43" on="1"/>
        <pt x="454" y="43" on="0"/>
        <pt x="559" y="91" on="0"/>
        <pt x="637" y="174" on="0"/>
        <pt x="682" y="286" on="0"/>
      </contour>
      <contour>
        <pt x="224" y="351" on="1"/>
        <pt x="224" y="390" on="0"/>
        <pt x="252" y="459" on="0"/>
        <pt x="299" y="509" on="0"/>
        <pt x="365" y="538" on="0"/>
        <pt x="402" y="538" on="1"/>
        <pt x="442" y="538" on="0"/>
        <pt x="516" y="505" on="0"/>
        <pt x="542" y="476" on="1"/>
        <pt x="494" y="422" on="1"/>
        <pt x="475" y="444" on="0"/>
        <pt x="430" y="466" on="0"/>
        <pt x="405" y="466" on="1"/>
        <pt x="362" y="466" on="0"/>
        <pt x="303" y="400" on="0"/>
        <pt x="303" y="351" on="1"/>
        <pt x="303" y="302" on="0"/>
        <pt x="362" y="236" on="0"/>
        <pt x="406" y="236" on="1"/>
        <pt x="430" y="236" on="0"/>
        <pt x="473" y="257" on="0"/>
        <pt x="493" y="279" on="1"/>
        <pt x="540" y="225" on="1"/>
        <pt x="513" y="196" on="0"/>
        <pt x="442" y="164" on="0"/>
        <pt x="402" y="164" on="1"/>
        <pt x="365" y="164" on="0"/>
        <pt x="299" y="193" on="0"/>
        <pt x="252" y="243" on="0"/>
        <pt x="224" y="312" on="0"/>
      </contour>
    </TTGlyph>
    <TTGlyph name="cordinal" xMin="32" yMin="305" xMax="391" yMax="707">
      <contour>
        <pt x="237" y="385" on="1"/>
        <pt x="264" y="385" on="0"/>
        <pt x="312" y="408" on="0"/>
        <pt x="334" y="430" on="1"/>
        <pt x="389" y="372" on="1"/>
        <pt x="358" y="341" on="0"/>
        <pt x="277" y="305" on="0"/>
        <pt x="233" y="305" on="1"/>
        <pt x="191" y="305" on="0"/>
        <pt x="117" y="336" on="0"/>
        <pt x="63" y="390" on="0"/>
        <pt x="32" y="464" on="0"/>
        <pt x="32" y="506" on="1"/>
        <pt x="32" y="548" on="0"/>
        <pt x="63" y="622" on="0"/>
        <pt x="117" y="676" on="0"/>
        <pt x="191" y="707" on="0"/>
        <pt x="233" y="707" on="1"/>
        <pt x="279" y="707" on="0"/>
        <pt x="362" y="671" on="0"/>
        <pt x="391" y="640" on="1"/>
        <pt x="335" y="580" on="1"/>
        <pt x="314" y="603" on="0"/>
        <pt x="263" y="627" on="0"/>
        <pt x="235" y="627" on="1"/>
        <pt x="187" y="627" on="0"/>
        <pt x="123" y="557" on="0"/>
        <pt x="123" y="506" on="1"/>
        <pt x="123" y="455" on="0"/>
        <pt x="188" y="385" on="0"/>
      </contour>
    </TTGlyph>
    <TTGlyph name="d" xMin="47" yMin="-5" xMax="540" yMax="734">
      <contour>
        <pt x="428" y="0" on="1"/>
        <pt x="428" y="67" on="1"/>
        <pt x="402" y="33" on="0"/>
        <pt x="321" y="-5" on="0"/>
        <pt x="274" y="-5" on="1"/>
        <pt x="227" y="-5" on="0"/>
        <pt x="143" y="35" on="0"/>
        <pt x="82" y="104" on="0"/>
        <pt x="47" y="197" on="0"/>
        <pt x="47" y="250" on="1"/>
        <pt x="47" y="303" on="0"/>
        <pt x="83" y="397" on="0"/>
        <pt x="146" y="465" on="0"/>
        <pt x="232" y="505" on="0"/>
        <pt x="281" y="505" on="1"/>
        <pt x="324" y="505" on="0"/>
        <pt x="399" y="470" on="0"/>
        <pt x="427" y="439" on="1"/>
        <pt x="427" y="715" on="1"/>
        <pt x="540" y="734" on="1"/>
        <pt x="540" y="0" on="1"/>
      </contour>
      <contour>
        <pt x="159" y="250" on="1"/>
        <pt x="159" y="182" on="0"/>
        <pt x="245" y="90" on="0"/>
        <pt x="308" y="90" on="1"/>
        <pt x="344" y="90" on="0"/>
        <pt x="405" y="118" on="0"/>
        <pt x="427" y="145" on="1"/>
        <pt x="427" y="356" on="1"/>
        <pt x="405" y="381" on="0"/>
        <pt x="343" y="410" on="0"/>
        <pt x="308" y="410" on="1"/>
        <pt x="244" y="410" on="0"/>
        <pt x="159" y="319" on="0"/>
      </contour>
    </TTGlyph>
    <TTGlyph name="dagger" xMin="48" yMin="0" xMax="402" yMax="700">
      <contour>
        <pt x="180" y="0" on="1"/>
        <pt x="180" y="427" on="1"/>
        <pt x="48" y="427" on="1"/>
        <pt x="48" y="507" on="1"/>
        <pt x="180" y="507" on="1"/>
        <pt x="180" y="700" on="1"/>
        <pt x="271" y="700" on="1"/>
        <pt x="271" y="507" on="1"/>
        <pt x="402" y="507" on="1"/>
        <pt x="402" y="427" on="1"/>
        <pt x="271" y="427" on="1"/>
        <pt x="271" y="0" on="1"/>
      </contour>
    </TTGlyph>
    <TTGlyph name="daggerdbl" xMin="48" yMin="0" xMax="402" yMax="700">
      <contour>
        <pt x="180" y="0" on="1"/>
        <pt x="180" y="193" on="1"/>
        <pt x="48" y="193" on="1"/>
        <pt x="48" y="274" on="1"/>
        <pt x="180" y="274" on="1"/>
        <pt x="180" y="427" on="1"/>
        <pt x="48" y="427" on="1"/>
        <pt x="48" y="507" on="1"/>
        <pt x="180" y="507" on="1"/>
        <pt x="180" y="700" on="1"/>
        <pt x="271" y="700" on="1"/>
        <pt x="271" y="507" on="1"/>
        <pt x="402" y="507" on="1"/>
        <pt x="402" y="427" on="1"/>
        <pt x="271" y="427" on="1"/>
        <pt x="271" y="274" on="1"/>
        <pt x="402" y="274" on="1"/>
        <pt x="402" y="193" on="1"/>
        <pt x="271" y="193" on="1"/>
        <pt x="271" y="0" on="1"/>
      </contour>
    </TTGlyph>
    <TTGlyph name="dcaron" xMin="56" yMin="-5" xMax="757" yMax="734">
      <component glyphName="d" x="9" y="0" flags="0x4"/>
      <component glyphName="caronSlovak" x="494" y="0" flags="0x4"/>
    </TTGlyph>
    <TTGlyph name="dcroat" xMin="47" yMin="-5" xMax="599" yMax="734">
      <contour>
        <pt x="428" y="0" on="1"/>
        <pt x="428" y="67" on="1"/>
        <pt x="402" y="33" on="0"/>
        <pt x="321" y="-5" on="0"/>
        <pt x="274" y="-5" on="1"/>
        <pt x="227" y="-5" on="0"/>
        <pt x="143" y="35" on="0"/>
        <pt x="82" y="104" on="0"/>
        <pt x="47" y="197" on="0"/>
        <pt x="47" y="250" on="1"/>
        <pt x="47" y="303" on="0"/>
        <pt x="83" y="397" on="0"/>
        <pt x="146" y="465" on="0"/>
        <pt x="232" y="505" on="0"/>
        <pt x="281" y="505" on="1"/>
        <pt x="324" y="505" on="0"/>
        <pt x="399" y="470" on="0"/>
        <pt x="427" y="439" on="1"/>
        <pt x="427" y="567" on="1"/>
        <pt x="299" y="567" on="1"/>
        <pt x="299" y="634" on="1"/>
        <pt x="427" y="634" on="1"/>
        <pt x="427" y="715" on="1"/>
        <pt x="540" y="734" on="1"/>
        <pt x="540" y="634" on="1"/>
        <pt x="599" y="634" on="1"/>
        <pt x="599" y="567" on="1"/>
        <pt x="540" y="567" on="1"/>
        <pt x="540" y="0" on="1"/>
      </contour>
      <contour>
        <pt x="159" y="250" on="1"/>
        <pt x="159" y="182" on="0"/>
        <pt x="245" y="90" on="0"/>
        <pt x="308" y="90" on="1"/>
        <pt x="344" y="90" on="0"/>
        <pt x="405" y="118" on="0"/>
        <pt x="427" y="145" on="1"/>
        <pt x="427" y="356" on="1"/>
        <pt x="405" y="381" on="0"/>
        <pt x="343" y="410" on="0"/>
        <pt x="308" y="410" on="1"/>
        <pt x="244" y="410" on="0"/>
        <pt x="159" y="319" on="0"/>
      </contour>
    </TTGlyph>
    <TTGlyph name="degree" xMin="53" yMin="420" xMax="343" yMax="710">
      <contour>
        <pt x="199" y="420" on="1"/>
        <pt x="138" y="420" on="0"/>
        <pt x="53" y="507" on="0"/>
        <pt x="53" y="567" on="1"/>
        <pt x="53" y="625" on="0"/>
        <pt x="138" y="710" on="0"/>
        <pt x="199" y="710" on="1"/>
        <pt x="259" y="710" on="0"/>
        <pt x="343" y="625" on="0"/>
        <pt x="343" y="567" on="1"/>
        <pt x="343" y="507" on="0"/>
        <pt x="259" y="420" on="0"/>
      </contour>
      <contour>
        <pt x="199" y="483" on="1"/>
        <pt x="233" y="483" on="0"/>
        <pt x="278" y="534" on="0"/>
        <pt x="278" y="568" on="1"/>
        <pt x="278" y="600" on="0"/>
        <pt x="232" y="647" on="0"/>
        <pt x="199" y="647" on="1"/>
        <pt x="165" y="647" on="0"/>
        <pt x="118" y="600" on="0"/>
        <pt x="118" y="568" on="1"/>
        <pt x="118" y="533" on="0"/>
        <pt x="165" y="483" on="0"/>
      </contour>
    </TTGlyph>
    <TTGlyph name="dieresis" xMin="120" yMin="602" xMax="452" yMax="731">
      <contour>
        <pt x="185" y="602" on="1"/>
        <pt x="158" y="602" on="0"/>
        <pt x="120" y="639" on="0"/>
        <pt x="120" y="667" on="1"/>
        <pt x="120" y="695" on="0"/>
        <pt x="158" y="731" on="0"/>
        <pt x="185" y="731" on="1"/>
        <pt x="211" y="731" on="0"/>
        <pt x="249" y="695" on="0"/>
        <pt x="249" y="667" on="1"/>
        <pt x="249" y="639" on="0"/>
        <pt x="211" y="602" on="0"/>
      </contour>
      <contour>
        <pt x="388" y="602" on="1"/>
        <pt x="361" y="602" on="0"/>
        <pt x="323" y="639" on="0"/>
        <pt x="323" y="667" on="1"/>
        <pt x="323" y="695" on="0"/>
        <pt x="361" y="731" on="0"/>
        <pt x="388" y="731" on="1"/>
        <pt x="415" y="731" on="0"/>
        <pt x="452" y="695" on="0"/>
        <pt x="452" y="667" on="1"/>
        <pt x="452" y="639" on="0"/>
        <pt x="415" y="602" on="0"/>
      </contour>
    </TTGlyph>
    <TTGlyph name="divide" xMin="62" yMin="82" xMax="482" yMax="636">
      <contour>
        <pt x="272" y="495" on="1"/>
        <pt x="244" y="495" on="0"/>
        <pt x="202" y="536" on="0"/>
        <pt x="202" y="565" on="1"/>
        <pt x="202" y="594" on="0"/>
        <pt x="244" y="636" on="0"/>
        <pt x="272" y="636" on="1"/>
        <pt x="300" y="636" on="0"/>
        <pt x="342" y="594" on="0"/>
        <pt x="342" y="565" on="1"/>
        <pt x="342" y="536" on="0"/>
        <pt x="300" y="495" on="0"/>
      </contour>
      <contour>
        <pt x="62" y="313" on="1"/>
        <pt x="62" y="403" on="1"/>
        <pt x="482" y="403" on="1"/>
        <pt x="482" y="313" on="1"/>
      </contour>
      <contour>
        <pt x="272" y="82" on="1"/>
        <pt x="244" y="82" on="0"/>
        <pt x="202" y="124" on="0"/>
        <pt x="202" y="153" on="1"/>
        <pt x="202" y="182" on="0"/>
        <pt x="244" y="223" on="0"/>
        <pt x="272" y="223" on="1"/>
        <pt x="300" y="223" on="0"/>
        <pt x="342" y="182" on="0"/>
        <pt x="342" y="153" on="1"/>
        <pt x="342" y="124" on="0"/>
        <pt x="300" y="82" on="0"/>
      </contour>
    </TTGlyph>
    <TTGlyph name="dollar" xMin="34" yMin="-75" xMax="527" yMax="759">
      <contour>
        <pt x="254" y="-75" on="1"/>
        <pt x="254" y="21" on="1"/>
        <pt x="195" y="25" on="0"/>
        <pt x="81" y="63" on="0"/>
        <pt x="34" y="97" on="1"/>
        <pt x="85" y="182" on="1"/>
        <pt x="125" y="154" on="0"/>
        <pt x="211" y="120" on="0"/>
        <pt x="254" y="115" on="1"/>
        <pt x="254" y="309" on="1"/>
        <pt x="191" y="326" on="1"/>
        <pt x="117" y="346" on="0"/>
        <pt x="43" y="430" on="0"/>
        <pt x="43" y="493" on="1"/>
        <pt x="43" y="576" on="0"/>
        <pt x="156" y="676" on="0"/>
        <pt x="254" y="681" on="1"/>
        <pt x="254" y="759" on="1"/>
        <pt x="311" y="759" on="1"/>
        <pt x="311" y="679" on="1"/>
        <pt x="365" y="674" on="0"/>
        <pt x="467" y="635" on="0"/>
        <pt x="510" y="603" on="1"/>
        <pt x="462" y="520" on="1"/>
        <pt x="426" y="546" on="0"/>
        <pt x="350" y="578" on="0"/>
        <pt x="311" y="584" on="1"/>
        <pt x="311" y="399" on="1"/>
        <pt x="374" y="382" on="1"/>
        <pt x="453" y="360" on="0"/>
        <pt x="527" y="280" on="0"/>
        <pt x="527" y="217" on="1"/>
        <pt x="527" y="134" on="0"/>
        <pt x="410" y="28" on="0"/>
        <pt x="311" y="21" on="1"/>
        <pt x="311" y="-75" on="1"/>
      </contour>
      <contour>
        <pt x="233" y="418" on="1"/>
        <pt x="254" y="412" on="1"/>
        <pt x="254" y="588" on="1"/>
        <pt x="204" y="585" on="0"/>
        <pt x="145" y="538" on="0"/>
        <pt x="145" y="501" on="1"/>
        <pt x="145" y="470" on="0"/>
        <pt x="185" y="431" on="0"/>
      </contour>
      <contour>
        <pt x="332" y="290" on="1"/>
        <pt x="311" y="296" on="1"/>
        <pt x="311" y="114" on="1"/>
        <pt x="362" y="118" on="0"/>
        <pt x="422" y="168" on="0"/>
        <pt x="422" y="205" on="1"/>
        <pt x="422" y="236" on="0"/>
        <pt x="383" y="273" on="0"/>
      </contour>
    </TTGlyph>
    <TTGlyph name="dotaccent" xMin="85" yMin="602" xMax="214" yMax="731">
      <contour>
        <pt x="150" y="602" on="1"/>
        <pt x="122" y="602" on="0"/>
        <pt x="85" y="639" on="0"/>
        <pt x="85" y="667" on="1"/>
        <pt x="85" y="695" on="0"/>
        <pt x="122" y="731" on="0"/>
        <pt x="150" y="731" on="1"/>
        <pt x="177" y="731" on="0"/>
        <pt x="214" y="695" on="0"/>
        <pt x="214" y="667" on="1"/>
        <pt x="214" y="639" on="0"/>
        <pt x="177" y="602" on="0"/>
      </contour>
    </TTGlyph>
    <TTGlyph name="dotlessi" xMin="70" yMin="0" xMax="183" yMax="501">
      <contour>
        <pt x="183" y="501" on="1"/>
        <pt x="183" y="0" on="1"/>
        <pt x="70" y="0" on="1"/>
        <pt x="70" y="501" on="1"/>
      </contour>
    </TTGlyph>
    <TTGlyph name="dotlessj" xMin="-26" yMin="-217" xMax="183" yMax="501">
      <contour>
        <pt x="-26" y="-210" on="1"/>
        <pt x="-26" y="-119" on="1"/>
        <pt x="-16" y="-121" on="0"/>
        <pt x="2" y="-123" on="0"/>
        <pt x="14" y="-123" on="1"/>
        <pt x="43" y="-123" on="0"/>
        <pt x="70" y="-97" on="0"/>
        <pt x="70" y="-69" on="1"/>
        <pt x="70" y="501" on="1"/>
        <pt x="183" y="501" on="1"/>
        <pt x="183" y="-74" on="1"/>
        <pt x="183" y="-142" on="0"/>
        <pt x="105" y="-217" on="0"/>
        <pt x="35" y="-217" on="1"/>
        <pt x="19" y="-217" on="0"/>
        <pt x="-15" y="-213" on="0"/>
      </contour>
    </TTGlyph>
    <TTGlyph name="e" xMin="47" yMin="-10" xMax="528" yMax="509">
      <contour>
        <pt x="501" y="64" on="1"/>
        <pt x="455" y="26" on="0"/>
        <pt x="360" y="-10" on="0"/>
        <pt x="302" y="-10" on="1"/>
        <pt x="249" y="-10" on="0"/>
        <pt x="155" y="30" on="0"/>
        <pt x="87" y="100" on="0"/>
        <pt x="47" y="196" on="0"/>
        <pt x="47" y="250" on="1"/>
        <pt x="47" y="305" on="0"/>
        <pt x="84" y="400" on="0"/>
        <pt x="149" y="469" on="0"/>
        <pt x="239" y="509" on="0"/>
        <pt x="291" y="509" on="1"/>
        <pt x="342" y="509" on="0"/>
        <pt x="429" y="470" on="0"/>
        <pt x="492" y="402" on="0"/>
        <pt x="528" y="307" on="0"/>
        <pt x="528" y="251" on="1"/>
        <pt x="528" y="223" on="1"/>
        <pt x="158" y="223" on="1"/>
        <pt x="166" y="164" on="0"/>
        <pt x="251" y="86" on="0"/>
        <pt x="308" y="86" on="1"/>
        <pt x="343" y="86" on="0"/>
        <pt x="406" y="111" on="0"/>
        <pt x="427" y="133" on="1"/>
      </contour>
      <contour>
        <pt x="290" y="417" on="1"/>
        <pt x="240" y="417" on="0"/>
        <pt x="170" y="349" on="0"/>
        <pt x="160" y="292" on="1"/>
        <pt x="421" y="292" on="1"/>
        <pt x="411" y="347" on="0"/>
        <pt x="340" y="417" on="0"/>
      </contour>
    </TTGlyph>
    <TTGlyph name="eacute" xMin="47" yMin="-10" xMax="528" yMax="724">
      <component glyphName="e" x="0" y="0" flags="0x204"/>
      <component glyphName="acute" x="63" y="0" flags="0x4"/>
    </TTGlyph>
    <TTGlyph name="ebreve" xMin="47" yMin="-10" xMax="528" yMax="740">
      <component glyphName="e" x="0" y="0" flags="0x204"/>
      <component glyphName="breve" x="29" y="0" flags="0x4"/>
    </TTGlyph>
    <TTGlyph name="ecaron" xMin="47" yMin="-10" xMax="528" yMax="730">
      <component glyphName="e" x="0" y="0" flags="0x204"/>
      <component glyphName="caron" x="29" y="0" flags="0x4"/>
    </TTGlyph>
    <TTGlyph name="ecircumflex" xMin="47" yMin="-10" xMax="528" yMax="726">
      <component glyphName="e" x="0" y="0" flags="0x204"/>
      <component glyphName="circumflex" x="29" y="0" flags="0x4"/>
    </TTGlyph>
    <TTGlyph name="edieresis" xMin="47" yMin="-10" xMax="528" yMax="731">
      <component glyphName="e" x="0" y="0" flags="0x204"/>
      <component glyphName="dieresis" x="4" y="0" flags="0x4"/>
    </TTGlyph>
    <TTGlyph name="edotaccent" xMin="47" yMin="-10" xMax="528" yMax="731">
      <component glyphName="e" x="0" y="0" flags="0x204"/>
      <component glyphName="dotaccent" x="141" y="0" flags="0x4"/>
    </TTGlyph>
    <TTGlyph name="egrave" xMin="47" yMin="-10" xMax="528" yMax="724">
      <component glyphName="e" x="0" y="0" flags="0x204"/>
      <component glyphName="grave" x="-11" y="0" flags="0x4"/>
    </TTGlyph>
    <TTGlyph name="eight" xMin="53" yMin="-11" xMax="573" yMax="711">
      <contour>
        <pt x="313" y="-11" on="1"/>
        <pt x="256" y="-11" on="0"/>
        <pt x="160" y="19" on="0"/>
        <pt x="91" y="73" on="0"/>
        <pt x="53" y="149" on="0"/>
        <pt x="53" y="193" on="1"/>
        <pt x="53" y="253" on="0"/>
        <pt x="138" y="347" on="0"/>
        <pt x="204" y="364" on="1"/>
        <pt x="147" y="383" on="0"/>
        <pt x="76" y="467" on="0"/>
        <pt x="76" y="520" on="1"/>
        <pt x="76" y="561" on="0"/>
        <pt x="112" y="631" on="0"/>
        <pt x="175" y="682" on="0"/>
        <pt x="262" y="711" on="0"/>
        <pt x="312" y="711" on="1"/>
        <pt x="362" y="711" on="0"/>
        <pt x="450" y="682" on="0"/>
        <pt x="513" y="631" on="0"/>
        <pt x="549" y="561" on="0"/>
        <pt x="549" y="520" on="1"/>
        <pt x="549" y="467" on="0"/>
        <pt x="478" y="383" on="0"/>
        <pt x="422" y="364" on="1"/>
        <pt x="488" y="347" on="0"/>
        <pt x="573" y="253" on="0"/>
        <pt x="573" y="193" on="1"/>
        <pt x="573" y="149" on="0"/>
        <pt x="534" y="73" on="0"/>
        <pt x="466" y="19" on="0"/>
        <pt x="370" y="-11" on="0"/>
      </contour>
      <contour>
        <pt x="313" y="405" on="1"/>
        <pt x="367" y="405" on="0"/>
        <pt x="442" y="467" on="0"/>
        <pt x="442" y="513" on="1"/>
        <pt x="442" y="559" on="0"/>
        <pt x="367" y="622" on="0"/>
        <pt x="313" y="622" on="1"/>
        <pt x="258" y="622" on="0"/>
        <pt x="183" y="559" on="0"/>
        <pt x="183" y="513" on="1"/>
        <pt x="183" y="467" on="0"/>
        <pt x="259" y="405" on="0"/>
      </contour>
      <contour>
        <pt x="313" y="80" on="1"/>
        <pt x="377" y="80" on="0"/>
        <pt x="463" y="150" on="0"/>
        <pt x="463" y="201" on="1"/>
        <pt x="463" y="252" on="0"/>
        <pt x="377" y="320" on="0"/>
        <pt x="313" y="320" on="1"/>
        <pt x="248" y="320" on="0"/>
        <pt x="162" y="252" on="0"/>
        <pt x="162" y="201" on="1"/>
        <pt x="162" y="150" on="0"/>
        <pt x="248" y="80" on="0"/>
      </contour>
    </TTGlyph>
    <TTGlyph name="ellipsis" xMin="52" yMin="-9" xMax="681" yMax="137">
      <component glyphName="period" x="0" y="0" flags="0x4"/>
      <component glyphName="period" x="245" y="0" flags="0x4"/>
      <component glyphName="period" x="489" y="0" flags="0x4"/>
    </TTGlyph>
    <TTGlyph name="emacron" xMin="47" yMin="-10" xMax="528" yMax="692">
      <component glyphName="e" x="0" y="0" flags="0x204"/>
      <component glyphName="macron" x="29" y="0" flags="0x4"/>
    </TTGlyph>
    <TTGlyph name="emdash" xMin="57" yMin="236" xMax="643" yMax="331">
      <contour>
        <pt x="57" y="331" on="1"/>
        <pt x="643" y="331" on="1"/>
        <pt x="643" y="236" on="1"/>
        <pt x="57" y="236" on="1"/>
      </contour>
    </TTGlyph>
    <TTGlyph name="emdash.cap" xMin="57" yMin="301" xMax="643" yMax="396">
      <component glyphName="emdash" x="0" y="65" flags="0x4"/>
    </TTGlyph>
    <TTGlyph name="endash" xMin="57" yMin="236" xMax="500" yMax="331">
      <contour>
        <pt x="57" y="331" on="1"/>
        <pt x="500" y="331" on="1"/>
        <pt x="500" y="236" on="1"/>
        <pt x="57" y="236" on="1"/>
      </contour>
    </TTGlyph>
    <TTGlyph name="endash.cap" xMin="57" yMin="301" xMax="500" yMax="396">
      <component glyphName="endash" x="0" y="65" flags="0x4"/>
    </TTGlyph>
    <TTGlyph name="eng" xMin="70" yMin="-217" xMax="515" yMax="509">
      <contour>
        <pt x="70" y="0" on="1"/>
        <pt x="70" y="501" on="1"/>
        <pt x="183" y="501" on="1"/>
        <pt x="183" y="419" on="1"/>
        <pt x="211" y="463" on="0"/>
        <pt x="292" y="509" on="0"/>
        <pt x="342" y="509" on="1"/>
        <pt x="418" y="509" on="0"/>
        <pt x="515" y="408" on="0"/>
        <pt x="515" y="330" on="1"/>
        <pt x="515" y="-73" on="1"/>
        <pt x="515" y="-142" on="0"/>
        <pt x="439" y="-217" on="0"/>
        <pt x="368" y="-217" on="1"/>
        <pt x="353" y="-217" on="0"/>
        <pt x="320" y="-213" on="0"/>
        <pt x="307" y="-209" on="1"/>
        <pt x="307" y="-117" on="1"/>
        <pt x="317" y="-119" on="0"/>
        <pt x="335" y="-121" on="0"/>
        <pt x="347" y="-121" on="1"/>
        <pt x="376" y="-121" on="0"/>
        <pt x="402" y="-94" on="0"/>
        <pt x="402" y="-66" on="1"/>
        <pt x="402" y="298" on="1"/>
        <pt x="402" y="352" on="0"/>
        <pt x="342" y="418" on="0"/>
        <pt x="292" y="418" on="1"/>
        <pt x="258" y="418" on="0"/>
        <pt x="203" y="387" on="0"/>
        <pt x="183" y="358" on="1"/>
        <pt x="183" y="0" on="1"/>
      </contour>
    </TTGlyph>
    <TTGlyph name="eogonek" xMin="47" yMin="-231" xMax="528" yMax="509">
      <contour>
        <pt x="405" y="-210" on="1"/>
        <pt x="390" y="-220" on="0"/>
        <pt x="347" y="-231" on="0"/>
        <pt x="324" y="-231" on="1"/>
        <pt x="275" y="-231" on="0"/>
        <pt x="217" y="-179" on="0"/>
        <pt x="217" y="-136" on="1"/>
        <pt x="217" y="-102" on="0"/>
        <pt x="255" y="-41" on="0"/>
        <pt x="297" y="-10" on="1"/>
        <pt x="244" y="-9" on="0"/>
        <pt x="153" y="32" on="0"/>
        <pt x="86" y="102" on="0"/>
        <pt x="47" y="196" on="0"/>
        <pt x="47" y="250" on="1"/>
        <pt x="47" y="305" on="0"/>
        <pt x="84" y="400" on="0"/>
        <pt x="149" y="469" on="0"/>
        <pt x="239" y="509" on="0"/>
        <pt x="291" y="509" on="1"/>
        <pt x="342" y="509" on="0"/>
        <pt x="429" y="470" on="0"/>
        <pt x="492" y="402" on="0"/>
        <pt x="528" y="307" on="0"/>
        <pt x="528" y="251" on="1"/>
        <pt x="528" y="223" on="1"/>
        <pt x="158" y="223" on="1"/>
        <pt x="166" y="164" on="0"/>
        <pt x="251" y="86" on="0"/>
        <pt x="308" y="86" on="1"/>
        <pt x="343" y="86" on="0"/>
        <pt x="406" y="111" on="0"/>
        <pt x="427" y="133" on="1"/>
        <pt x="501" y="64" on="1"/>
        <pt x="471" y="39" on="0"/>
        <pt x="410" y="6" on="0"/>
        <pt x="376" y="-2" on="1"/>
        <pt x="328" y="-33" on="0"/>
        <pt x="283" y="-88" on="0"/>
        <pt x="283" y="-116" on="1"/>
        <pt x="283" y="-141" on="0"/>
        <pt x="315" y="-169" on="0"/>
        <pt x="342" y="-169" on="1"/>
        <pt x="355" y="-169" on="0"/>
        <pt x="381" y="-163" on="0"/>
        <pt x="389" y="-157" on="1"/>
      </contour>
      <contour>
        <pt x="290" y="417" on="1"/>
        <pt x="240" y="417" on="0"/>
        <pt x="170" y="349" on="0"/>
        <pt x="160" y="292" on="1"/>
        <pt x="421" y="292" on="1"/>
        <pt x="411" y="347" on="0"/>
        <pt x="340" y="417" on="0"/>
      </contour>
    </TTGlyph>
    <TTGlyph name="equal" xMin="62" yMin="219" xMax="482" yMax="489">
      <component glyphName="minus" x="0" y="-94" flags="0x4"/>
      <component glyphName="minus" x="0" y="86" flags="0x4"/>
    </TTGlyph>
    <TTGlyph name="eth" xMin="47" yMin="-9" xMax="543" yMax="746">
      <contour>
        <pt x="250" y="517" on="1"/>
        <pt x="211" y="575" on="1"/>
        <pt x="284" y="623" on="1"/>
        <pt x="264" y="636" on="0"/>
        <pt x="219" y="660" on="0"/>
        <pt x="195" y="669" on="1"/>
        <pt x="248" y="746" on="1"/>
        <pt x="282" y="733" on="0"/>
        <pt x="342" y="699" on="0"/>
        <pt x="368" y="679" on="1"/>
        <pt x="463" y="742" on="1"/>
        <pt x="502" y="685" on="1"/>
        <pt x="421" y="631" on="1"/>
        <pt x="480" y="568" on="0"/>
        <pt x="543" y="401" on="0"/>
        <pt x="543" y="303" on="1"/>
        <pt x="543" y="232" on="0"/>
        <pt x="507" y="116" on="0"/>
        <pt x="441" y="35" on="0"/>
        <pt x="346" y="-9" on="0"/>
        <pt x="288" y="-9" on="1"/>
        <pt x="238" y="-9" on="0"/>
        <pt x="149" y="29" on="0"/>
        <pt x="85" y="95" on="0"/>
        <pt x="47" y="185" on="0"/>
        <pt x="47" y="237" on="1"/>
        <pt x="47" y="286" on="0"/>
        <pt x="81" y="372" on="0"/>
        <pt x="140" y="435" on="0"/>
        <pt x="221" y="470" on="0"/>
        <pt x="267" y="470" on="1"/>
        <pt x="324" y="471" on="0"/>
        <pt x="415" y="418" on="0"/>
        <pt x="437" y="375" on="1"/>
        <pt x="429" y="432" on="0"/>
        <pt x="379" y="536" on="0"/>
        <pt x="339" y="576" on="1"/>
      </contour>
      <contour>
        <pt x="293" y="87" on="1"/>
        <pt x="350" y="87" on="0"/>
        <pt x="429" y="174" on="0"/>
        <pt x="429" y="236" on="1"/>
        <pt x="429" y="297" on="0"/>
        <pt x="349" y="384" on="0"/>
        <pt x="292" y="384" on="1"/>
        <pt x="234" y="384" on="0"/>
        <pt x="153" y="298" on="0"/>
        <pt x="153" y="236" on="1"/>
        <pt x="153" y="174" on="0"/>
        <pt x="234" y="87" on="0"/>
      </contour>
    </TTGlyph>
    <TTGlyph name="exclam" xMin="53" yMin="-9" xMax="191" yMax="730">
      <contour>
        <pt x="80" y="215" on="1"/>
        <pt x="67" y="730" on="1"/>
        <pt x="178" y="730" on="1"/>
        <pt x="165" y="215" on="1"/>
      </contour>
      <contour>
        <pt x="122" y="-9" on="1"/>
        <pt x="94" y="-9" on="0"/>
        <pt x="53" y="32" on="0"/>
        <pt x="53" y="61" on="1"/>
        <pt x="53" y="90" on="0"/>
        <pt x="94" y="131" on="0"/>
        <pt x="122" y="131" on="1"/>
        <pt x="150" y="131" on="0"/>
        <pt x="191" y="90" on="0"/>
        <pt x="191" y="61" on="1"/>
        <pt x="191" y="32" on="0"/>
        <pt x="150" y="-9" on="0"/>
      </contour>
    </TTGlyph>
    <TTGlyph name="exclamdown" xMin="54" yMin="-27" xMax="192" yMax="712">
      <contour>
        <pt x="165" y="488" on="1"/>
        <pt x="178" y="-27" on="1"/>
        <pt x="67" y="-27" on="1"/>
        <pt x="80" y="488" on="1"/>
      </contour>
      <contour>
        <pt x="123" y="712" on="1"/>
        <pt x="151" y="712" on="0"/>
        <pt x="192" y="671" on="0"/>
        <pt x="192" y="642" on="1"/>
        <pt x="192" y="613" on="0"/>
        <pt x="151" y="572" on="0"/>
        <pt x="123" y="572" on="1"/>
        <pt x="95" y="572" on="0"/>
        <pt x="54" y="613" on="0"/>
        <pt x="54" y="642" on="1"/>
        <pt x="54" y="671" on="0"/>
        <pt x="95" y="712" on="0"/>
      </contour>
    </TTGlyph>
    <TTGlyph name="f" xMin="30" yMin="0" xMax="386" yMax="758">
      <contour>
        <pt x="30" y="501" on="1"/>
        <pt x="138" y="501" on="1"/>
        <pt x="138" y="590" on="1"/>
        <pt x="138" y="671" on="0"/>
        <pt x="227" y="758" on="0"/>
        <pt x="311" y="758" on="1"/>
        <pt x="331" y="758" on="0"/>
        <pt x="372" y="752" on="0"/>
        <pt x="386" y="748" on="1"/>
        <pt x="386" y="652" on="1"/>
        <pt x="367" y="656" on="0"/>
        <pt x="341" y="660" on="0"/>
        <pt x="326" y="660" on="1"/>
        <pt x="287" y="660" on="0"/>
        <pt x="251" y="625" on="0"/>
        <pt x="251" y="588" on="1"/>
        <pt x="251" y="501" on="1"/>
        <pt x="386" y="501" on="1"/>
        <pt x="386" y="411" on="1"/>
        <pt x="251" y="411" on="1"/>
        <pt x="251" y="0" on="1"/>
        <pt x="138" y="0" on="1"/>
        <pt x="138" y="411" on="1"/>
        <pt x="30" y="411" on="1"/>
      </contour>
    </TTGlyph>
    <TTGlyph name="fi" xMin="30" yMin="0" xMax="606" yMax="758">
      <component glyphName="f" x="0" y="0" flags="0x4"/>
      <component glyphName="i" x="409" y="0" flags="0x4"/>
    </TTGlyph>
    <TTGlyph name="five" xMin="34" yMin="-11" xMax="545" yMax="700">
      <contour>
        <pt x="66" y="338" on="1"/>
        <pt x="82" y="700" on="1"/>
        <pt x="508" y="700" on="1"/>
        <pt x="508" y="606" on="1"/>
        <pt x="175" y="606" on="1"/>
        <pt x="166" y="403" on="1"/>
        <pt x="201" y="421" on="0"/>
        <pt x="273" y="438" on="0"/>
        <pt x="312" y="438" on="1"/>
        <pt x="416" y="438" on="0"/>
        <pt x="545" y="321" on="0"/>
        <pt x="545" y="226" on="1"/>
        <pt x="545" y="173" on="0"/>
        <pt x="506" y="86" on="0"/>
        <pt x="437" y="24" on="0"/>
        <pt x="339" y="-11" on="0"/>
        <pt x="280" y="-11" on="1"/>
        <pt x="210" y="-11" on="0"/>
        <pt x="85" y="37" on="0"/>
        <pt x="34" y="84" on="1"/>
        <pt x="100" y="159" on="1"/>
        <pt x="145" y="119" on="0"/>
        <pt x="233" y="84" on="0"/>
        <pt x="284" y="84" on="1"/>
        <pt x="350" y="84" on="0"/>
        <pt x="433" y="160" on="0"/>
        <pt x="433" y="221" on="1"/>
        <pt x="433" y="278" on="0"/>
        <pt x="347" y="352" on="0"/>
        <pt x="281" y="352" on="1"/>
        <pt x="246" y="352" on="0"/>
        <pt x="179" y="334" on="0"/>
        <pt x="142" y="315" on="1"/>
      </contour>
    </TTGlyph>
    <TTGlyph name="fl" xMin="30" yMin="0" xMax="592" yMax="758">
      <component glyphName="f" x="0" y="0" flags="0x4"/>
      <component glyphName="l" x="409" y="0" flags="0x4"/>
    </TTGlyph>
    <TTGlyph name="four" xMin="40" yMin="0" xMax="615" yMax="700">
      <contour>
        <pt x="525" y="700" on="1"/>
        <pt x="525" y="267" on="1"/>
        <pt x="615" y="267" on="1"/>
        <pt x="615" y="173" on="1"/>
        <pt x="525" y="173" on="1"/>
        <pt x="525" y="0" on="1"/>
        <pt x="416" y="0" on="1"/>
        <pt x="416" y="173" on="1"/>
        <pt x="40" y="173" on="1"/>
        <pt x="40" y="262" on="1"/>
        <pt x="401" y="700" on="1"/>
      </contour>
      <contour>
        <pt x="157" y="267" on="1"/>
        <pt x="416" y="267" on="1"/>
        <pt x="416" y="583" on="1"/>
      </contour>
    </TTGlyph>
    <TTGlyph name="fraction" xMin="24" yMin="0" xMax="503" yMax="700">
      <contour>
        <pt x="107" y="0" on="1"/>
        <pt x="24" y="0" on="1"/>
        <pt x="419" y="700" on="1"/>
        <pt x="503" y="700" on="1"/>
      </contour>
    </TTGlyph>
    <TTGlyph name="g" xMin="47" yMin="-217" xMax="540" yMax="505">
      <contour>
        <pt x="274" y="-3" on="1"/>
        <pt x="227" y="-3" on="0"/>
        <pt x="143" y="37" on="0"/>
        <pt x="82" y="105" on="0"/>
        <pt x="47" y="198" on="0"/>
        <pt x="47" y="251" on="1"/>
        <pt x="47" y="304" on="0"/>
        <pt x="83" y="398" on="0"/>
        <pt x="146" y="466" on="0"/>
        <pt x="232" y="505" on="0"/>
        <pt x="281" y="505" on="1"/>
        <pt x="324" y="505" on="0"/>
        <pt x="400" y="470" on="0"/>
        <pt x="428" y="437" on="1"/>
        <pt x="428" y="501" on="1"/>
        <pt x="540" y="501" on="1"/>
        <pt x="540" y="-17" on="1"/>
        <pt x="540" y="-113" on="0"/>
        <pt x="417" y="-217" on="0"/>
        <pt x="304" y="-217" on="1"/>
        <pt x="250" y="-217" on="0"/>
        <pt x="147" y="-192" on="0"/>
        <pt x="103" y="-169" on="1"/>
        <pt x="143" y="-85" on="1"/>
        <pt x="186" y="-107" on="0"/>
        <pt x="262" y="-128" on="0"/>
        <pt x="299" y="-128" on="1"/>
        <pt x="362" y="-128" on="0"/>
        <pt x="427" y="-71" on="0"/>
        <pt x="427" y="-17" on="1"/>
        <pt x="427" y="68" on="1"/>
        <pt x="401" y="35" on="0"/>
        <pt x="320" y="-3" on="0"/>
      </contour>
      <contour>
        <pt x="159" y="251" on="1"/>
        <pt x="159" y="183" on="0"/>
        <pt x="245" y="91" on="0"/>
        <pt x="308" y="91" on="1"/>
        <pt x="344" y="91" on="0"/>
        <pt x="405" y="119" on="0"/>
        <pt x="427" y="146" on="1"/>
        <pt x="427" y="356" on="1"/>
        <pt x="405" y="381" on="0"/>
        <pt x="343" y="410" on="0"/>
        <pt x="308" y="410" on="1"/>
        <pt x="244" y="410" on="0"/>
        <pt x="159" y="320" on="0"/>
      </contour>
    </TTGlyph>
    <TTGlyph name="g.alt" xMin="33" yMin="-219" xMax="578" yMax="544">
      <contour>
        <pt x="61" y="322" on="1"/>
        <pt x="61" y="361" on="0"/>
        <pt x="95" y="429" on="0"/>
        <pt x="155" y="480" on="0"/>
        <pt x="236" y="509" on="0"/>
        <pt x="282" y="509" on="1"/>
        <pt x="330" y="509" on="0"/>
        <pt x="413" y="478" on="0"/>
        <pt x="443" y="451" on="1"/>
        <pt x="457" y="497" on="0"/>
        <pt x="512" y="544" on="0"/>
        <pt x="550" y="544" on="1"/>
        <pt x="558" y="544" on="0"/>
        <pt x="571" y="542" on="0"/>
        <pt x="578" y="540" on="1"/>
        <pt x="578" y="444" on="1"/>
        <pt x="568" y="448" on="0"/>
        <pt x="544" y="451" on="0"/>
        <pt x="531" y="451" on="1"/>
        <pt x="512" y="451" on="0"/>
        <pt x="478" y="438" on="0"/>
        <pt x="467" y="426" on="1"/>
        <pt x="484" y="404" on="0"/>
        <pt x="503" y="351" on="0"/>
        <pt x="503" y="322" on="1"/>
        <pt x="503" y="282" on="0"/>
        <pt x="469" y="214" on="0"/>
        <pt x="410" y="165" on="0"/>
        <pt x="329" y="137" on="0"/>
        <pt x="282" y="137" on="1"/>
        <pt x="265" y="137" on="0"/>
        <pt x="232" y="141" on="0"/>
        <pt x="217" y="145" on="1"/>
        <pt x="198" y="138" on="0"/>
        <pt x="175" y="115" on="0"/>
        <pt x="175" y="101" on="1"/>
        <pt x="175" y="84" on="0"/>
        <pt x="202" y="66" on="0"/>
        <pt x="230" y="65" on="1"/>
        <pt x="416" y="57" on="1"/>
        <pt x="487" y="54" on="0"/>
        <pt x="566" y="-5" on="0"/>
        <pt x="566" y="-55" on="1"/>
        <pt x="566" y="-130" on="0"/>
        <pt x="409" y="-219" on="0"/>
        <pt x="276" y="-219" on="1"/>
        <pt x="160" y="-219" on="0"/>
        <pt x="33" y="-159" on="0"/>
        <pt x="33" y="-103" on="1"/>
        <pt x="33" y="-74" on="0"/>
        <pt x="92" y="-30" on="0"/>
        <pt x="146" y="-20" on="1"/>
        <pt x="114" y="-7" on="0"/>
        <pt x="80" y="35" on="0"/>
        <pt x="80" y="63" on="1"/>
        <pt x="80" y="97" on="0"/>
        <pt x="134" y="147" on="0"/>
        <pt x="179" y="157" on="1"/>
        <pt x="126" y="179" on="0"/>
        <pt x="61" y="268" on="0"/>
      </contour>
      <contour>
        <pt x="395" y="322" on="1"/>
        <pt x="395" y="367" on="0"/>
        <pt x="330" y="428" on="0"/>
        <pt x="282" y="428" on="1"/>
        <pt x="234" y="428" on="0"/>
        <pt x="169" y="367" on="0"/>
        <pt x="169" y="322" on="1"/>
        <pt x="169" y="276" on="0"/>
        <pt x="233" y="215" on="0"/>
        <pt x="282" y="215" on="1"/>
        <pt x="330" y="215" on="0"/>
        <pt x="395" y="276" on="0"/>
      </contour>
      <contour>
        <pt x="136" y="-82" on="1"/>
        <pt x="136" y="-113" on="0"/>
        <pt x="206" y="-146" on="0"/>
        <pt x="272" y="-146" on="1"/>
        <pt x="355" y="-146" on="0"/>
        <pt x="453" y="-108" on="0"/>
        <pt x="453" y="-77" on="1"/>
        <pt x="453" y="-61" on="0"/>
        <pt x="427" y="-42" on="0"/>
        <pt x="400" y="-41" on="1"/>
        <pt x="230" y="-35" on="1"/>
        <pt x="218" y="-34" on="0"/>
        <pt x="197" y="-32" on="0"/>
        <pt x="187" y="-31" on="1"/>
        <pt x="163" y="-38" on="0"/>
        <pt x="136" y="-65" on="0"/>
      </contour>
    </TTGlyph>
    <TTGlyph name="gbreve" xMin="47" yMin="-217" xMax="540" yMax="740">
      <component glyphName="g" x="0" y="0" flags="0x204"/>
      <component glyphName="breve" x="45" y="0" flags="0x4"/>
    </TTGlyph>
    <TTGlyph name="gbreve.alt" xMin="33" yMin="-219" xMax="578" yMax="740">
      <component glyphName="g.alt" x="0" y="0" flags="0x204"/>
      <component glyphName="breve" x="20" y="0" flags="0x4"/>
    </TTGlyph>
    <TTGlyph name="gcircumflex" xMin="47" yMin="-217" xMax="540" yMax="726">
      <component glyphName="g" x="0" y="0" flags="0x204"/>
      <component glyphName="circumflex" x="45" y="0" flags="0x4"/>
    </TTGlyph>
    <TTGlyph name="gcircumflex.alt" xMin="33" yMin="-219" xMax="578" yMax="726">
      <component glyphName="g.alt" x="0" y="0" flags="0x204"/>
      <component glyphName="circumflex" x="20" y="0" flags="0x4"/>
    </TTGlyph>
    <TTGlyph name="gcommaaccent" xMin="47" yMin="-217" xMax="540" yMax="817">
      <contour>
        <pt x="336" y="617" on="1"/>
        <pt x="231" y="617" on="1"/>
        <pt x="312" y="817" on="1"/>
        <pt x="392" y="817" on="1"/>
      </contour>
      <contour>
        <pt x="274" y="-3" on="1"/>
        <pt x="227" y="-3" on="0"/>
        <pt x="143" y="37" on="0"/>
        <pt x="82" y="105" on="0"/>
        <pt x="47" y="198" on="0"/>
        <pt x="47" y="251" on="1"/>
        <pt x="47" y="304" on="0"/>
        <pt x="83" y="398" on="0"/>
        <pt x="146" y="466" on="0"/>
        <pt x="232" y="505" on="0"/>
        <pt x="281" y="505" on="1"/>
        <pt x="324" y="505" on="0"/>
        <pt x="400" y="470" on="0"/>
        <pt x="428" y="437" on="1"/>
        <pt x="428" y="501" on="1"/>
        <pt x="540" y="501" on="1"/>
        <pt x="540" y="-17" on="1"/>
        <pt x="540" y="-113" on="0"/>
        <pt x="417" y="-217" on="0"/>
        <pt x="304" y="-217" on="1"/>
        <pt x="250" y="-217" on="0"/>
        <pt x="147" y="-192" on="0"/>
        <pt x="103" y="-169" on="1"/>
        <pt x="143" y="-85" on="1"/>
        <pt x="186" y="-107" on="0"/>
        <pt x="262" y="-128" on="0"/>
        <pt x="299" y="-128" on="1"/>
        <pt x="362" y="-128" on="0"/>
        <pt x="427" y="-71" on="0"/>
        <pt x="427" y="-17" on="1"/>
        <pt x="427" y="68" on="1"/>
        <pt x="401" y="35" on="0"/>
        <pt x="320" y="-3" on="0"/>
      </contour>
      <contour>
        <pt x="159" y="251" on="1"/>
        <pt x="159" y="183" on="0"/>
        <pt x="245" y="91" on="0"/>
        <pt x="308" y="91" on="1"/>
        <pt x="344" y="91" on="0"/>
        <pt x="405" y="119" on="0"/>
        <pt x="427" y="146" on="1"/>
        <pt x="427" y="356" on="1"/>
        <pt x="405" y="381" on="0"/>
        <pt x="343" y="410" on="0"/>
        <pt x="308" y="410" on="1"/>
        <pt x="244" y="410" on="0"/>
        <pt x="159" y="320" on="0"/>
      </contour>
    </TTGlyph>
    <TTGlyph name="gcommaaccent.alt" xMin="33" yMin="-219" xMax="578" yMax="817">
      <contour>
        <pt x="334" y="617" on="1"/>
        <pt x="229" y="617" on="1"/>
        <pt x="310" y="817" on="1"/>
        <pt x="390" y="817" on="1"/>
      </contour>
      <contour>
        <pt x="61" y="322" on="1"/>
        <pt x="61" y="361" on="0"/>
        <pt x="95" y="429" on="0"/>
        <pt x="155" y="480" on="0"/>
        <pt x="236" y="509" on="0"/>
        <pt x="282" y="509" on="1"/>
        <pt x="330" y="509" on="0"/>
        <pt x="413" y="478" on="0"/>
        <pt x="443" y="451" on="1"/>
        <pt x="457" y="497" on="0"/>
        <pt x="512" y="544" on="0"/>
        <pt x="550" y="544" on="1"/>
        <pt x="558" y="544" on="0"/>
        <pt x="571" y="542" on="0"/>
        <pt x="578" y="540" on="1"/>
        <pt x="578" y="444" on="1"/>
        <pt x="568" y="448" on="0"/>
        <pt x="544" y="451" on="0"/>
        <pt x="531" y="451" on="1"/>
        <pt x="512" y="451" on="0"/>
        <pt x="478" y="438" on="0"/>
        <pt x="467" y="426" on="1"/>
        <pt x="484" y="404" on="0"/>
        <pt x="503" y="351" on="0"/>
        <pt x="503" y="322" on="1"/>
        <pt x="503" y="282" on="0"/>
        <pt x="469" y="214" on="0"/>
        <pt x="410" y="165" on="0"/>
        <pt x="329" y="137" on="0"/>
        <pt x="282" y="137" on="1"/>
        <pt x="265" y="137" on="0"/>
        <pt x="232" y="141" on="0"/>
        <pt x="217" y="145" on="1"/>
        <pt x="198" y="138" on="0"/>
        <pt x="175" y="115" on="0"/>
        <pt x="175" y="101" on="1"/>
        <pt x="175" y="84" on="0"/>
        <pt x="202" y="66" on="0"/>
        <pt x="230" y="65" on="1"/>
        <pt x="416" y="57" on="1"/>
        <pt x="487" y="54" on="0"/>
        <pt x="566" y="-5" on="0"/>
        <pt x="566" y="-55" on="1"/>
        <pt x="566" y="-130" on="0"/>
        <pt x="409" y="-219" on="0"/>
        <pt x="276" y="-219" on="1"/>
        <pt x="160" y="-219" on="0"/>
        <pt x="33" y="-159" on="0"/>
        <pt x="33" y="-103" on="1"/>
        <pt x="33" y="-74" on="0"/>
        <pt x="92" y="-30" on="0"/>
        <pt x="146" y="-20" on="1"/>
        <pt x="114" y="-7" on="0"/>
        <pt x="80" y="35" on="0"/>
        <pt x="80" y="63" on="1"/>
        <pt x="80" y="97" on="0"/>
        <pt x="134" y="147" on="0"/>
        <pt x="179" y="157" on="1"/>
        <pt x="126" y="179" on="0"/>
        <pt x="61" y="268" on="0"/>
      </contour>
      <contour>
        <pt x="395" y="322" on="1"/>
        <pt x="395" y="367" on="0"/>
        <pt x="330" y="428" on="0"/>
        <pt x="282" y="428" on="1"/>
        <pt x="234" y="428" on="0"/>
        <pt x="169" y="367" on="0"/>
        <pt x="169" y="322" on="1"/>
        <pt x="169" y="276" on="0"/>
        <pt x="233" y="215" on="0"/>
        <pt x="282" y="215" on="1"/>
        <pt x="330" y="215" on="0"/>
        <pt x="395" y="276" on="0"/>
      </contour>
      <contour>
        <pt x="136" y="-82" on="1"/>
        <pt x="136" y="-113" on="0"/>
        <pt x="206" y="-146" on="0"/>
        <pt x="272" y="-146" on="1"/>
        <pt x="355" y="-146" on="0"/>
        <pt x="453" y="-108" on="0"/>
        <pt x="453" y="-77" on="1"/>
        <pt x="453" y="-61" on="0"/>
        <pt x="427" y="-42" on="0"/>
        <pt x="400" y="-41" on="1"/>
        <pt x="230" y="-35" on="1"/>
        <pt x="218" y="-34" on="0"/>
        <pt x="197" y="-32" on="0"/>
        <pt x="187" y="-31" on="1"/>
        <pt x="163" y="-38" on="0"/>
        <pt x="136" y="-65" on="0"/>
      </contour>
    </TTGlyph>
    <TTGlyph name="gdotaccent" xMin="47" yMin="-217" xMax="540" yMax="731">
      <component glyphName="g" x="0" y="0" flags="0x204"/>
      <component glyphName="dotaccent" x="157" y="0" flags="0x4"/>
    </TTGlyph>
    <TTGlyph name="gdotaccent.alt" xMin="33" yMin="-219" xMax="578" yMax="731">
      <component glyphName="g.alt" x="0" y="0" flags="0x204"/>
      <component glyphName="dotaccent" x="132" y="0" flags="0x4"/>
    </TTGlyph>
    <TTGlyph name="germandbls" xMin="68" yMin="-11" xMax="646" yMax="761">
      <contour>
        <pt x="398" y="375" on="1"/>
        <pt x="398" y="358" on="0"/>
        <pt x="419" y="338" on="0"/>
        <pt x="447" y="328" on="1"/>
        <pt x="519" y="302" on="1"/>
        <pt x="585" y="279" on="0"/>
        <pt x="646" y="207" on="0"/>
        <pt x="646" y="153" on="1"/>
        <pt x="646" y="79" on="0"/>
        <pt x="539" y="-11" on="0"/>
        <pt x="451" y="-11" on="1"/>
        <pt x="392" y="-11" on="0"/>
        <pt x="299" y="20" on="0"/>
        <pt x="259" y="54" on="1"/>
        <pt x="312" y="126" on="1"/>
        <pt x="343" y="100" on="0"/>
        <pt x="412" y="72" on="0"/>
        <pt x="448" y="72" on="1"/>
        <pt x="491" y="72" on="0"/>
        <pt x="543" y="114" on="0"/>
        <pt x="543" y="148" on="1"/>
        <pt x="543" y="176" on="0"/>
        <pt x="509" y="211" on="0"/>
        <pt x="468" y="224" on="1"/>
        <pt x="390" y="250" on="1"/>
        <pt x="338" y="267" on="0"/>
        <pt x="290" y="319" on="0"/>
        <pt x="290" y="359" on="1"/>
        <pt x="290" y="405" on="0"/>
        <pt x="340" y="457" on="0"/>
        <pt x="399" y="496" on="0"/>
        <pt x="449" y="538" on="0"/>
        <pt x="449" y="573" on="1"/>
        <pt x="449" y="613" on="0"/>
        <pt x="379" y="666" on="0"/>
        <pt x="325" y="666" on="1"/>
        <pt x="255" y="666" on="0"/>
        <pt x="180" y="579" on="0"/>
        <pt x="180" y="498" on="1"/>
        <pt x="180" y="0" on="1"/>
        <pt x="68" y="0" on="1"/>
        <pt x="68" y="500" on="1"/>
        <pt x="68" y="622" on="0"/>
        <pt x="204" y="761" on="0"/>
        <pt x="323" y="761" on="1"/>
        <pt x="430" y="761" on="0"/>
        <pt x="561" y="662" on="0"/>
        <pt x="561" y="581" on="1"/>
        <pt x="561" y="531" on="0"/>
        <pt x="510" y="471" on="0"/>
        <pt x="449" y="430" on="0"/>
        <pt x="398" y="397" on="0"/>
      </contour>
    </TTGlyph>
    <TTGlyph name="grave" xMin="97" yMin="591" xMax="368" yMax="724">
      <contour>
        <pt x="245" y="724" on="1"/>
        <pt x="368" y="591" on="1"/>
        <pt x="263" y="591" on="1"/>
        <pt x="97" y="724" on="1"/>
      </contour>
    </TTGlyph>
    <TTGlyph name="greater" xMin="85" yMin="76" xMax="479" yMax="620">
      <contour>
        <pt x="144" y="620" on="1"/>
        <pt x="479" y="348" on="1"/>
        <pt x="144" y="76" on="1"/>
        <pt x="86" y="143" on="1"/>
        <pt x="345" y="347" on="1"/>
        <pt x="85" y="551" on="1"/>
      </contour>
    </TTGlyph>
    <TTGlyph name="guillemotleft" xMin="37" yMin="0" xMax="634" yMax="501">
      <component glyphName="guilsinglleft" x="0" y="0" flags="0x4"/>
      <component glyphName="guilsinglleft" x="254" y="0" flags="0x4"/>
    </TTGlyph>
    <TTGlyph name="guillemotright" xMin="46" yMin="0" xMax="642" yMax="501">
      <contour>
        <pt x="302" y="0" on="1"/>
        <pt x="523" y="248" on="1"/>
        <pt x="299" y="501" on="1"/>
        <pt x="414" y="501" on="1"/>
        <pt x="642" y="250" on="1"/>
        <pt x="414" y="0" on="1"/>
      </contour>
      <contour>
        <pt x="49" y="0" on="1"/>
        <pt x="270" y="248" on="1"/>
        <pt x="46" y="501" on="1"/>
        <pt x="161" y="501" on="1"/>
        <pt x="389" y="250" on="1"/>
        <pt x="161" y="0" on="1"/>
      </contour>
    </TTGlyph>
    <TTGlyph name="guilsinglleft" xMin="37" yMin="0" xMax="380" yMax="501">
      <contour>
        <pt x="377" y="501" on="1"/>
        <pt x="156" y="253" on="1"/>
        <pt x="380" y="0" on="1"/>
        <pt x="265" y="0" on="1"/>
        <pt x="37" y="251" on="1"/>
        <pt x="265" y="501" on="1"/>
      </contour>
    </TTGlyph>
    <TTGlyph name="guilsinglright" xMin="46" yMin="0" xMax="389" yMax="501">
      <contour>
        <pt x="49" y="0" on="1"/>
        <pt x="270" y="248" on="1"/>
        <pt x="46" y="501" on="1"/>
        <pt x="161" y="501" on="1"/>
        <pt x="389" y="250" on="1"/>
        <pt x="161" y="0" on="1"/>
      </contour>
    </TTGlyph>
    <TTGlyph name="h" xMin="70" yMin="0" xMax="515" yMax="734">
      <contour>
        <pt x="70" y="0" on="1"/>
        <pt x="70" y="715" on="1"/>
        <pt x="183" y="734" on="1"/>
        <pt x="183" y="419" on="1"/>
        <pt x="211" y="463" on="0"/>
        <pt x="292" y="509" on="0"/>
        <pt x="342" y="509" on="1"/>
        <pt x="418" y="509" on="0"/>
        <pt x="515" y="408" on="0"/>
        <pt x="515" y="330" on="1"/>
        <pt x="515" y="0" on="1"/>
        <pt x="402" y="0" on="1"/>
        <pt x="402" y="298" on="1"/>
        <pt x="402" y="352" on="0"/>
        <pt x="342" y="418" on="0"/>
        <pt x="292" y="418" on="1"/>
        <pt x="258" y="418" on="0"/>
        <pt x="203" y="387" on="0"/>
        <pt x="183" y="358" on="1"/>
        <pt x="183" y="0" on="1"/>
      </contour>
    </TTGlyph>
    <TTGlyph name="hbar" xMin="17" yMin="0" xMax="523" yMax="734">
      <contour>
        <pt x="78" y="0" on="1"/>
        <pt x="78" y="567" on="1"/>
        <pt x="17" y="567" on="1"/>
        <pt x="17" y="634" on="1"/>
        <pt x="78" y="634" on="1"/>
        <pt x="78" y="715" on="1"/>
        <pt x="191" y="734" on="1"/>
        <pt x="191" y="634" on="1"/>
        <pt x="317" y="634" on="1"/>
        <pt x="317" y="567" on="1"/>
        <pt x="191" y="567" on="1"/>
        <pt x="191" y="419" on="1"/>
        <pt x="219" y="463" on="0"/>
        <pt x="300" y="509" on="0"/>
        <pt x="350" y="509" on="1"/>
        <pt x="426" y="509" on="0"/>
        <pt x="523" y="408" on="0"/>
        <pt x="523" y="330" on="1"/>
        <pt x="523" y="0" on="1"/>
        <pt x="410" y="0" on="1"/>
        <pt x="410" y="298" on="1"/>
        <pt x="410" y="352" on="0"/>
        <pt x="350" y="418" on="0"/>
        <pt x="300" y="418" on="1"/>
        <pt x="266" y="418" on="0"/>
        <pt x="211" y="387" on="0"/>
        <pt x="191" y="358" on="1"/>
        <pt x="191" y="0" on="1"/>
      </contour>
    </TTGlyph>
    <TTGlyph name="hcircumflex" xMin="-54" yMin="0" xMax="515" yMax="925">
      <contour>
        <pt x="211" y="787" on="1"/>
        <pt x="122" y="873" on="1"/>
        <pt x="34" y="787" on="1"/>
        <pt x="-54" y="787" on="1"/>
        <pt x="67" y="925" on="1"/>
        <pt x="180" y="925" on="1"/>
        <pt x="300" y="787" on="1"/>
      </contour>
      <contour>
        <pt x="70" y="0" on="1"/>
        <pt x="70" y="712" on="1"/>
        <pt x="183" y="712" on="1"/>
        <pt x="183" y="419" on="1"/>
        <pt x="211" y="462" on="0"/>
        <pt x="291" y="509" on="0"/>
        <pt x="342" y="509" on="1"/>
        <pt x="419" y="509" on="0"/>
        <pt x="515" y="408" on="0"/>
        <pt x="515" y="330" on="1"/>
        <pt x="515" y="0" on="1"/>
        <pt x="402" y="0" on="1"/>
        <pt x="402" y="298" on="1"/>
        <pt x="402" y="352" on="0"/>
        <pt x="343" y="418" on="0"/>
        <pt x="292" y="418" on="1"/>
        <pt x="258" y="418" on="0"/>
        <pt x="202" y="387" on="0"/>
        <pt x="183" y="358" on="1"/>
        <pt x="183" y="0" on="1"/>
      </contour>
    </TTGlyph>
    <TTGlyph name="hungarumlaut" xMin="87" yMin="592" xMax="529" yMax="724">
      <contour>
        <pt x="219" y="724" on="1"/>
        <pt x="330" y="724" on="1"/>
        <pt x="180" y="592" on="1"/>
        <pt x="87" y="592" on="1"/>
      </contour>
      <contour>
        <pt x="416" y="724" on="1"/>
        <pt x="529" y="724" on="1"/>
        <pt x="372" y="592" on="1"/>
        <pt x="284" y="592" on="1"/>
      </contour>
    </TTGlyph>
    <TTGlyph name="hyphen" xMin="57" yMin="236" xMax="405" yMax="331">
      <contour>
        <pt x="57" y="331" on="1"/>
        <pt x="405" y="331" on="1"/>
        <pt x="405" y="236" on="1"/>
        <pt x="57" y="236" on="1"/>
      </contour>
    </TTGlyph>
    <TTGlyph name="hyphen.cap" xMin="57" yMin="301" xMax="405" yMax="396">
      <component glyphName="hyphen" x="0" y="65" flags="0x4"/>
    </TTGlyph>
    <TTGlyph name="i" xMin="56" yMin="0" xMax="197" yMax="742">
      <contour>
        <pt x="126" y="603" on="1"/>
        <pt x="97" y="603" on="0"/>
        <pt x="56" y="643" on="0"/>
        <pt x="56" y="672" on="1"/>
        <pt x="56" y="700" on="0"/>
        <pt x="98" y="742" on="0"/>
        <pt x="126" y="742" on="1"/>
        <pt x="155" y="742" on="0"/>
        <pt x="197" y="700" on="0"/>
        <pt x="197" y="672" on="1"/>
        <pt x="197" y="643" on="0"/>
        <pt x="156" y="603" on="0"/>
      </contour>
      <contour>
        <pt x="183" y="501" on="1"/>
        <pt x="183" y="0" on="1"/>
        <pt x="70" y="0" on="1"/>
        <pt x="70" y="501" on="1"/>
      </contour>
    </TTGlyph>
    <TTGlyph name="iacute" xMin="59" yMin="0" xMax="324" yMax="724">
      <component glyphName="dotlessi" x="0" y="0" flags="0x204"/>
      <component glyphName="acute" x="-101" y="0" flags="0x4"/>
    </TTGlyph>
    <TTGlyph name="ibreve" xMin="-47" yMin="0" xMax="298" yMax="740">
      <component glyphName="dotlessi" x="0" y="0" flags="0x204"/>
      <component glyphName="breve" x="-135" y="0" flags="0x4"/>
    </TTGlyph>
    <TTGlyph name="icircumflex" xMin="-51" yMin="0" xMax="303" yMax="726">
      <component glyphName="dotlessi" x="0" y="0" flags="0x204"/>
      <component glyphName="circumflex" x="-135" y="0" flags="0x4"/>
    </TTGlyph>
    <TTGlyph name="idieresis" xMin="-40" yMin="0" xMax="292" yMax="731">
      <component glyphName="dotlessi" x="0" y="0" flags="0x204"/>
      <component glyphName="dieresis" x="-160" y="0" flags="0x4"/>
    </TTGlyph>
    <TTGlyph name="idotaccent" xMin="56" yMin="0" xMax="197" yMax="742">
      <component glyphName="i" x="0" y="0" flags="0x4"/>
    </TTGlyph>
    <TTGlyph name="igrave" xMin="-78" yMin="0" xMax="193" yMax="724">
      <component glyphName="dotlessi" x="0" y="0" flags="0x204"/>
      <component glyphName="grave" x="-175" y="0" flags="0x4"/>
    </TTGlyph>
    <TTGlyph name="ij" xMin="56" yMin="-217" xMax="448" yMax="742">
      <component glyphName="i" x="0" y="0" flags="0x4"/>
      <component glyphName="j" x="251" y="0" flags="0x4"/>
    </TTGlyph>
    <TTGlyph name="imacron" xMin="-20" yMin="0" xMax="279" yMax="692">
      <component glyphName="dotlessi" x="0" y="0" flags="0x204"/>
      <component glyphName="macron" x="-135" y="0" flags="0x4"/>
    </TTGlyph>
    <TTGlyph name="iogonek" xMin="21" yMin="-231" xMax="209" yMax="742">
      <contour>
        <pt x="126" y="603" on="1"/>
        <pt x="97" y="603" on="0"/>
        <pt x="56" y="643" on="0"/>
        <pt x="56" y="672" on="1"/>
        <pt x="56" y="700" on="0"/>
        <pt x="98" y="742" on="0"/>
        <pt x="126" y="742" on="1"/>
        <pt x="155" y="742" on="0"/>
        <pt x="197" y="700" on="0"/>
        <pt x="197" y="672" on="1"/>
        <pt x="197" y="643" on="0"/>
        <pt x="156" y="603" on="0"/>
      </contour>
      <contour>
        <pt x="183" y="0" on="1"/>
        <pt x="134" y="-31" on="0"/>
        <pt x="87" y="-88" on="0"/>
        <pt x="87" y="-116" on="1"/>
        <pt x="87" y="-141" on="0"/>
        <pt x="119" y="-169" on="0"/>
        <pt x="146" y="-169" on="1"/>
        <pt x="159" y="-169" on="0"/>
        <pt x="185" y="-163" on="0"/>
        <pt x="193" y="-157" on="1"/>
        <pt x="209" y="-210" on="1"/>
        <pt x="194" y="-220" on="0"/>
        <pt x="151" y="-231" on="0"/>
        <pt x="128" y="-231" on="1"/>
        <pt x="79" y="-231" on="0"/>
        <pt x="21" y="-179" on="0"/>
        <pt x="21" y="-136" on="1"/>
        <pt x="21" y="-99" on="0"/>
        <pt x="66" y="-34" on="0"/>
        <pt x="115" y="0" on="1"/>
        <pt x="70" y="0" on="1"/>
        <pt x="70" y="501" on="1"/>
        <pt x="183" y="501" on="1"/>
      </contour>
    </TTGlyph>
    <TTGlyph name="itilde" xMin="-61" yMin="0" xMax="315" yMax="726">
      <component glyphName="dotlessi" x="0" y="0" flags="0x204"/>
      <component glyphName="tilde" x="-132" y="0" flags="0x4"/>
    </TTGlyph>
    <TTGlyph name="j" xMin="-26" yMin="-217" xMax="197" yMax="742">
      <contour>
        <pt x="126" y="603" on="1"/>
        <pt x="97" y="603" on="0"/>
        <pt x="56" y="643" on="0"/>
        <pt x="56" y="672" on="1"/>
        <pt x="56" y="700" on="0"/>
        <pt x="98" y="742" on="0"/>
        <pt x="126" y="742" on="1"/>
        <pt x="155" y="742" on="0"/>
        <pt x="197" y="700" on="0"/>
        <pt x="197" y="672" on="1"/>
        <pt x="197" y="643" on="0"/>
        <pt x="156" y="603" on="0"/>
      </contour>
      <contour>
        <pt x="35" y="-217" on="1"/>
        <pt x="19" y="-217" on="0"/>
        <pt x="-15" y="-213" on="0"/>
        <pt x="-26" y="-210" on="1"/>
        <pt x="-26" y="-119" on="1"/>
        <pt x="-17" y="-121" on="0"/>
        <pt x="2" y="-123" on="0"/>
        <pt x="14" y="-123" on="1"/>
        <pt x="43" y="-123" on="0"/>
        <pt x="70" y="-97" on="0"/>
        <pt x="70" y="-69" on="1"/>
        <pt x="70" y="501" on="1"/>
        <pt x="183" y="501" on="1"/>
        <pt x="183" y="-74" on="1"/>
        <pt x="183" y="-142" on="0"/>
        <pt x="106" y="-217" on="0"/>
      </contour>
    </TTGlyph>
    <TTGlyph name="jcircumflex" xMin="-51" yMin="-217" xMax="303" yMax="726">
      <component glyphName="dotlessj" x="0" y="0" flags="0x204"/>
      <component glyphName="circumflex" x="-135" y="0" flags="0x4"/>
    </TTGlyph>
    <TTGlyph name="k" xMin="70" yMin="0" xMax="534" yMax="734">
      <contour>
        <pt x="70" y="0" on="1"/>
        <pt x="70" y="715" on="1"/>
        <pt x="183" y="734" on="1"/>
        <pt x="183" y="287" on="1"/>
        <pt x="391" y="501" on="1"/>
        <pt x="520" y="501" on="1"/>
        <pt x="291" y="269" on="1"/>
        <pt x="534" y="0" on="1"/>
        <pt x="389" y="0" on="1"/>
        <pt x="183" y="231" on="1"/>
        <pt x="183" y="0" on="1"/>
      </contour>
    </TTGlyph>
    <TTGlyph name="kcommaaccent" xMin="70" yMin="-288" xMax="534" yMax="734">
      <component glyphName="k" x="0" y="0" flags="0x204"/>
      <component glyphName="commaaccent" x="149" y="0" flags="0x4"/>
    </TTGlyph>
    <TTGlyph name="kgreenlandic" xMin="70" yMin="0" xMax="534" yMax="501">
      <contour>
        <pt x="70" y="0" on="1"/>
        <pt x="70" y="501" on="1"/>
        <pt x="183" y="501" on="1"/>
        <pt x="183" y="287" on="1"/>
        <pt x="391" y="501" on="1"/>
        <pt x="520" y="501" on="1"/>
        <pt x="291" y="269" on="1"/>
        <pt x="534" y="0" on="1"/>
        <pt x="389" y="0" on="1"/>
        <pt x="183" y="231" on="1"/>
        <pt x="183" y="0" on="1"/>
      </contour>
    </TTGlyph>
    <TTGlyph name="l" xMin="70" yMin="0" xMax="183" yMax="734">
      <contour>
        <pt x="183" y="734" on="1"/>
        <pt x="183" y="0" on="1"/>
        <pt x="70" y="0" on="1"/>
        <pt x="70" y="715" on="1"/>
      </contour>
    </TTGlyph>
    <TTGlyph name="lacute" xMin="59" yMin="0" xMax="324" yMax="920">
      <contour>
        <pt x="183" y="920" on="1"/>
        <pt x="324" y="920" on="1"/>
        <pt x="158" y="787" on="1"/>
        <pt x="59" y="787" on="1"/>
      </contour>
      <contour>
        <pt x="70" y="0" on="1"/>
        <pt x="70" y="712" on="1"/>
        <pt x="183" y="712" on="1"/>
        <pt x="183" y="0" on="1"/>
      </contour>
    </TTGlyph>
    <TTGlyph name="lcaron" xMin="85" yMin="0" xMax="393" yMax="734">
      <component glyphName="l" x="15" y="0" flags="0x4"/>
      <component glyphName="caronSlovak" x="130" y="0" flags="0x4"/>
    </TTGlyph>
    <TTGlyph name="lcommaaccent" xMin="29" yMin="-288" xMax="190" yMax="734">
      <component glyphName="l" x="0" y="0" flags="0x204"/>
      <component glyphName="commaaccent" x="-6" y="0" flags="0x4"/>
    </TTGlyph>
    <TTGlyph name="ldot" xMin="85" yMin="0" xMax="377" yMax="734">
      <component glyphName="l" x="15" y="0" flags="0x4"/>
      <component glyphName="dotaccent" x="163" y="-310" flags="0x4"/>
    </TTGlyph>
    <TTGlyph name="less" xMin="27" yMin="76" xMax="421" yMax="620">
      <contour>
        <pt x="362" y="76" on="1"/>
        <pt x="27" y="348" on="1"/>
        <pt x="362" y="620" on="1"/>
        <pt x="420" y="553" on="1"/>
        <pt x="161" y="349" on="1"/>
        <pt x="421" y="145" on="1"/>
      </contour>
    </TTGlyph>
    <TTGlyph name="lslash" xMin="1" yMin="0" xMax="299" yMax="734">
      <contour>
        <pt x="1" y="307" on="1"/>
        <pt x="95" y="376" on="1"/>
        <pt x="95" y="715" on="1"/>
        <pt x="208" y="734" on="1"/>
        <pt x="208" y="460" on="1"/>
        <pt x="299" y="527" on="1"/>
        <pt x="299" y="417" on="1"/>
        <pt x="208" y="350" on="1"/>
        <pt x="208" y="0" on="1"/>
        <pt x="95" y="0" on="1"/>
        <pt x="95" y="266" on="1"/>
        <pt x="1" y="197" on="1"/>
      </contour>
    </TTGlyph>
    <TTGlyph name="m" xMin="70" yMin="0" xMax="809" yMax="509">
      <contour>
        <pt x="70" y="0" on="1"/>
        <pt x="70" y="501" on="1"/>
        <pt x="183" y="501" on="1"/>
        <pt x="183" y="421" on="1"/>
        <pt x="211" y="464" on="0"/>
        <pt x="286" y="509" on="0"/>
        <pt x="332" y="509" on="1"/>
        <pt x="382" y="509" on="0"/>
        <pt x="460" y="456" on="0"/>
        <pt x="479" y="412" on="1"/>
        <pt x="507" y="460" on="0"/>
        <pt x="592" y="509" on="0"/>
        <pt x="645" y="509" on="1"/>
        <pt x="717" y="509" on="0"/>
        <pt x="809" y="407" on="0"/>
        <pt x="809" y="327" on="1"/>
        <pt x="809" y="0" on="1"/>
        <pt x="696" y="0" on="1"/>
        <pt x="696" y="303" on="1"/>
        <pt x="696" y="355" on="0"/>
        <pt x="641" y="418" on="0"/>
        <pt x="595" y="418" on="1"/>
        <pt x="564" y="418" on="0"/>
        <pt x="514" y="388" on="0"/>
        <pt x="494" y="359" on="1"/>
        <pt x="495" y="351" on="0"/>
        <pt x="496" y="335" on="0"/>
        <pt x="496" y="327" on="1"/>
        <pt x="496" y="0" on="1"/>
        <pt x="383" y="0" on="1"/>
        <pt x="383" y="303" on="1"/>
        <pt x="383" y="355" on="0"/>
        <pt x="328" y="418" on="0"/>
        <pt x="282" y="418" on="1"/>
        <pt x="252" y="418" on="0"/>
        <pt x="202" y="389" on="0"/>
        <pt x="183" y="361" on="1"/>
        <pt x="183" y="0" on="1"/>
      </contour>
    </TTGlyph>
    <TTGlyph name="macron" xMin="115" yMin="618" xMax="414" yMax="692">
      <contour>
        <pt x="414" y="692" on="1"/>
        <pt x="414" y="618" on="1"/>
        <pt x="115" y="618" on="1"/>
        <pt x="115" y="692" on="1"/>
      </contour>
    </TTGlyph>
    <TTGlyph name="minus" xMin="62" yMin="313" xMax="482" yMax="403">
      <contour>
        <pt x="482" y="403" on="1"/>
        <pt x="482" y="313" on="1"/>
        <pt x="62" y="313" on="1"/>
        <pt x="62" y="403" on="1"/>
      </contour>
    </TTGlyph>
    <TTGlyph name="multiply" xMin="75" yMin="148" xMax="471" yMax="570">
      <contour>
        <pt x="128" y="149" on="1"/>
        <pt x="75" y="205" on="1"/>
        <pt x="219" y="359" on="1"/>
        <pt x="75" y="513" on="1"/>
        <pt x="129" y="570" on="1"/>
        <pt x="273" y="416" on="1"/>
        <pt x="417" y="569" on="1"/>
        <pt x="470" y="514" on="1"/>
        <pt x="326" y="360" on="1"/>
        <pt x="471" y="205" on="1"/>
        <pt x="416" y="148" on="1"/>
        <pt x="272" y="302" on="1"/>
      </contour>
    </TTGlyph>
    <TTGlyph name="n" xMin="70" yMin="0" xMax="515" yMax="509">
      <contour>
        <pt x="70" y="0" on="1"/>
        <pt x="70" y="501" on="1"/>
        <pt x="183" y="501" on="1"/>
        <pt x="183" y="419" on="1"/>
        <pt x="211" y="463" on="0"/>
        <pt x="292" y="509" on="0"/>
        <pt x="342" y="509" on="1"/>
        <pt x="418" y="509" on="0"/>
        <pt x="515" y="408" on="0"/>
        <pt x="515" y="330" on="1"/>
        <pt x="515" y="0" on="1"/>
        <pt x="402" y="0" on="1"/>
        <pt x="402" y="298" on="1"/>
        <pt x="402" y="352" on="0"/>
        <pt x="342" y="418" on="0"/>
        <pt x="292" y="418" on="1"/>
        <pt x="258" y="418" on="0"/>
        <pt x="203" y="387" on="0"/>
        <pt x="183" y="358" on="1"/>
        <pt x="183" y="0" on="1"/>
      </contour>
    </TTGlyph>
    <TTGlyph name="nacute" xMin="70" yMin="0" xMax="515" yMax="724">
      <component glyphName="n" x="0" y="0" flags="0x204"/>
      <component glyphName="acute" x="63" y="0" flags="0x4"/>
    </TTGlyph>
    <TTGlyph name="ncaron" xMin="70" yMin="0" xMax="515" yMax="730">
      <component glyphName="n" x="0" y="0" flags="0x204"/>
      <component glyphName="caron" x="29" y="0" flags="0x4"/>
    </TTGlyph>
    <TTGlyph name="ncommaaccent" xMin="70" yMin="-288" xMax="515" yMax="509">
      <component glyphName="n" x="0" y="0" flags="0x204"/>
      <component glyphName="commaaccent" x="158" y="0" flags="0x4"/>
    </TTGlyph>
    <TTGlyph name="nine" xMin="45" yMin="-9" xMax="581" yMax="710">
      <contour>
        <pt x="291" y="710" on="1"/>
        <pt x="355" y="710" on="0"/>
        <pt x="462" y="660" on="0"/>
        <pt x="539" y="570" on="0"/>
        <pt x="581" y="444" on="0"/>
        <pt x="581" y="369" on="1"/>
        <pt x="581" y="284" on="0"/>
        <pt x="534" y="144" on="0"/>
        <pt x="449" y="46" on="0"/>
        <pt x="328" y="-9" on="0"/>
        <pt x="255" y="-9" on="1"/>
        <pt x="205" y="-9" on="0"/>
        <pt x="104" y="23" on="0"/>
        <pt x="69" y="51" on="1"/>
        <pt x="129" y="132" on="1"/>
        <pt x="159" y="110" on="0"/>
        <pt x="226" y="89" on="0"/>
        <pt x="264" y="89" on="1"/>
        <pt x="361" y="89" on="0"/>
        <pt x="471" y="236" on="0"/>
        <pt x="472" y="367" on="1"/>
        <pt x="435" y="318" on="0"/>
        <pt x="334" y="265" on="0"/>
        <pt x="279" y="265" on="1"/>
        <pt x="228" y="265" on="0"/>
        <pt x="142" y="297" on="0"/>
        <pt x="80" y="354" on="0"/>
        <pt x="45" y="433" on="0"/>
        <pt x="45" y="480" on="1"/>
        <pt x="45" y="530" on="0"/>
        <pt x="82" y="614" on="0"/>
        <pt x="147" y="675" on="0"/>
        <pt x="238" y="710" on="0"/>
      </contour>
      <contour>
        <pt x="296" y="352" on="1"/>
        <pt x="346" y="352" on="0"/>
        <pt x="435" y="396" on="0"/>
        <pt x="467" y="436" on="1"/>
        <pt x="454" y="517" on="0"/>
        <pt x="361" y="616" on="0"/>
        <pt x="295" y="616" on="1"/>
        <pt x="234" y="616" on="0"/>
        <pt x="152" y="540" on="0"/>
        <pt x="152" y="483" on="1"/>
        <pt x="152" y="426" on="0"/>
        <pt x="233" y="352" on="0"/>
      </contour>
    </TTGlyph>
    <TTGlyph name="notequal" xMin="62" yMin="104" xMax="482" yMax="604">
      <contour>
        <pt x="68" y="104" on="1"/>
        <pt x="142" y="219" on="1"/>
        <pt x="62" y="219" on="1"/>
        <pt x="62" y="309" on="1"/>
        <pt x="200" y="309" on="1"/>
        <pt x="258" y="400" on="1"/>
        <pt x="62" y="400" on="1"/>
        <pt x="62" y="489" on="1"/>
        <pt x="315" y="489" on="1"/>
        <pt x="389" y="604" on="1"/>
        <pt x="474" y="604" on="1"/>
        <pt x="400" y="489" on="1"/>
        <pt x="482" y="489" on="1"/>
        <pt x="482" y="400" on="1"/>
        <pt x="343" y="400" on="1"/>
        <pt x="285" y="309" on="1"/>
        <pt x="482" y="309" on="1"/>
        <pt x="482" y="219" on="1"/>
        <pt x="228" y="219" on="1"/>
        <pt x="154" y="104" on="1"/>
      </contour>
    </TTGlyph>
    <TTGlyph name="ntilde" xMin="70" yMin="0" xMax="515" yMax="726">
      <component glyphName="n" x="0" y="0" flags="0x204"/>
      <component glyphName="tilde" x="31" y="0" flags="0x4"/>
    </TTGlyph>
    <TTGlyph name="numbersign" xMin="43" yMin="0" xMax="673" yMax="700">
      <contour>
        <pt x="60" y="0" on="1"/>
        <pt x="130" y="203" on="1"/>
        <pt x="43" y="203" on="1"/>
        <pt x="43" y="286" on="1"/>
        <pt x="158" y="286" on="1"/>
        <pt x="202" y="414" on="1"/>
        <pt x="90" y="414" on="1"/>
        <pt x="90" y="497" on="1"/>
        <pt x="230" y="497" on="1"/>
        <pt x="300" y="700" on="1"/>
        <pt x="399" y="700" on="1"/>
        <pt x="329" y="497" on="1"/>
        <pt x="488" y="497" on="1"/>
        <pt x="558" y="700" on="1"/>
        <pt x="656" y="700" on="1"/>
        <pt x="586" y="497" on="1"/>
        <pt x="673" y="497" on="1"/>
        <pt x="673" y="414" on="1"/>
        <pt x="558" y="414" on="1"/>
        <pt x="514" y="286" on="1"/>
        <pt x="625" y="286" on="1"/>
        <pt x="625" y="203" on="1"/>
        <pt x="486" y="203" on="1"/>
        <pt x="416" y="0" on="1"/>
        <pt x="318" y="0" on="1"/>
        <pt x="388" y="203" on="1"/>
        <pt x="229" y="203" on="1"/>
        <pt x="159" y="0" on="1"/>
      </contour>
      <contour>
        <pt x="257" y="286" on="1"/>
        <pt x="416" y="286" on="1"/>
        <pt x="460" y="414" on="1"/>
        <pt x="301" y="414" on="1"/>
      </contour>
    </TTGlyph>
    <TTGlyph name="o" xMin="47" yMin="-10" xMax="551" yMax="509">
      <contour>
        <pt x="47" y="250" on="1"/>
        <pt x="47" y="305" on="0"/>
        <pt x="86" y="400" on="0"/>
        <pt x="153" y="469" on="0"/>
        <pt x="246" y="509" on="0"/>
        <pt x="299" y="509" on="1"/>
        <pt x="353" y="509" on="0"/>
        <pt x="445" y="469" on="0"/>
        <pt x="513" y="400" on="0"/>
        <pt x="551" y="305" on="0"/>
        <pt x="551" y="250" on="1"/>
        <pt x="551" y="195" on="0"/>
        <pt x="512" y="99" on="0"/>
        <pt x="445" y="30" on="0"/>
        <pt x="352" y="-10" on="0"/>
        <pt x="299" y="-10" on="1"/>
        <pt x="246" y="-10" on="0"/>
        <pt x="153" y="30" on="0"/>
        <pt x="86" y="100" on="0"/>
        <pt x="47" y="195" on="0"/>
      </contour>
      <contour>
        <pt x="299" y="88" on="1"/>
        <pt x="360" y="88" on="0"/>
        <pt x="439" y="180" on="0"/>
        <pt x="439" y="249" on="1"/>
        <pt x="439" y="320" on="0"/>
        <pt x="359" y="412" on="0"/>
        <pt x="299" y="412" on="1"/>
        <pt x="238" y="412" on="0"/>
        <pt x="159" y="320" on="0"/>
        <pt x="159" y="249" on="1"/>
        <pt x="159" y="179" on="0"/>
        <pt x="238" y="88" on="0"/>
      </contour>
    </TTGlyph>
    <TTGlyph name="oacute" xMin="47" yMin="-10" xMax="551" yMax="724">
      <component glyphName="o" x="0" y="0" flags="0x204"/>
      <component glyphName="acute" x="72" y="0" flags="0x4"/>
    </TTGlyph>
    <TTGlyph name="obreve" xMin="47" yMin="-10" xMax="551" yMax="740">
      <component glyphName="o" x="0" y="0" flags="0x204"/>
      <component glyphName="breve" x="38" y="0" flags="0x4"/>
    </TTGlyph>
    <TTGlyph name="ocircumflex" xMin="47" yMin="-10" xMax="551" yMax="726">
      <component glyphName="o" x="0" y="0" flags="0x204"/>
      <component glyphName="circumflex" x="38" y="0" flags="0x4"/>
    </TTGlyph>
    <TTGlyph name="odieresis" xMin="47" yMin="-10" xMax="551" yMax="731">
      <component glyphName="o" x="0" y="0" flags="0x204"/>
      <component glyphName="dieresis" x="12" y="0" flags="0x4"/>
    </TTGlyph>
    <TTGlyph name="oe" xMin="47" yMin="-10" xMax="924" yMax="509">
      <contour>
        <pt x="47" y="250" on="1"/>
        <pt x="47" y="305" on="0"/>
        <pt x="86" y="400" on="0"/>
        <pt x="153" y="469" on="0"/>
        <pt x="246" y="509" on="0"/>
        <pt x="299" y="509" on="1"/>
        <pt x="360" y="509" on="0"/>
        <pt x="462" y="456" on="0"/>
        <pt x="495" y="410" on="1"/>
        <pt x="527" y="456" on="0"/>
        <pt x="627" y="509" on="0"/>
        <pt x="686" y="509" on="1"/>
        <pt x="737" y="509" on="0"/>
        <pt x="825" y="470" on="0"/>
        <pt x="888" y="402" on="0"/>
        <pt x="924" y="307" on="0"/>
        <pt x="924" y="251" on="1"/>
        <pt x="924" y="223" on="1"/>
        <pt x="553" y="223" on="1"/>
        <pt x="561" y="164" on="0"/>
        <pt x="646" y="86" on="0"/>
        <pt x="703" y="86" on="1"/>
        <pt x="738" y="86" on="0"/>
        <pt x="801" y="111" on="0"/>
        <pt x="822" y="133" on="1"/>
        <pt x="896" y="64" on="1"/>
        <pt x="850" y="26" on="0"/>
        <pt x="755" y="-10" on="0"/>
        <pt x="698" y="-10" on="1"/>
        <pt x="635" y="-10" on="0"/>
        <pt x="530" y="46" on="0"/>
        <pt x="496" y="92" on="1"/>
        <pt x="463" y="45" on="0"/>
        <pt x="360" y="-10" on="0"/>
        <pt x="299" y="-10" on="1"/>
        <pt x="246" y="-10" on="0"/>
        <pt x="153" y="30" on="0"/>
        <pt x="86" y="100" on="0"/>
        <pt x="47" y="195" on="0"/>
      </contour>
      <contour>
        <pt x="685" y="417" on="1"/>
        <pt x="635" y="417" on="0"/>
        <pt x="565" y="349" on="0"/>
        <pt x="555" y="292" on="1"/>
        <pt x="816" y="292" on="1"/>
        <pt x="806" y="347" on="0"/>
        <pt x="735" y="417" on="0"/>
      </contour>
      <contour>
        <pt x="299" y="88" on="1"/>
        <pt x="360" y="88" on="0"/>
        <pt x="440" y="180" on="0"/>
        <pt x="440" y="249" on="1"/>
        <pt x="440" y="320" on="0"/>
        <pt x="359" y="412" on="0"/>
        <pt x="299" y="412" on="1"/>
        <pt x="238" y="412" on="0"/>
        <pt x="159" y="320" on="0"/>
        <pt x="159" y="249" on="1"/>
        <pt x="159" y="179" on="0"/>
        <pt x="238" y="88" on="0"/>
      </contour>
    </TTGlyph>
    <TTGlyph name="ogonek" xMin="161" yMin="-231" xMax="349" yMax="19">
      <contour>
        <pt x="323" y="0" on="1"/>
        <pt x="274" y="-31" on="0"/>
        <pt x="227" y="-88" on="0"/>
        <pt x="227" y="-116" on="1"/>
        <pt x="227" y="-141" on="0"/>
        <pt x="259" y="-169" on="0"/>
        <pt x="286" y="-169" on="1"/>
        <pt x="299" y="-169" on="0"/>
        <pt x="325" y="-163" on="0"/>
        <pt x="333" y="-157" on="1"/>
        <pt x="349" y="-210" on="1"/>
        <pt x="334" y="-220" on="0"/>
        <pt x="291" y="-231" on="0"/>
        <pt x="268" y="-231" on="1"/>
        <pt x="219" y="-231" on="0"/>
        <pt x="161" y="-179" on="0"/>
        <pt x="161" y="-136" on="1"/>
        <pt x="161" y="-94" on="0"/>
        <pt x="219" y="-21" on="0"/>
        <pt x="284" y="19" on="1"/>
      </contour>
    </TTGlyph>
    <TTGlyph name="ograve" xMin="47" yMin="-10" xMax="551" yMax="724">
      <component glyphName="o" x="0" y="0" flags="0x204"/>
      <component glyphName="grave" x="-2" y="0" flags="0x4"/>
    </TTGlyph>
    <TTGlyph name="ohungarumlaut" xMin="47" yMin="-10" xMax="576" yMax="724">
      <component glyphName="o" x="0" y="0" flags="0x204"/>
      <component glyphName="hungarumlaut" x="47" y="0" flags="0x4"/>
    </TTGlyph>
    <TTGlyph name="omacron" xMin="47" yMin="-10" xMax="551" yMax="692">
      <component glyphName="o" x="0" y="0" flags="0x204"/>
      <component glyphName="macron" x="38" y="0" flags="0x4"/>
    </TTGlyph>
    <TTGlyph name="one" xMin="37" yMin="0" xMax="270" yMax="700">
      <contour>
        <pt x="270" y="700" on="1"/>
        <pt x="270" y="0" on="1"/>
        <pt x="161" y="0" on="1"/>
        <pt x="161" y="586" on="1"/>
        <pt x="37" y="532" on="1"/>
        <pt x="37" y="629" on="1"/>
        <pt x="201" y="700" on="1"/>
      </contour>
    </TTGlyph>
    <TTGlyph name="onehalf" xMin="22" yMin="0" xMax="652" yMax="700">
      <component glyphName="onesuperior" x="0" y="0" flags="0x4"/>
      <component glyphName="fraction" x="25" y="0" flags="0x4"/>
      <component glyphName="uni2082" x="371" y="0" flags="0x4"/>
    </TTGlyph>
    <TTGlyph name="onequarter" xMin="22" yMin="0" xMax="625" yMax="700">
      <component glyphName="onesuperior" x="0" y="0" flags="0x4"/>
      <component glyphName="fraction" x="25" y="0" flags="0x4"/>
      <component glyphName="uni2084" x="296" y="0" flags="0x4"/>
    </TTGlyph>
    <TTGlyph name="onesuperior" xMin="22" yMin="350" xMax="160" yMax="700">
      <component glyphName="uni2081" x="0" y="350" flags="0x4"/>
    </TTGlyph>
    <TTGlyph name="ordfeminine" xMin="30" yMin="306" xMax="377" yMax="708">
      <contour>
        <pt x="172" y="306" on="1"/>
        <pt x="110" y="306" on="0"/>
        <pt x="30" y="373" on="0"/>
        <pt x="30" y="425" on="1"/>
        <pt x="30" y="479" on="0"/>
        <pt x="115" y="541" on="0"/>
        <pt x="189" y="541" on="1"/>
        <pt x="214" y="541" on="0"/>
        <pt x="263" y="532" on="0"/>
        <pt x="287" y="522" on="1"/>
        <pt x="287" y="557" on="1"/>
        <pt x="287" y="594" on="0"/>
        <pt x="243" y="631" on="0"/>
        <pt x="200" y="631" on="1"/>
        <pt x="175" y="631" on="0"/>
        <pt x="119" y="615" on="0"/>
        <pt x="82" y="599" on="1"/>
        <pt x="49" y="667" on="1"/>
        <pt x="95" y="688" on="0"/>
        <pt x="176" y="708" on="0"/>
        <pt x="215" y="708" on="1"/>
        <pt x="292" y="708" on="0"/>
        <pt x="377" y="633" on="0"/>
        <pt x="377" y="566" on="1"/>
        <pt x="377" y="313" on="1"/>
        <pt x="287" y="313" on="1"/>
        <pt x="287" y="348" on="1"/>
        <pt x="261" y="326" on="0"/>
        <pt x="205" y="306" on="0"/>
      </contour>
      <contour>
        <pt x="118" y="426" on="1"/>
        <pt x="118" y="402" on="0"/>
        <pt x="160" y="372" on="0"/>
        <pt x="195" y="372" on="1"/>
        <pt x="222" y="372" on="0"/>
        <pt x="268" y="387" on="0"/>
        <pt x="287" y="401" on="1"/>
        <pt x="287" y="463" on="1"/>
        <pt x="267" y="472" on="0"/>
        <pt x="223" y="480" on="0"/>
        <pt x="198" y="480" on="1"/>
        <pt x="161" y="480" on="0"/>
        <pt x="118" y="451" on="0"/>
      </contour>
    </TTGlyph>
    <TTGlyph name="ordmasculine" xMin="32" yMin="305" xMax="441" yMax="708">
      <contour>
        <pt x="32" y="506" on="1"/>
        <pt x="32" y="548" on="0"/>
        <pt x="64" y="622" on="0"/>
        <pt x="118" y="677" on="0"/>
        <pt x="193" y="708" on="0"/>
        <pt x="236" y="708" on="1"/>
        <pt x="279" y="708" on="0"/>
        <pt x="354" y="677" on="0"/>
        <pt x="409" y="622" on="0"/>
        <pt x="441" y="548" on="0"/>
        <pt x="441" y="506" on="1"/>
        <pt x="441" y="464" on="0"/>
        <pt x="409" y="390" on="0"/>
        <pt x="354" y="336" on="0"/>
        <pt x="279" y="305" on="0"/>
        <pt x="236" y="305" on="1"/>
        <pt x="193" y="305" on="0"/>
        <pt x="118" y="336" on="0"/>
        <pt x="64" y="390" on="0"/>
        <pt x="32" y="464" on="0"/>
      </contour>
      <contour>
        <pt x="352" y="506" on="1"/>
        <pt x="352" y="557" on="0"/>
        <pt x="284" y="627" on="0"/>
        <pt x="236" y="627" on="1"/>
        <pt x="188" y="627" on="0"/>
        <pt x="121" y="557" on="0"/>
        <pt x="121" y="506" on="1"/>
        <pt x="121" y="455" on="0"/>
        <pt x="187" y="385" on="0"/>
        <pt x="236" y="385" on="1"/>
        <pt x="285" y="385" on="0"/>
        <pt x="352" y="455" on="0"/>
      </contour>
    </TTGlyph>
    <TTGlyph name="oslash" xMin="47" yMin="-10" xMax="551" yMax="509">
      <contour>
        <pt x="48" y="-5" on="1"/>
        <pt x="112" y="73" on="1"/>
        <pt x="81" y="107" on="0"/>
        <pt x="47" y="199" on="0"/>
        <pt x="47" y="250" on="1"/>
        <pt x="47" y="305" on="0"/>
        <pt x="86" y="400" on="0"/>
        <pt x="153" y="469" on="0"/>
        <pt x="246" y="509" on="0"/>
        <pt x="299" y="509" on="1"/>
        <pt x="339" y="509" on="0"/>
        <pt x="409" y="487" on="0"/>
        <pt x="439" y="468" on="1"/>
        <pt x="470" y="506" on="1"/>
        <pt x="550" y="506" on="1"/>
        <pt x="485" y="428" on="1"/>
        <pt x="516" y="394" on="0"/>
        <pt x="551" y="302" on="0"/>
        <pt x="551" y="250" on="1"/>
        <pt x="551" y="195" on="0"/>
        <pt x="512" y="99" on="0"/>
        <pt x="445" y="30" on="0"/>
        <pt x="352" y="-10" on="0"/>
        <pt x="299" y="-10" on="1"/>
        <pt x="259" y="-10" on="0"/>
        <pt x="188" y="12" on="0"/>
        <pt x="158" y="32" on="1"/>
        <pt x="127" y="-5" on="1"/>
      </contour>
      <contour>
        <pt x="159" y="249" on="1"/>
        <pt x="159" y="223" on="0"/>
        <pt x="171" y="176" on="0"/>
        <pt x="182" y="157" on="1"/>
        <pt x="374" y="389" on="1"/>
        <pt x="358" y="400" on="0"/>
        <pt x="320" y="412" on="0"/>
        <pt x="299" y="412" on="1"/>
        <pt x="238" y="412" on="0"/>
        <pt x="159" y="320" on="0"/>
      </contour>
      <contour>
        <pt x="299" y="88" on="1"/>
        <pt x="360" y="88" on="0"/>
        <pt x="439" y="180" on="0"/>
        <pt x="439" y="249" on="1"/>
        <pt x="439" y="276" on="0"/>
        <pt x="426" y="324" on="0"/>
        <pt x="415" y="343" on="1"/>
        <pt x="223" y="111" on="1"/>
        <pt x="239" y="100" on="0"/>
        <pt x="277" y="88" on="0"/>
      </contour>
    </TTGlyph>
    <TTGlyph name="otilde" xMin="47" yMin="-10" xMax="551" yMax="726">
      <component glyphName="o" x="0" y="0" flags="0x204"/>
      <component glyphName="tilde" x="40" y="0" flags="0x4"/>
    </TTGlyph>
    <TTGlyph name="p" xMin="70" yMin="-212" xMax="564" yMax="505">
      <contour>
        <pt x="70" y="-212" on="1"/>
        <pt x="70" y="501" on="1"/>
        <pt x="181" y="501" on="1"/>
        <pt x="181" y="429" on="1"/>
        <pt x="207" y="465" on="0"/>
        <pt x="288" y="505" on="0"/>
        <pt x="337" y="505" on="1"/>
        <pt x="384" y="505" on="0"/>
        <pt x="468" y="465" on="0"/>
        <pt x="529" y="396" on="0"/>
        <pt x="564" y="303" on="0"/>
        <pt x="564" y="250" on="1"/>
        <pt x="564" y="197" on="0"/>
        <pt x="528" y="103" on="0"/>
        <pt x="464" y="35" on="0"/>
        <pt x="378" y="-5" on="0"/>
        <pt x="329" y="-5" on="1"/>
        <pt x="285" y="-5" on="0"/>
        <pt x="210" y="29" on="0"/>
        <pt x="183" y="60" on="1"/>
        <pt x="183" y="-212" on="1"/>
      </contour>
      <contour>
        <pt x="303" y="410" on="1"/>
        <pt x="266" y="410" on="0"/>
        <pt x="205" y="382" on="0"/>
        <pt x="183" y="354" on="1"/>
        <pt x="183" y="145" on="1"/>
        <pt x="205" y="119" on="0"/>
        <pt x="267" y="90" on="0"/>
        <pt x="303" y="90" on="1"/>
        <pt x="367" y="90" on="0"/>
        <pt x="452" y="181" on="0"/>
        <pt x="452" y="250" on="1"/>
        <pt x="452" y="318" on="0"/>
        <pt x="366" y="410" on="0"/>
      </contour>
    </TTGlyph>
    <TTGlyph name="paragraph" xMin="44" yMin="0" xMax="598" yMax="700">
      <contour>
        <pt x="313" y="0" on="1"/>
        <pt x="313" y="266" on="1"/>
        <pt x="272" y="266" on="1"/>
        <pt x="172" y="266" on="0"/>
        <pt x="44" y="386" on="0"/>
        <pt x="44" y="480" on="1"/>
        <pt x="44" y="579" on="0"/>
        <pt x="170" y="700" on="0"/>
        <pt x="271" y="700" on="1"/>
        <pt x="598" y="700" on="1"/>
        <pt x="598" y="0" on="1"/>
        <pt x="505" y="0" on="1"/>
        <pt x="505" y="266" on="1"/>
        <pt x="406" y="266" on="1"/>
        <pt x="406" y="0" on="1"/>
      </contour>
      <contour>
        <pt x="505" y="358" on="1"/>
        <pt x="505" y="607" on="1"/>
        <pt x="406" y="607" on="1"/>
        <pt x="406" y="358" on="1"/>
      </contour>
      <contour>
        <pt x="268" y="358" on="1"/>
        <pt x="313" y="358" on="1"/>
        <pt x="313" y="607" on="1"/>
        <pt x="268" y="607" on="1"/>
        <pt x="212" y="607" on="0"/>
        <pt x="143" y="538" on="0"/>
        <pt x="143" y="483" on="1"/>
        <pt x="143" y="426" on="0"/>
        <pt x="212" y="358" on="0"/>
      </contour>
    </TTGlyph>
    <TTGlyph name="parenleft" xMin="69" yMin="-222" xMax="371" yMax="711">
      <contour>
        <pt x="69" y="245" on="1"/>
        <pt x="69" y="398" on="0"/>
        <pt x="194" y="639" on="0"/>
        <pt x="311" y="711" on="1"/>
        <pt x="371" y="639" on="1"/>
        <pt x="275" y="578" on="0"/>
        <pt x="171" y="373" on="0"/>
        <pt x="171" y="245" on="1"/>
        <pt x="171" y="116" on="0"/>
        <pt x="275" y="-88" on="0"/>
        <pt x="371" y="-149" on="1"/>
        <pt x="311" y="-222" on="1"/>
        <pt x="194" y="-150" on="0"/>
        <pt x="69" y="92" on="0"/>
      </contour>
    </TTGlyph>
    <TTGlyph name="parenright" xMin="43" yMin="-222" xMax="345" yMax="711">
      <contour>
        <pt x="345" y="244" on="1"/>
        <pt x="345" y="91" on="0"/>
        <pt x="220" y="-150" on="0"/>
        <pt x="103" y="-222" on="1"/>
        <pt x="43" y="-150" on="1"/>
        <pt x="139" y="-89" on="0"/>
        <pt x="243" y="116" on="0"/>
        <pt x="243" y="244" on="1"/>
        <pt x="243" y="373" on="0"/>
        <pt x="139" y="577" on="0"/>
        <pt x="43" y="638" on="1"/>
        <pt x="103" y="711" on="1"/>
        <pt x="220" y="639" on="0"/>
        <pt x="345" y="397" on="0"/>
      </contour>
    </TTGlyph>
    <TTGlyph name="percent" xMin="28" yMin="-5" xMax="745" yMax="706">
      <component glyphName="uni2070" x="0" y="0" flags="0x4"/>
      <component glyphName="fraction" x="120" y="0" flags="0x4"/>
      <component glyphName="uni2080" x="415" y="0" flags="0x4"/>
    </TTGlyph>
    <TTGlyph name="period" xMin="52" yMin="-9" xMax="192" yMax="137">
      <contour>
        <pt x="122" y="137" on="1"/>
        <pt x="150" y="137" on="0"/>
        <pt x="192" y="94" on="0"/>
        <pt x="192" y="64" on="1"/>
        <pt x="192" y="33" on="0"/>
        <pt x="150" y="-9" on="0"/>
        <pt x="122" y="-9" on="1"/>
        <pt x="94" y="-9" on="0"/>
        <pt x="52" y="33" on="0"/>
        <pt x="52" y="64" on="1"/>
        <pt x="52" y="94" on="0"/>
        <pt x="94" y="137" on="0"/>
      </contour>
    </TTGlyph>
    <TTGlyph name="periodcentered" xMin="61" yMin="213" xMax="201" yMax="359">
      <component glyphName="period" x="9" y="222" flags="0x4"/>
    </TTGlyph>
    <TTGlyph name="periodcentered.cap" xMin="61" yMin="278" xMax="201" yMax="424">
      <component glyphName="periodcentered" x="0" y="65" flags="0x4"/>
    </TTGlyph>
    <TTGlyph name="perthousand" xMin="28" yMin="-5" xMax="1096" yMax="706">
      <component glyphName="uni2070" x="0" y="0" flags="0x4"/>
      <component glyphName="fraction" x="120" y="0" flags="0x4"/>
      <component glyphName="uni2080" x="415" y="0" flags="0x4"/>
      <component glyphName="uni2080" x="766" y="0" flags="0x4"/>
    </TTGlyph>
    <TTGlyph name="plus" xMin="62" yMin="135" xMax="482" yMax="578">
      <contour>
        <pt x="316" y="135" on="1"/>
        <pt x="229" y="135" on="1"/>
        <pt x="229" y="313" on="1"/>
        <pt x="62" y="313" on="1"/>
        <pt x="62" y="403" on="1"/>
        <pt x="229" y="403" on="1"/>
        <pt x="229" y="578" on="1"/>
        <pt x="316" y="578" on="1"/>
        <pt x="316" y="403" on="1"/>
        <pt x="482" y="403" on="1"/>
        <pt x="482" y="313" on="1"/>
        <pt x="316" y="313" on="1"/>
      </contour>
    </TTGlyph>
    <TTGlyph name="plusminus" xMin="62" yMin="-1" xMax="482" yMax="605">
      <contour>
        <pt x="316" y="189" on="1"/>
        <pt x="229" y="189" on="1"/>
        <pt x="229" y="354" on="1"/>
        <pt x="62" y="354" on="1"/>
        <pt x="62" y="443" on="1"/>
        <pt x="229" y="443" on="1"/>
        <pt x="229" y="605" on="1"/>
        <pt x="316" y="605" on="1"/>
        <pt x="316" y="443" on="1"/>
        <pt x="482" y="443" on="1"/>
        <pt x="482" y="354" on="1"/>
        <pt x="316" y="354" on="1"/>
      </contour>
      <contour>
        <pt x="482" y="89" on="1"/>
        <pt x="482" y="-1" on="1"/>
        <pt x="62" y="-1" on="1"/>
        <pt x="62" y="89" on="1"/>
      </contour>
    </TTGlyph>
    <TTGlyph name="q" xMin="47" yMin="-212" xMax="540" yMax="505">
      <contour>
        <pt x="274" y="-5" on="1"/>
        <pt x="227" y="-5" on="0"/>
        <pt x="143" y="35" on="0"/>
        <pt x="82" y="104" on="0"/>
        <pt x="47" y="197" on="0"/>
        <pt x="47" y="250" on="1"/>
        <pt x="47" y="303" on="0"/>
        <pt x="83" y="397" on="0"/>
        <pt x="146" y="465" on="0"/>
        <pt x="232" y="505" on="0"/>
        <pt x="281" y="505" on="1"/>
        <pt x="324" y="505" on="0"/>
        <pt x="400" y="470" on="0"/>
        <pt x="428" y="437" on="1"/>
        <pt x="428" y="501" on="1"/>
        <pt x="540" y="501" on="1"/>
        <pt x="540" y="-212" on="1"/>
        <pt x="427" y="-212" on="1"/>
        <pt x="427" y="66" on="1"/>
        <pt x="401" y="33" on="0"/>
        <pt x="320" y="-5" on="0"/>
      </contour>
      <contour>
        <pt x="159" y="250" on="1"/>
        <pt x="159" y="182" on="0"/>
        <pt x="245" y="90" on="0"/>
        <pt x="308" y="90" on="1"/>
        <pt x="344" y="90" on="0"/>
        <pt x="405" y="118" on="0"/>
        <pt x="427" y="145" on="1"/>
        <pt x="427" y="356" on="1"/>
        <pt x="405" y="381" on="0"/>
        <pt x="343" y="410" on="0"/>
        <pt x="308" y="410" on="1"/>
        <pt x="244" y="410" on="0"/>
        <pt x="159" y="319" on="0"/>
      </contour>
    </TTGlyph>
    <TTGlyph name="question" xMin="27" yMin="-9" xMax="479" yMax="709">
      <contour>
        <pt x="364" y="351" on="1"/>
        <pt x="335" y="330" on="1"/>
        <pt x="303" y="307" on="0"/>
        <pt x="279" y="256" on="0"/>
        <pt x="281" y="217" on="1"/>
        <pt x="188" y="217" on="1"/>
        <pt x="184" y="280" on="0"/>
        <pt x="217" y="358" on="0"/>
        <pt x="263" y="392" on="1"/>
        <pt x="309" y="427" on="1"/>
        <pt x="343" y="453" on="0"/>
        <pt x="372" y="497" on="0"/>
        <pt x="372" y="522" on="1"/>
        <pt x="372" y="561" on="0"/>
        <pt x="306" y="613" on="0"/>
        <pt x="257" y="613" on="1"/>
        <pt x="212" y="613" on="0"/>
        <pt x="137" y="566" on="0"/>
        <pt x="114" y="525" on="1"/>
        <pt x="27" y="568" on="1"/>
        <pt x="61" y="634" on="0"/>
        <pt x="186" y="709" on="0"/>
        <pt x="262" y="709" on="1"/>
        <pt x="308" y="709" on="0"/>
        <pt x="388" y="681" on="0"/>
        <pt x="446" y="633" on="0"/>
        <pt x="479" y="566" on="0"/>
        <pt x="479" y="528" on="1"/>
        <pt x="479" y="475" on="0"/>
        <pt x="429" y="398" on="0"/>
      </contour>
      <contour>
        <pt x="235" y="131" on="1"/>
        <pt x="263" y="131" on="0"/>
        <pt x="304" y="90" on="0"/>
        <pt x="304" y="61" on="1"/>
        <pt x="304" y="32" on="0"/>
        <pt x="263" y="-9" on="0"/>
        <pt x="235" y="-9" on="1"/>
        <pt x="207" y="-9" on="0"/>
        <pt x="166" y="32" on="0"/>
        <pt x="166" y="61" on="1"/>
        <pt x="166" y="90" on="0"/>
        <pt x="207" y="131" on="0"/>
      </contour>
    </TTGlyph>
    <TTGlyph name="questiondown" xMin="44" yMin="-7" xMax="496" yMax="711">
      <contour>
        <pt x="159" y="351" on="1"/>
        <pt x="188" y="372" on="1"/>
        <pt x="220" y="395" on="0"/>
        <pt x="244" y="446" on="0"/>
        <pt x="242" y="485" on="1"/>
        <pt x="335" y="485" on="1"/>
        <pt x="339" y="422" on="0"/>
        <pt x="306" y="344" on="0"/>
        <pt x="260" y="310" on="1"/>
        <pt x="214" y="275" on="1"/>
        <pt x="180" y="249" on="0"/>
        <pt x="151" y="205" on="0"/>
        <pt x="151" y="180" on="1"/>
        <pt x="151" y="141" on="0"/>
        <pt x="217" y="89" on="0"/>
        <pt x="266" y="89" on="1"/>
        <pt x="311" y="89" on="0"/>
        <pt x="386" y="136" on="0"/>
        <pt x="409" y="177" on="1"/>
        <pt x="496" y="134" on="1"/>
        <pt x="462" y="68" on="0"/>
        <pt x="337" y="-7" on="0"/>
        <pt x="261" y="-7" on="1"/>
        <pt x="215" y="-7" on="0"/>
        <pt x="135" y="21" on="0"/>
        <pt x="77" y="69" on="0"/>
        <pt x="44" y="136" on="0"/>
        <pt x="44" y="174" on="1"/>
        <pt x="44" y="227" on="0"/>
        <pt x="94" y="304" on="0"/>
      </contour>
      <contour>
        <pt x="288" y="571" on="1"/>
        <pt x="260" y="571" on="0"/>
        <pt x="219" y="612" on="0"/>
        <pt x="219" y="641" on="1"/>
        <pt x="219" y="670" on="0"/>
        <pt x="260" y="711" on="0"/>
        <pt x="288" y="711" on="1"/>
        <pt x="316" y="711" on="0"/>
        <pt x="357" y="670" on="0"/>
        <pt x="357" y="641" on="1"/>
        <pt x="357" y="612" on="0"/>
        <pt x="316" y="571" on="0"/>
      </contour>
    </TTGlyph>
    <TTGlyph name="quotedbl" xMin="71" yMin="489" xMax="356" yMax="750">
      <component glyphName="quotesingle" x="0" y="0" flags="0x4"/>
      <component glyphName="quotesingle" x="177" y="0" flags="0x4"/>
    </TTGlyph>
    <TTGlyph name="quotedblbase" xMin="15" yMin="-166" xMax="389" yMax="98">
      <component glyphName="comma" x="193" y="0" flags="0x4"/>
      <component glyphName="comma" x="0" y="0" flags="0x4"/>
    </TTGlyph>
    <TTGlyph name="quotedblleft" xMin="40" yMin="486" xMax="412" yMax="750">
      <contour>
        <pt x="154" y="486" on="1"/>
        <pt x="40" y="486" on="1"/>
        <pt x="138" y="750" on="1"/>
        <pt x="221" y="750" on="1"/>
      </contour>
      <contour>
        <pt x="345" y="486" on="1"/>
        <pt x="231" y="486" on="1"/>
        <pt x="329" y="750" on="1"/>
        <pt x="412" y="750" on="1"/>
      </contour>
    </TTGlyph>
    <TTGlyph name="quotedblright" xMin="50" yMin="486" xMax="422" yMax="750">
      <component glyphName="comma" x="226" y="652" flags="0x4"/>
      <component glyphName="comma" x="35" y="652" flags="0x4"/>
    </TTGlyph>
    <TTGlyph name="quoteleft" xMin="40" yMin="486" xMax="221" yMax="750">
      <contour>
        <pt x="154" y="486" on="1"/>
        <pt x="40" y="486" on="1"/>
        <pt x="138" y="750" on="1"/>
        <pt x="221" y="750" on="1"/>
      </contour>
    </TTGlyph>
    <TTGlyph name="quoteright" xMin="50" yMin="486" xMax="231" yMax="750">
      <component glyphName="comma" x="35" y="652" flags="0x4"/>
    </TTGlyph>
    <TTGlyph name="quotesinglbase" xMin="15" yMin="-166" xMax="196" yMax="98">
      <component glyphName="comma" x="0" y="0" flags="0x4"/>
    </TTGlyph>
    <TTGlyph name="quotesingle" xMin="71" yMin="489" xMax="179" yMax="750">
      <contour>
        <pt x="85" y="489" on="1"/>
        <pt x="71" y="750" on="1"/>
        <pt x="179" y="750" on="1"/>
        <pt x="164" y="489" on="1"/>
      </contour>
    </TTGlyph>
    <TTGlyph name="r" xMin="70" yMin="0" xMax="370" yMax="510">
      <contour>
        <pt x="70" y="0" on="1"/>
        <pt x="70" y="501" on="1"/>
        <pt x="183" y="501" on="1"/>
        <pt x="183" y="392" on="1"/>
        <pt x="203" y="449" on="0"/>
        <pt x="274" y="510" on="0"/>
        <pt x="321" y="510" on="1"/>
        <pt x="335" y="509" on="0"/>
        <pt x="357" y="505" on="0"/>
        <pt x="370" y="500" on="1"/>
        <pt x="370" y="401" on="1"/>
        <pt x="357" y="407" on="0"/>
        <pt x="324" y="413" on="0"/>
        <pt x="308" y="413" on="1"/>
        <pt x="268" y="413" on="0"/>
        <pt x="202" y="369" on="0"/>
        <pt x="183" y="330" on="1"/>
        <pt x="183" y="0" on="1"/>
      </contour>
    </TTGlyph>
    <TTGlyph name="racute" xMin="70" yMin="0" xMax="425" yMax="724">
      <component glyphName="r" x="0" y="0" flags="0x204"/>
      <component glyphName="acute" x="0" y="0" flags="0x4"/>
    </TTGlyph>
    <TTGlyph name="rcaron" xMin="50" yMin="0" xMax="404" yMax="730">
      <component glyphName="r" x="0" y="0" flags="0x204"/>
      <component glyphName="caron" x="-34" y="0" flags="0x4"/>
    </TTGlyph>
    <TTGlyph name="rcommaaccent" xMin="30" yMin="-288" xMax="370" yMax="510">
      <component glyphName="r" x="0" y="0" flags="0x204"/>
      <component glyphName="commaaccent" x="-5" y="0" flags="0x4"/>
    </TTGlyph>
</ttFont>
